<svg id="Слой_1" data-name="Слой 1" xmlns="http://www.w3.org/2000/svg" viewBox="0 0 180 80"><defs><style>.cls-1{fill:#00669a;}.cls-2{fill:#fff;}</style></defs><rect class="cls-1" x="69.27" y="13.97" width="41.46" height="43.88" rx="9.83"/><rect class="cls-1" x="67.34" y="25.83" width="45.32" height="45.32" rx="9.53" transform="translate(60.65 -49.44) rotate(45)"/><path class="cls-2" d="M78.39,53.26H76.92q0-1.65-.24-4.77c-.16-2.08-.25-3.33-.26-3.75h-.08q-.78,2.41-2,5.23a16.05,16.05,0,0,0-1.2,3.29h-1A17.23,17.23,0,0,0,71,49.91c-.74-1.9-1.21-3.16-1.41-3.8s-.33-1.1-.41-1.37H69.1c0,.68-.11,2-.3,4.1s-.29,3.53-.29,4.42H67.17s.18-1.4.53-4.07a51.06,51.06,0,0,0,.53-5.56h2a17.33,17.33,0,0,0,1.25,4.07,18.43,18.43,0,0,1,1.25,3.94h.08a17.14,17.14,0,0,1,1.4-4,16.09,16.09,0,0,0,1.41-4.06h2c0,1,.12,2.88.36,5.53S78.39,53.18,78.39,53.26Z"/><path class="cls-2" d="M87.48,52.15l0,1.11H81.15c.07-1.53.11-3.21.11-5.06s0-3.26-.11-4.57h5.9L87,44.73c-1.43-.06-2.94-.09-4.54-.09,0,.76,0,1.8,0,3.1,1.39,0,2.62,0,3.7-.09v1.11c-1.15,0-2.39-.07-3.7-.07,0,1.27,0,2.46.07,3.57C84.28,52.26,85.92,52.22,87.48,52.15Z"/><path class="cls-2" d="M97,53.26H95.46c.06-1.7.08-3.23.08-4.59H90.87c0,1.1,0,2.63.08,4.59H89.46c.08-1.8.11-3.48.11-5.06s0-3.17-.11-4.57H91c-.07,1.41-.1,2.78-.1,4.11h4.71c0-1.07,0-2.44-.1-4.11H97c-.08,1.37-.12,2.89-.12,4.57C96.83,50,96.87,51.73,97,53.26Z"/><path class="cls-2" d="M112.45,48.3a5.23,5.23,0,0,1-1.38,3.85,4.5,4.5,0,0,1-3.34,1.4,4.07,4.07,0,0,1-3.34-1.42,5.26,5.26,0,0,1-1.16-3.46h-2c0,1.64,0,3.17.11,4.59H99.88c.08-1.6.12-3.28.12-5.06s0-3.27-.12-4.57h1.48c0,.54-.07,1.91-.11,4.11h2a4.88,4.88,0,0,1,1.6-3.18A4.58,4.58,0,0,1,108,43.43a4.38,4.38,0,0,1,3.17,1.29A4.74,4.74,0,0,1,112.45,48.3Zm-1.39.17a4.18,4.18,0,0,0-1-3,3.14,3.14,0,0,0-2.35-1,2.85,2.85,0,0,0-2.22,1.09,4.43,4.43,0,0,0-.93,3,4.15,4.15,0,0,0,1,3,3.16,3.16,0,0,0,2.39,1,2.75,2.75,0,0,0,2.2-1.09A4.46,4.46,0,0,0,111.06,48.47Z"/><path class="cls-2" d="M99.17,36.05l-7.92,3a1.6,1.6,0,0,1-1.14,0l-7.92-3a1.63,1.63,0,0,1-1-1.51V30.77a1.62,1.62,0,0,1,2.19-1.51l6.77,2.57a1.6,1.6,0,0,0,1.14,0L98,29.26a1.62,1.62,0,0,1,2.19,1.51v3.77A1.61,1.61,0,0,1,99.17,36.05Z"/><path class="cls-2" d="M99.17,64.73l-7.92,3a1.71,1.71,0,0,1-1.14,0l-7.92-3a1.63,1.63,0,0,1-1-1.51V59.45a1.62,1.62,0,0,1,2.19-1.51l6.77,2.57a1.6,1.6,0,0,0,1.14,0L98,57.94a1.62,1.62,0,0,1,2.19,1.51v3.77A1.61,1.61,0,0,1,99.17,64.73Z"/><path class="cls-2" d="M99.17,24.47l-7.92,3a1.6,1.6,0,0,1-1.14,0l-7.92-3a1.63,1.63,0,0,1-1-1.51V19.2a1.62,1.62,0,0,1,2.19-1.51l6.77,2.56a1.6,1.6,0,0,0,1.14,0L98,17.69a1.62,1.62,0,0,1,2.19,1.51V23A1.61,1.61,0,0,1,99.17,24.47Z"/></svg>