<svg id="Слой_1" data-name="Слой 1" xmlns="http://www.w3.org/2000/svg" viewBox="0 0 43.57 44.26"><defs><style>.cls-1{fill:#00669a;}.cls-2{fill:#fff;}</style></defs><circle class="cls-1" cx="22.05" cy="22.01" r="18.73"/><path class="cls-2" d="M11.17,14.11l10.15-3.5a2.31,2.31,0,0,1,1.47,0l10.15,3.5a1.91,1.91,0,0,1,1.33,1.77v4.4A2,2,0,0,1,31.47,22l-8.68-3a2.18,2.18,0,0,0-1.47,0l-8.68,3a2.05,2.05,0,0,1-2.81-1.76v-4.4A1.91,1.91,0,0,1,11.17,14.11Z"/><path class="cls-2" d="M11.17,24.81l10.15-3.5a2.31,2.31,0,0,1,1.47,0l10.15,3.5a1.9,1.9,0,0,1,1.33,1.77V31a2,2,0,0,1-2.8,1.76l-8.68-3a2.18,2.18,0,0,0-1.47,0l-8.68,3A2.05,2.05,0,0,1,9.83,31v-4.4A1.9,1.9,0,0,1,11.17,24.81Z"/></svg>