<?xml version="1.0" encoding="utf-8"?>
<!-- Generator: Adobe Illustrator 25.2.1, SVG Export Plug-In . SVG Version: 6.00 Build 0)  -->
<svg version="1.1" id="Слой_1" xmlns="http://www.w3.org/2000/svg" xmlns:xlink="http://www.w3.org/1999/xlink" x="0px" y="0px"
	 viewBox="0 0 412.6 163.4" style="enable-background:new 0 0 412.6 163.4;" xml:space="preserve">
<style type="text/css">
	.st0{fill:#00669A;}
	.st1{fill:#4D4D4D;}
</style>
<path class="st0" d="M220.8,109.8c-12.6,24.8-45.8,46.1-85.8,42.6c-35.5-3.1-62.1-26.8-69.3-50c2.7,3.2,4.7,5.6,6.8,7.9
	c17.5,18.8,39.4,29.4,66.6,29.2c25.8-0.2,47-9.8,63.2-28.4c1.6-1.9,2.9-2.6,5.7-2.1C212.2,109.8,216.4,109.6,220.8,109.8z"/>
<path class="st0" d="M93.2,65.9c12.8-25.1,46.4-46.7,86.9-43.2c36,3.1,63,27.1,70.2,50.6c-2.8-3.2-4.8-5.7-6.9-8
	c-17.7-19.1-40-29.8-67.5-29.6c-26.1,0.2-47.7,9.9-64,28.8c-1.6,1.9-3,2.6-5.8,2.1C101.9,65.9,97.6,66.1,93.2,65.9z"/>
<path class="st1" d="M207.2,51h8c1.6-14.2,6-27.9,13-40.4C219.6,16.1,206.9,41.2,207.2,51z"/>
<path class="st1" d="M29.9,55.2c-0.9-2.5-2.3-4.7-4-6.7c-1.2-1.2-2.8-2-4.5-2.3v-1.7c0.2,0,0.8,0,1.7-0.1s1.5-0.1,1.9-0.1
	c1.5,0,3,0.1,4.6,0.3c3.4,0.5,6.5,2.1,8.8,4.7c1.5,1.7,2.7,3.7,3.5,5.8l13.5,31.9c0,0,4.2-20.3,6.1-26.9c1.7-6.1,8.2-23.9,8.2-23.9
	l23.5,10.1c0,0-15.6,5.1-19.9,8.4c-11.1,8.3-15,34.4-16.5,44.7c-1,6.3,0.5,12.7,4.2,17.8c0,0-4-4.2-5.7-6.2c-1-1.2-5.1-6.8-5.1-6.8
	L29.9,55.2z"/>
<path class="st1" d="M74.5,83.2c0.1-1.5-0.2-3-0.8-4.4c-0.5-1.1-1.7-1.7-3.5-1.7h-0.6v-1.8H77c0.9,0,1.8,0.1,2.7,0.4
	c0.7,0.3,1.3,0.7,1.7,1.3c0.5,0.7,0.8,1.6,0.9,2.4c0.2,1.3,0.3,2.5,0.2,3.8V104h-8V83.2z M81.9,68.5c0,0.9-0.3,1.9-1,2.5
	c-0.6,0.6-1.5,0.9-2.4,0.9c-1.3,0.1-2.6-0.4-3.4-1.4c-0.8-0.9-1.2-2.1-1.1-3.2c0-0.9,0.3-1.9,1-2.5c0.6-0.6,1.5-0.9,2.4-0.9
	c1.3-0.1,2.6,0.4,3.5,1.4C81.5,66.1,81.9,67.3,81.9,68.5z"/>
<path class="st1" d="M102.1,77.3c-2.2,0-4.2,1.1-5.3,3c-1.4,2-2.1,5.1-2.1,9.2c0,8.2,2.6,12.2,7.7,12.2c1.8,0.1,3.7-0.4,5.2-1.5
	c1.4-1,2.6-2.2,3.6-3.6l1.9,1.4c-0.5,0.8-1,1.5-1.6,2.2c-0.7,0.8-1.5,1.5-2.4,2.1c-1,0.7-2.2,1.2-3.3,1.6c-1.5,0.4-3,0.6-4.6,0.6
	c-2.2,0-4.4-0.4-6.4-1.2c-1.7-0.7-3.3-1.8-4.6-3.2c-1.2-1.4-2.2-3-2.8-4.8c-1.2-3.8-1.2-7.8,0-11.6c0.6-1.8,1.5-3.4,2.8-4.8
	c1.3-1.4,2.8-2.5,4.6-3.2c2-0.8,4.2-1.2,6.4-1.2c2,0,4,0.1,5.9,0.5c1.3,0.2,2.6,0.8,3.6,1.7c0.8,0.9,1.3,2,1.3,3.1
	c0.1,1.3,0.2,3.1,0.2,5.4h-1.8c0-2.2-0.9-4.4-2.4-5.9C106.3,78,104.2,77.2,102.1,77.3z"/>
<path class="st1" d="M125.8,75.2h6.7V78h-6.7v18c0,2.3,0.3,3.8,0.8,4.6c0.5,0.8,1.4,1.2,2.4,1.2c0.6,0,1.3-0.1,1.9-0.2
	c0.5-0.1,1.1-0.3,1.6-0.6c0.5-0.3,1-0.5,1.4-0.9l0.9,1.7c-0.6,0.5-1.2,1-1.9,1.3c-0.8,0.4-1.6,0.7-2.5,0.9c-1.2,0.3-2.4,0.5-3.6,0.4
	c-2.4,0.1-4.7-0.7-6.5-2.3c-1.6-1.5-2.4-3.7-2.4-6.7V78h-3.7v-2.8h3.7v-5.5l3.1-3.7h4.9V75.2z"/>
<path class="st1" d="M135,89.6c0-2,0.3-4,1-5.9c0.6-1.8,1.6-3.4,2.9-4.8c1.3-1.4,2.9-2.5,4.6-3.2c4-1.6,8.4-1.6,12.3,0
	c1.7,0.7,3.3,1.8,4.6,3.2c1.3,1.4,2.3,3,2.9,4.8c1.3,3.8,1.3,8,0,11.8c-0.6,1.8-1.6,3.4-2.9,4.8c-1.3,1.4-2.9,2.5-4.6,3.2
	c-4,1.5-8.4,1.5-12.3,0c-1.7-0.7-3.3-1.8-4.6-3.2c-1.3-1.4-2.3-3-2.9-4.8C135.3,93.6,135,91.6,135,89.6z M156.1,89.6
	c0-1.6-0.1-3.3-0.4-4.9c-0.2-1.3-0.6-2.7-1.2-3.9c-0.4-1-1.1-1.9-2-2.6c-1.7-1.2-4-1.2-5.6,0c-0.9,0.7-1.6,1.6-2,2.6
	c-0.6,1.2-1,2.5-1.2,3.9c-0.5,3.2-0.5,6.5,0,9.7c0.2,1.3,0.6,2.6,1.2,3.9c0.4,1,1.1,1.9,2,2.6c1.7,1.2,3.9,1.2,5.6,0
	c0.9-0.7,1.6-1.6,2-2.6c0.6-1.2,1-2.5,1.2-3.9C156,92.9,156.1,91.2,156.1,89.6L156.1,89.6z"/>
<path class="st1" d="M183.8,74.6c1.5-0.1,3.1,0.4,4.3,1.2c0.4,0.2,0.7,0.5,0.9,0.9c0.2,0.3,0.5,0.6,0.6,0.9c0.2,0.3,0.4,0.7,0.5,1
	l-3.1,2.4c-0.3-0.4-0.7-0.8-1.1-1.2c-0.4-0.3-0.8-0.6-1.3-0.9c-0.6-0.3-1.2-0.4-1.8-0.4c-1.1,0-2.3,0.2-3.3,0.6
	c-0.8,0.3-1.5,0.8-2.1,1.3c0,0.3,0.1,0.6,0.1,0.9s0.1,0.6,0.1,1s0,0.7,0,1.1V104h-8V83.2c0-0.8,0-1.7-0.1-2.5
	c-0.1-0.7-0.3-1.4-0.6-2c-0.3-0.5-0.7-1-1.3-1.3c-0.7-0.3-1.5-0.5-2.2-0.4h-0.6v-1.8h6.1c1.1,0,2.2,0.1,3.3,0.5
	c0.8,0.3,1.5,1,1.9,1.7c0.9-0.8,1.9-1.4,3-1.9C180.5,74.8,182.1,74.5,183.8,74.6z"/>
<path class="st1" d="M206.3,56.5h8.9v36.3c-0.1,1.7,0.2,3.4,0.9,5c0.6,1.3,1.9,1.9,3.9,1.9h0.7v2.1h-8.2c-1,0-2-0.1-3-0.4
	c-0.8-0.3-1.5-0.8-1.9-1.4c-0.5-0.8-0.9-1.8-1-2.7c-0.2-1.4-0.3-2.9-0.3-4.3L206.3,56.5z"/>
<path class="st1" d="M223.6,79.3c-0.8-1.7-1.7-3.4-2.9-4.9c-0.7-0.9-1.7-1.5-2.8-1.6v-1.3l1.1-0.1c0.6,0,1-0.1,1.3-0.1
	c1.2,0,2.4,0.1,3.6,0.3c1.1,0.2,2.2,0.6,3.2,1.2c1.1,0.6,2.1,1.4,2.9,2.4c1,1.2,1.8,2.6,2.5,4l5.5,12.2l8.6-19.4h3.4l-13.5,30.4
	h-2.3L223.6,79.3z"/>
<path class="st1" d="M263.7,71.3c4.1,0,7.3,1.1,9.6,3.3s3.4,5.5,3.4,10v17.1h-5.4l-2.3-2.8h-0.3c-0.5,0.7-1.1,1.3-1.8,1.8
	c-0.7,0.5-1.5,0.9-2.3,1.2c-1.1,0.4-2.3,0.5-3.5,0.5c-3.5,0-6.2-0.8-8-2.4c-1.8-1.5-2.8-3.8-2.8-6.2c0-1.4,0.2-2.7,0.8-4
	c0.6-1.2,1.5-2.3,2.7-3c1.6-0.9,3.4-1.5,5.2-1.8c2.8-0.5,5.6-0.7,8.4-0.6h1c0-3.8-0.5-6.4-1.6-7.9c-1-1.4-2.7-2.3-4.4-2.2
	c-0.7,0-1.4,0.1-2.1,0.2c-0.7,0.2-1.3,0.4-1.8,0.8c-0.6,0.5-1.1,1-1.5,1.7c-0.5,0.9-0.8,1.9-1,2.9h-3.5c0-1.1,0.1-2.2,0.2-3.4
	c0.1-1.1,0.6-2.2,1.4-3c1-1,2.4-1.6,3.8-1.7C259.8,71.5,261.7,71.3,263.7,71.3z M268.4,87.2h-1c-3,0-5.2,0.6-6.6,1.7
	c-1.4,1.3-2.1,3.2-2,5.1c-0.1,1.5,0.3,2.9,1.1,4.1c0.7,0.9,1.8,1.4,3,1.4c0.9,0,1.7-0.2,2.4-0.6c0.6-0.4,1.2-0.9,1.7-1.4
	c0.5-0.6,1-1.3,1.3-2.1L268.4,87.2z"/>
<path class="st1" d="M296.8,74.4c-1.2,0-2.4,0.2-3.5,0.6c-0.9,0.3-1.7,0.8-2.3,1.4c0,0.2,0.1,0.6,0.2,0.9c0.1,0.4,0.2,0.7,0.2,1.1
	c0.1,0.5,0.1,0.9,0.1,1.4v22h-8.2V80.2c0-0.9,0-1.7-0.1-2.6c-0.1-0.7-0.3-1.4-0.6-2c-0.3-0.6-0.8-1-1.3-1.3
	c-0.7-0.3-1.5-0.5-2.3-0.4h-0.6V72h6.3c1.2,0,2.3,0.1,3.4,0.5c0.8,0.4,1.5,1,1.9,1.8c0.4-0.4,0.9-0.7,1.4-1c0.6-0.4,1.2-0.7,1.9-1
	c0.8-0.3,1.7-0.5,2.6-0.7c1.1-0.2,2.3-0.3,3.4-0.3c4,0,7,0.9,9,2.8s3,4.8,3,8.9v18.8h-8.2V82.8c0-3.1-0.6-5.3-1.7-6.6
	C300,75,298.4,74.4,296.8,74.4z"/>
<path class="st1" d="M330.5,99.5c1.9,0.1,3.8-0.5,5.4-1.5c1.4-1.1,2.7-2.3,3.7-3.7l2,1.5c-0.5,0.8-1.1,1.6-1.7,2.3
	c-0.7,0.8-1.5,1.5-2.4,2.2c-1,0.7-2.2,1.2-3.4,1.6c-1.5,0.4-3,0.7-4.5,0.6c-2.1,0-4.1-0.4-6-1.2c-1.7-0.7-3.3-1.8-4.6-3.2
	c-1.3-1.4-2.3-3.1-3-5c-0.7-2-1-4.1-1-6.2c0-2.3,0.3-4.6,1.1-6.7c0.6-1.8,1.6-3.4,2.9-4.8c1.2-1.3,2.7-2.3,4.4-2.9
	c1.8-0.7,3.6-1,5.5-1c1.9,0,3.7,0.3,5.5,0.9c1.6,0.6,3.1,1.4,4.4,2.6c1.3,1.1,2.3,2.5,3,4c0.7,1.6,1.1,3.4,1.1,5.2
	c0,0.5,0,0.9,0,1.4s0,0.9-0.1,1.3s-0.1,0.9-0.1,1.3h-19.1c0,4.2,0.6,7.1,1.9,8.9C326.6,98.6,328.5,99.6,330.5,99.5z M334.3,85.2
	c0-1.8-0.1-3.5-0.4-5.2c-0.2-1.2-0.6-2.3-1.1-3.4c-0.4-0.8-1-1.4-1.7-1.8c-0.7-0.3-1.4-0.5-2.1-0.5c-0.7,0-1.4,0.2-2.1,0.5
	c-0.7,0.4-1.3,1.1-1.7,1.8c-0.6,1-1,2.2-1.2,3.4c-0.3,1.7-0.5,3.5-0.4,5.2H334.3z"/>
<path class="st1" d="M356.4,72h7v2.8h-7v18.7c0,2.4,0.3,4,0.9,4.8c0.5,0.8,1.5,1.3,2.4,1.2c0.7,0,1.3-0.1,1.9-0.2
	c0.6-0.1,1.1-0.3,1.6-0.6c0.5-0.3,1-0.6,1.5-0.9l0.9,1.8c-0.6,0.5-1.3,1-2,1.4c-0.8,0.4-1.7,0.7-2.6,1c-1.2,0.3-2.5,0.5-3.7,0.4
	c-2.5,0.1-4.9-0.7-6.8-2.3c-1.6-1.6-2.4-3.9-2.4-6.9V74.8h-3.8V72h3.8v-5.7l3.2-3.8h5.1L356.4,72z"/>
<path class="st1" d="M376.9,99.5c2.4,0,4-0.4,4.9-1.2c0.9-0.8,1.4-1.9,1.4-3.1c0-1.2-0.6-2.3-1.6-2.9c-1.3-0.8-2.6-1.6-4-2.2
	l-3.3-1.4c-2.2-0.9-4.2-2.1-6-3.7c-1.4-1.4-2.2-3.2-2.1-5.2c0-1.3,0.3-2.5,0.9-3.6c0.6-1.1,1.5-2,2.5-2.6c1.2-0.8,2.5-1.3,3.8-1.6
	c1.6-0.4,3.2-0.5,4.8-0.5c2.2-0.1,4.3,0.2,6.4,0.7c1.4,0.3,2.7,1,3.8,1.9c0.8,0.8,1.3,1.9,1.3,3.1c0.1,1.3,0.2,2.8,0.2,4.4h-2.2
	c-0.3-1.9-1.1-3.7-2.5-5.2c-1.5-1.5-3.6-2.3-5.8-2.1c-1.5-0.1-3,0.3-4.1,1.2c-0.8,0.8-1.3,1.9-1.3,3.1c0,1.1,0.4,2.1,1.2,2.8
	c1,0.8,2.1,1.5,3.3,1.9l3.8,1.6c2.4,0.9,4.6,2.2,6.6,3.8c1.5,1.4,2.4,3.4,2.3,5.4c0,1.3-0.3,2.5-1,3.6c-0.7,1.1-1.6,2-2.7,2.6
	c-1.3,0.8-2.6,1.3-4.1,1.6c-1.7,0.4-3.5,0.6-5.2,0.5c-2.2,0.1-4.3-0.2-6.4-0.7c-1.4-0.3-2.7-1-3.8-1.9c-0.8-0.8-1.3-1.9-1.3-3.1
	c-0.1-1.3-0.2-2.8-0.2-4.4h2.2c0.3,1.9,1.2,3.7,2.5,5.2C372.7,98.9,374.8,99.7,376.9,99.5z"/>
<g>
	<path d="M338.2,125c0,0.6-0.2,1-0.5,1.4c-0.3,0.4-0.8,0.5-1.4,0.5c-0.6,0-1.1-0.2-1.4-0.5c-0.3-0.4-0.5-0.8-0.5-1.4s0.2-1,0.5-1.4
		c0.3-0.4,0.8-0.5,1.4-0.5c0.6,0,1.1,0.2,1.4,0.5C338,123.9,338.2,124.4,338.2,125z"/>
	<path d="M346.4,125.4c1.2,0,2-0.2,2.5-0.6c0.5-0.4,0.7-0.9,0.7-1.5c0-0.6-0.3-1.1-0.8-1.5c-0.5-0.4-1.2-0.7-2-1.1l-1.6-0.7
		c-1.3-0.5-2.3-1.2-3-1.9c-0.7-0.7-1.1-1.6-1.1-2.6c0-0.7,0.1-1.3,0.4-1.8c0.3-0.5,0.7-1,1.2-1.3c0.5-0.4,1.2-0.6,1.9-0.8
		c0.7-0.2,1.5-0.3,2.4-0.3c1.3,0,2.4,0.1,3.2,0.3c0.8,0.2,1.5,0.5,1.9,0.9c0.4,0.4,0.6,0.9,0.7,1.5c0.1,0.7,0.1,1.4,0.1,2.2h-1.1
		c-0.2-1-0.6-1.9-1.2-2.6c-0.7-0.7-1.6-1.1-2.9-1.1c-0.9,0-1.6,0.2-2.1,0.6c-0.4,0.4-0.6,0.9-0.6,1.5c0,0.6,0.2,1,0.6,1.4
		c0.4,0.3,0.9,0.7,1.6,1l1.9,0.8c1.5,0.6,2.5,1.2,3.3,1.9c0.7,0.7,1.1,1.6,1.1,2.7c0,0.7-0.2,1.3-0.5,1.8c-0.3,0.5-0.8,1-1.3,1.3
		c-0.6,0.4-1.2,0.6-2,0.8c-0.8,0.2-1.7,0.3-2.6,0.3c-1.3,0-2.4-0.1-3.2-0.3c-0.8-0.2-1.5-0.5-1.9-0.9c-0.4-0.4-0.6-0.9-0.7-1.5
		c-0.1-0.7-0.1-1.4-0.1-2.2h1.1c0.2,1,0.6,1.9,1.2,2.6S345.1,125.4,346.4,125.4z"/>
	<path d="M357.1,115.7c0-0.9-0.1-1.7-0.4-2.3c-0.3-0.6-0.9-0.9-1.8-0.9h-0.3v-0.9h3.8c0.5,0,1,0.1,1.4,0.2c0.4,0.1,0.7,0.4,0.9,0.7
		c0.2,0.3,0.4,0.7,0.5,1.3c0.1,0.5,0.1,1.2,0.1,2v10.7h-4.1V115.7z M360.9,108.2c0,0.5-0.2,1-0.5,1.3c-0.3,0.3-0.7,0.5-1.2,0.5
		c-0.8,0-1.4-0.2-1.8-0.7c-0.4-0.5-0.6-1-0.6-1.7c0-0.5,0.2-1,0.5-1.3c0.3-0.3,0.7-0.5,1.2-0.5c0.8,0,1.4,0.2,1.8,0.7
		C360.7,107,360.9,107.5,360.9,108.2z"/>
	<path d="M369.7,111.6h3.5v1.4h-3.5v9.3c0,1.2,0.1,2,0.4,2.4c0.3,0.4,0.7,0.6,1.2,0.6c0.3,0,0.7,0,1-0.1c0.3-0.1,0.6-0.2,0.8-0.3
		c0.3-0.1,0.5-0.3,0.7-0.4l0.4,0.9c-0.3,0.3-0.6,0.5-1,0.7c-0.3,0.2-0.8,0.3-1.3,0.5c-0.5,0.1-1.1,0.2-1.8,0.2
		c-1.4,0-2.6-0.4-3.4-1.2c-0.8-0.8-1.2-1.9-1.2-3.4V113h-1.9v-1.4h1.9v-2.8l1.6-1.9h2.5V111.6z"/>
	<path d="M383.1,125.4c1.1,0,2-0.3,2.7-0.8c0.7-0.5,1.3-1.1,1.8-1.9l1,0.7c-0.2,0.4-0.5,0.7-0.8,1.1c-0.3,0.4-0.7,0.7-1.2,1.1
		c-0.5,0.3-1,0.6-1.7,0.8c-0.6,0.2-1.4,0.3-2.3,0.3c-1.1,0-2.1-0.2-3-0.6c-0.9-0.4-1.7-0.9-2.3-1.6c-0.6-0.7-1.1-1.5-1.5-2.4
		c-0.3-0.9-0.5-2-0.5-3.1c0-1.3,0.2-2.4,0.5-3.3s0.8-1.8,1.5-2.4c0.6-0.6,1.4-1.1,2.2-1.5c0.8-0.3,1.8-0.5,2.7-0.5
		c1,0,1.9,0.2,2.7,0.5c0.8,0.3,1.6,0.7,2.2,1.3c0.6,0.5,1.1,1.2,1.5,2c0.4,0.8,0.5,1.6,0.5,2.6c0,0.2,0,0.5,0,0.7c0,0.2,0,0.5,0,0.6
		c0,0.2,0,0.4-0.1,0.6h-9.5c0,2.1,0.3,3.6,1,4.4C381.2,124.9,382.1,125.4,383.1,125.4z M385,118.2c0-1.1-0.1-1.9-0.2-2.6
		c-0.1-0.7-0.3-1.3-0.6-1.7c-0.2-0.4-0.5-0.7-0.8-0.9c-0.3-0.2-0.7-0.3-1.1-0.3c-0.4,0-0.7,0.1-1,0.3c-0.3,0.2-0.6,0.5-0.9,0.9
		c-0.2,0.4-0.4,1-0.6,1.7c-0.1,0.7-0.2,1.6-0.2,2.6H385z"/>
</g>
</svg>
