<svg id="Слой_1" data-name="Слой 1" xmlns="http://www.w3.org/2000/svg" viewBox="0 0 30 30"><defs><style>.cls-1{fill:#fff;}.cls-2{fill:#1d1d1b;}</style></defs><rect class="cls-1" x="10.96" y="-2.86" width="8.01" height="35.76" rx="2.36" transform="translate(15 -6.19) rotate(45)"/><rect class="cls-1" x="10.96" y="-2.86" width="8.01" height="35.76" rx="2.36" transform="translate(-6.23 14.98) rotate(-45)"/><circle class="cls-1" cx="15" cy="15.04" r="12.5"/><path class="cls-2" d="M4.85,19.88H4.23V10h.62l1.84,1.79L8.5,10h.65v9.88H8.5v-9l-1.81,1.8-1.84-1.8Z"/><path class="cls-2" d="M9.68,18.45V10h3.49v.67H10.3v.76h5v.65h-5v5.73h2.87v.64Zm0,1.43V19.2H14.6v.68Z"/><path class="cls-2" d="M15.75,19.91V10h.62v1.28l2.95.39V10H20v10h-.63V13.68l-2.95-.39v6.62Zm3.52-7.61-2.9-.39v.71l2.9.4Z"/><path class="cls-2" d="M20.76,10h.6v3.59l.82-.55h0s0-.14,0-.3a3.71,3.71,0,0,1,.13-.5,4.65,4.65,0,0,1,.17-.49c.06-.15.09-.24.1-.27.37-1,.92-1.49,1.64-1.49a1.35,1.35,0,0,1,1,.41,3.23,3.23,0,0,1,.65,1.05,6.29,6.29,0,0,1,.34,1.39,10.42,10.42,0,0,1,.11,1.44,8.38,8.38,0,0,1-.12,1.46A7.22,7.22,0,0,1,25.84,17c-.38,1-.92,1.45-1.63,1.45S23,18,22.58,17a7.06,7.06,0,0,1-.34-1.26,8.41,8.41,0,0,1-.12-1.47V14a1.85,1.85,0,0,1,0-.23l-.77.5v5.57h-.6Zm1.32,9.18h4.23v.68H22.08Zm2.13-1.41c.58,0,1-.42,1.27-1.25a5.5,5.5,0,0,0,.24-1,9.65,9.65,0,0,0,.08-1.23A8.85,8.85,0,0,0,25.52,12,2,2,0,0,0,25,11a1.1,1.1,0,0,0-.78-.33c-.59,0-1,.44-1.33,1.31a5.45,5.45,0,0,0-.23,1.07,10.06,10.06,0,0,0-.08,1.27,9.52,9.52,0,0,0,.08,1.14,4.74,4.74,0,0,0,.26,1.11,2.39,2.39,0,0,0,.49.86A1.07,1.07,0,0,0,24.21,17.79Z"/></svg>