<?xml version="1.0" encoding="utf-8"?>
<!-- Generator: Adobe Illustrator 25.2.1, SVG Export Plug-In . SVG Version: 6.00 Build 0)  -->
<svg version="1.1" id="Слой_1" xmlns="http://www.w3.org/2000/svg" xmlns:xlink="http://www.w3.org/1999/xlink" x="0px" y="0px"
	 viewBox="0 0 93.2 80.4" style="enable-background:new 0 0 93.2 80.4;" xml:space="preserve">
<style type="text/css">
	.st0{fill:#FFFFFF;}
	.st1{fill:#174F81;}
	.st2{fill:#575756;}
	.st3{fill:#9D9C9C;}
</style>
<path class="st0" d="M33.9,30.8c1.3,0.5,2.5,1,3.8,1.4c2.9,1.2,5.9,2,9,2.5c2.6,0.4,5.3,0.5,8,0.4c0.4,0,0.8-0.1,1.2-0.3
	c0.2-0.1,0.3-0.2,0.3-0.4c0-0.2-0.2-0.3-0.4-0.3l-3.9-0.4h-0.4v-0.5l2.5-0.3l3.8-0.5c0.1,0,0.2,0,0.3-0.1c0.1-0.1,0.2-0.2,0.2-0.4
	c0-0.1-0.2-0.2-0.3-0.3c-0.1,0-0.2,0-0.3,0l-4.2,0h-0.3c-0.2-0.5-0.2-0.6,0.3-0.7c1.4-0.4,2.9-0.7,4.3-1c0.3-0.1,0.7-0.1,1-0.2
	s0.5-0.2,0.5-0.5c0-0.3-0.2-0.5-0.5-0.5c0,0,0,0,0,0c-0.3,0-0.7,0-1,0l-4.6,0.5c-0.2,0-0.4,0-0.6,0s-0.3,0-0.3-0.2
	c0-0.1,0.1-0.2,0.2-0.3c1.4-0.6,2.8-1.1,4.2-1.6c0.3-0.1,0.6-0.2,0.9-0.4c0.2-0.1,0.3-0.2,0.5-0.3c0.1-0.1,0.1-0.3,0.1-0.4
	c-0.1-0.1-0.2-0.2-0.4-0.2c-0.2,0-0.5,0.1-0.7,0.1c-1.8,0.5-3.7,1.1-5.5,1.6c-0.4,0.1-0.9,0.1-1.3,0.2c0,0,0-0.1,0-0.1
	c0.2-0.2,0.3-0.4,0.4-0.5c0.5-0.6,1-1.3,1.4-1.9c0.2-0.2,0.3-0.5,0.1-0.8s-0.5-0.1-0.8,0c-0.3,0.1-0.5,0.2-0.8,0.4
	c-1.6,1.2-3.3,2.3-4.9,3.5c-0.5,0.5-1.2,0.6-1.9,0.4c-2.1-0.7-4.2-1.6-6.2-2.6c-3.4-1.8-6-4.9-7.2-8.6c-0.4-1-0.6-2.1-0.9-3.2
	c0-0.1,0-0.2,0-0.3h0.4h9c1,0,1.3-0.3,1.5-1.2c0.3-1.8,1.1-3.5,2.3-4.9c2-2.3,5-3.5,8-3.3c4.3,0.2,7.9,3,9.1,7.2
	c0.2,0.7,0.4,1.4,0.5,2c0,0.1,0.1,0.2,0.1,0.3h8.8c0.1,0,0.3,0,0.4,0c0.5,0,0.8,0.3,0.8,0.8c-0.1,0.9-0.1,1.8-0.2,2.7
	c-0.3,2.3-0.6,4.6-1,6.9c-0.7,3.7-1.9,7.4-3.7,10.7C64,37.8,61.8,40,59,41.4c-1.3,0.7-2.6,1.2-4,1.6c-0.9,0.3-1.9,0.1-2.7-0.5
	c-1.6-1.1-3.2-2.2-4.8-3.3c-0.3-0.2-0.6-0.3-1-0.4C46,38.7,45.8,39,46,39.5c0.2,0.6,0.6,1.2,1,1.6c0.3,0.3,0.6,0.7,0.9,1
	c0,0,0,0.1,0,0.1c-0.4,0-0.8,0-1.2-0.1c-1.8-0.4-3.5-0.9-5.3-1.4c-0.3-0.1-0.7-0.1-1-0.1c-0.2,0-0.3,0.1-0.4,0.2
	c0,0.1,0.1,0.3,0.2,0.4c0.2,0.2,0.5,0.3,0.8,0.4l3.8,1.4c0.3,0.1,0.6,0.3,0.9,0.4s0.3,0.3,0.2,0.6c-0.6,0-1.3-0.1-1.9-0.1
	c-1.2-0.1-2.3-0.2-3.5-0.3c-0.3,0-0.7,0-1,0.1c-0.1,0-0.3,0.2-0.3,0.3s0.1,0.3,0.2,0.3c0.5,0.2,0.9,0.3,1.4,0.4
	c1.2,0.2,2.4,0.5,3.6,0.7c0.4,0.1,0.6,0.3,0.7,0.7h-2.4c-0.7,0-1.4,0-2.2,0c-0.2,0-0.4,0-0.4,0.3c0,0.2,0.1,0.4,0.3,0.5
	c0.4,0.2,0.8,0.3,1.1,0.3c1.7,0.2,3.4,0.3,5.2,0.4h0.1c0.1,0.3,0.1,0.4-0.2,0.5c-0.8,0.3-1.6,0.4-2.5,0.5c-0.4,0-0.8,0.1-1.2,0.1
	c-0.1,0-0.2,0-0.3,0.1c-0.1,0.1-0.3,0.2-0.3,0.4c0,0.1,0.1,0.3,0.2,0.3c0.3,0.1,0.7,0.2,1,0.2c2.2,0,4.4-0.1,6.6-0.4
	c3.7-0.5,7.4-1.5,10.8-3c1.3-0.5,2.6-1.2,3.9-1.8l1.6-0.7c1.3,4.3,2.6,8.6,3.9,12.9H29.5C31,48.2,32.4,39.5,33.9,30.8 M56.4,14
	c0.1-0.6,0-1.2-0.2-1.7c-1.2-3.2-4.7-4.9-7.9-3.7c-0.1,0-0.2,0.1-0.3,0.1c-2.1,0.7-3.6,2.6-3.7,4.9c0,0.4,0,0.4,0.4,0.4H56.4z"/>
<polygon class="st1" points="16.7,43.1 16.7,40.1 20.6,40.1 24.6,40.1 24.6,36.6 16.7,36.6 16.7,33.6 35.1,33.6 35.1,36.6 
	27.2,36.6 27.2,40.1 35.1,40.1 35.1,43.1 "/>
<path class="st1" d="M25.9,28.8c-1.7,0-3.4,0-5.1,0c-0.6,0-1.1-0.1-1.6-0.3c-1.6-0.5-2.6-1.9-2.6-3.5c-0.1-0.8,0-1.6,0.1-2.4
	c0.4-1.6,1.8-2.9,3.5-2.9c0.5,0,1-0.1,1.5-0.1c3,0,6.1,0,9.1,0c0.6,0,1.2,0.1,1.8,0.2c1.6,0.4,2.7,1.8,2.8,3.4
	c0.1,0.8,0.1,1.7-0.1,2.5c-0.4,1.6-1.7,2.8-3.4,3c-0.4,0-0.8,0.1-1.2,0.1L25.9,28.8z M25.9,25.8L25.9,25.8c1.7,0,3.4,0,5.1,0
	c1.1,0,1.6-0.5,1.7-1.4c0.1-0.8-0.4-1.5-1.2-1.7c0,0,0,0-0.1,0c-0.2,0-0.5,0-0.7,0h-9.7c-0.2,0-0.5,0-0.7,0
	c-0.7,0.1-1.3,0.7-1.3,1.4c0,0,0,0,0,0c-0.1,0.7,0.4,1.4,1.1,1.6c0,0,0,0,0.1,0c0.3,0,0.5,0.1,0.8,0.1L25.9,25.8z"/>
<path class="st1" d="M35.1,14.9H16.7c0,0,0-0.1,0-0.1c0-1.8,0-3.7,0.1-5.5C16.9,7.5,18.4,6,20.2,6c1.5-0.1,3-0.1,4.5,0
	c1.8,0.1,3.3,1.5,3.4,3.3c0.1,0.7,0.1,1.4,0.1,2.1v0.4h6.9V14.9z M19.4,11.9h6.2v-1.7c0-0.6-0.4-1.2-1.1-1.2c-1.4,0-2.7,0-4.1,0
	c-0.6,0-1,0.4-1,1l0,0C19.4,10.6,19.4,11.2,19.4,11.9L19.4,11.9z"/>
<path class="st1" d="M21.8,47.6v2.9c-0.4,0-0.8,0-1.2,0c-0.8,0-1.5,0.7-1.5,1.5c0,0.3,0.1,0.6,0.2,0.8c0.3,0.4,0.8,0.7,1.3,0.7
	c1.1,0.1,2.2-0.3,2.9-1.1c0.6-0.6,1.2-1.2,1.8-1.9c0.8-1,1.8-1.8,2.9-2.4c1.5-0.7,3.3-0.8,4.8-0.1c1.3,0.5,2.2,1.8,2.3,3.2
	c0.1,0.8,0.1,1.6-0.1,2.5c-0.3,1.5-1.6,2.7-3.1,2.9c-0.9,0.1-1.7,0.2-2.6,0.2v-2.9h0.9c0.3,0,0.6,0,0.9,0c0.6,0,1.1-0.3,1.3-0.8
	c0.3-0.6,0.2-1.2-0.1-1.8c-0.3-0.4-0.7-0.6-1.1-0.6c-1.2-0.1-2.3,0.3-3.1,1.2c-0.7,0.7-1.4,1.4-2,2.2c-0.7,0.9-1.7,1.6-2.7,2.1
	c-1.5,0.7-3.3,0.7-4.8,0c-1.3-0.5-2.2-1.8-2.2-3.2c-0.1-0.7,0-1.4,0.1-2.2c0.3-1.7,1.7-2.9,3.3-3C20.6,47.6,21.1,47.6,21.8,47.6"/>
<path class="st0" d="M37.1,18c0.2-0.2,0.4-0.4,0.5-0.6c0.2-0.2,0.3-0.3,0.4-0.5c0.2-0.2,0.4-0.3,0.7-0.2c0,0,0.1,0.1,0.1,0.2
	c0,0.1,0,0.1,0,0.2v2.2c0,0.2-0.2,0.5-0.4,0.5c0,0,0,0,0,0c-0.2,0-0.4-0.2-0.4-0.4c0,0,0,0,0,0c0-0.3,0-0.6,0-0.9l0,0l-0.1,0.1
	l-0.8,1c-0.1,0.2-0.3,0.2-0.5,0.2c-0.2-0.1-0.3-0.3-0.3-0.5v-1.4c0-0.3,0-0.6,0-0.9c0-0.1,0-0.2,0.1-0.2c0.2,0,0.3,0,0.5,0
	c0.2,0,0.3,0.2,0.3,0.3c0,0.3,0,0.5,0,0.8L37.1,18"/>
<path class="st0" d="M66.2,17.9c0.3-0.4,0.6-0.7,0.9-1c0.2-0.2,0.4-0.3,0.7-0.2c0.1,0,0.1,0.1,0.1,0.1c0,0,0,0.1,0,0.1v2.3
	c0,0.2-0.1,0.3-0.2,0.4c-0.1,0.1-0.3,0.1-0.5,0c-0.1-0.1-0.2-0.2-0.2-0.4v-0.9L66.6,19c-0.2,0.2-0.3,0.4-0.5,0.5
	c-0.1,0.2-0.3,0.2-0.5,0.2c-0.2-0.1-0.3-0.3-0.3-0.5v-1.8c0-0.2,0-0.4,0-0.6c0-0.2,0-0.2,0.2-0.2h0.4c0.2,0,0.4,0.2,0.4,0.4
	c0,0,0,0,0,0c0,0.2,0,0.5,0,0.8L66.2,17.9L66.2,17.9"/>
<path class="st0" d="M35,18c0.3,0.2,0.4,0.7,0.2,1c-0.1,0.4-0.5,0.6-0.9,0.6c-0.3,0-0.6,0-1,0c-0.2,0-0.4-0.2-0.4-0.5c0,0,0,0,0,0
	c0-0.6,0-1.3,0-1.9c0-0.1,0-0.3,0-0.4s0-0.2,0.1-0.2c0.5,0,0.9,0,1.4,0c0.5,0.1,0.8,0.5,0.7,1c0,0.1,0,0.1-0.1,0.2
	C35.1,17.9,35,18,35,18 M33.8,18.8h0.4c0.1,0,0.2-0.1,0.2-0.2c0,0,0,0,0,0c0-0.1-0.1-0.2-0.2-0.2c0,0,0,0,0,0c-0.1,0-0.2,0-0.4,0
	V18.8z M33.8,17.7h0.3c0.1,0,0.2-0.1,0.2-0.2c0-0.1-0.1-0.2-0.2-0.2c0,0,0,0,0,0h-0.3L33.8,17.7z"/>
<path class="st0" d="M57,18.7h-0.5v0.5c0,0.2-0.2,0.5-0.4,0.5c-0.1,0-0.2,0-0.2-0.1c-0.1-0.1-0.2-0.3-0.2-0.4v-1.8
	c0-0.1,0-0.3,0-0.4c0-0.2,0-0.3,0.2-0.3c0.1,0,0.2,0,0.3,0c0.2,0,0.4,0.2,0.4,0.4c0,0,0,0,0,0v0.6h0.5V17c0,0,0-0.1,0-0.1
	c0-0.2,0-0.2,0.2-0.2c0.1,0,0.3,0,0.4,0c0.2,0,0.3,0.2,0.3,0.4c0,0.7,0,1.4,0,2.1c0,0.2-0.2,0.4-0.4,0.4c-0.2,0-0.5-0.2-0.5-0.4
	c0,0,0,0,0,0L57,18.7"/>
<path class="st0" d="M50.2,17.4v0.3c0.2,0,0.4,0,0.5,0c0.4,0,0.7,0.3,0.9,0.7c0.1,0.5-0.2,1.1-0.7,1.2c-0.1,0-0.2,0-0.3,0h-0.8
	c-0.3,0-0.5-0.1-0.5-0.4c0,0,0-0.1,0-0.1c0-0.5,0-1,0-1.5c0-0.3,0-0.5,0-0.8s0-0.2,0.2-0.2h1.6c0.2,0,0.4,0.2,0.4,0.4c0,0,0,0,0,0
	c0,0.2-0.2,0.4-0.4,0.4L50.2,17.4 M50.3,18.8c0.2,0,0.3,0,0.4,0c0.1,0,0.2-0.1,0.1-0.2c0,0,0,0,0,0c0-0.1-0.1-0.1-0.2-0.1
	c-0.1,0-0.2,0-0.4,0L50.3,18.8z"/>
<path class="st0" d="M63,17.3c0.1-0.1,0.1-0.2,0.2-0.3c0.2-0.3,0.6-0.4,1-0.3c0.2,0.1,0.3,0.3,0.3,0.4c0,0.2-0.2,0.4-0.4,0.4
	c-0.1,0-0.1,0-0.2,0c-0.1,0.1-0.1,0.2-0.2,0.3c0,0,0,0.1,0,0.1l0.6,1c0.1,0.1,0.1,0.3,0.1,0.4c-0.1,0.2-0.2,0.3-0.4,0.3
	c-0.2,0.1-0.3,0-0.4-0.1c-0.2-0.3-0.3-0.5-0.5-0.8L63,18.5c0,0,0,0.1,0,0.1c0,0.2,0,0.4,0,0.6c0,0.2-0.2,0.5-0.4,0.5c0,0,0,0,0,0
	c-0.2,0-0.5-0.2-0.5-0.4c0,0,0,0,0,0c0-0.6,0-1.2,0-1.8c0-0.2,0-0.3,0-0.5c0-0.2,0-0.3,0.2-0.3c0.1,0,0.2,0,0.4,0
	c0.2,0,0.4,0.2,0.3,0.4C63,17.1,63,17.1,63,17.3L63,17.3z"/>
<path class="st0" d="M53.5,17.5v0.2h0.3c0.2,0,0.4,0.2,0.4,0.4c0,0,0,0,0,0c0,0.2-0.2,0.4-0.4,0.4c0,0,0,0,0,0c-0.1,0-0.2,0-0.3,0
	v0.2h0.7c0.2,0,0.4,0.2,0.4,0.4c0,0,0,0,0,0c0,0.2-0.2,0.4-0.4,0.4c0,0,0,0,0,0H53c-0.2,0-0.4-0.2-0.4-0.5c0,0,0,0,0,0v-1.6
	c0-0.2,0-0.4,0-0.6c0-0.2,0-0.2,0.2-0.2h1.5c0.2,0,0.4,0.2,0.4,0.4c0,0.2-0.1,0.4-0.4,0.4c0,0,0,0,0,0H53.5"/>
<path class="st0" d="M47.4,17.7h0.3c0.2,0,0.4,0.2,0.4,0.4c0,0.2-0.2,0.4-0.4,0.4c0,0,0,0,0,0h-0.3v0.2H48c0.2,0,0.5,0.2,0.5,0.4v0
	c0,0.2-0.2,0.4-0.4,0.5c0,0,0,0,0,0h-1.1c-0.2,0-0.5-0.2-0.5-0.4c0,0,0-0.1,0-0.1v-1.5c0-0.3,0-0.5,0-0.8s0-0.2,0.2-0.2h1.5
	c0.2,0,0.4,0.2,0.4,0.4c0,0.2-0.1,0.4-0.4,0.4c0,0,0,0,0,0h-0.7L47.4,17.7z"/>
<path class="st0" d="M44.1,18.8v0.3c0,0.2-0.1,0.5-0.4,0.5c-0.2,0-0.5-0.1-0.5-0.4c0,0,0-0.1,0-0.1v-1.8c0-0.2,0-0.4,0-0.5
	c0-0.2,0-0.2,0.2-0.2c0.4,0,0.9,0,1.3,0c0.5,0.1,0.9,0.6,0.9,1.1c-0.1,0.5-0.5,0.9-1,1L44.1,18.8 M44.1,17.3V18h0.2
	c0.2,0,0.3-0.1,0.3-0.3c0,0,0,0,0,0c0-0.2-0.1-0.3-0.3-0.3L44.1,17.3z"/>
<path class="st0" d="M59.8,17.4h0.5c0.5,0.1,0.9,0.5,0.9,1c0,0.5-0.3,1-0.8,1.2c-0.1,0-0.2,0.1-0.4,0.1c-0.3,0-0.6,0-0.9,0
	s-0.2-0.1-0.3-0.2s0-0.3,0-0.4c0-0.5,0-1.1,0-1.6c0-0.1,0-0.2,0-0.4s0-0.3,0.2-0.3c0.1,0,0.2,0,0.3,0c0.2,0,0.4,0.2,0.4,0.4
	c0,0,0,0,0,0L59.8,17.4 M59.8,18.7c0.2,0,0.4,0,0.5-0.1c0.1-0.1,0.1-0.3,0-0.4c-0.1-0.2-0.3-0.1-0.5-0.1V18.7z"/>
<path class="st0" d="M40.5,17.5h-0.4c-0.2,0-0.4-0.2-0.4-0.4c0,0,0,0,0,0c0-0.2,0.2-0.4,0.4-0.5h1.8c0.2,0,0.5,0.2,0.5,0.4
	c0,0,0,0,0,0c0,0.2-0.2,0.4-0.4,0.4c0,0,0,0,0,0h-0.4c0,0.1,0,0.1,0,0.1c0,0.5,0,1,0,1.5c0,0.2-0.2,0.4-0.4,0.4
	c-0.2,0-0.4-0.2-0.4-0.4c0,0,0,0,0,0c0-0.5,0-1,0-1.5L40.5,17.5"/>
<path class="st0" d="M33.9,30.8c1.3,0.5,2.5,1,3.8,1.4c2.9,1.2,5.9,2,9,2.5c2.6,0.4,5.3,0.5,8,0.4c0.4,0,0.8-0.1,1.2-0.3
	c0.2-0.1,0.3-0.2,0.3-0.4c0-0.2-0.2-0.3-0.4-0.3l-3.9-0.4h-0.4v-0.5l2.5-0.3l3.8-0.5c0.1,0,0.2,0,0.3-0.1c0.1-0.1,0.2-0.2,0.2-0.4
	c0-0.1-0.2-0.2-0.3-0.3c-0.1,0-0.2,0-0.3,0l-4.2,0h-0.3c-0.1-0.5-0.1-0.6,0.3-0.7c1.4-0.4,2.9-0.7,4.3-1c0.3-0.1,0.7-0.1,1-0.2
	s0.5-0.2,0.5-0.5c0-0.3-0.2-0.5-0.5-0.5c0,0,0,0,0,0c-0.3,0-0.7,0-1,0l-4.6,0.5c-0.2,0-0.4,0-0.6,0s-0.3,0-0.3-0.2
	c0-0.1,0.1-0.2,0.2-0.3c1.4-0.6,2.8-1.1,4.2-1.6c0.3-0.1,0.6-0.2,0.9-0.4c0.2-0.1,0.3-0.2,0.5-0.3c0.1-0.1,0.1-0.3,0.1-0.4
	c-0.1-0.1-0.2-0.2-0.4-0.2c-0.2,0-0.5,0.1-0.7,0.1c-1.8,0.5-3.7,1.1-5.5,1.6c-0.4,0.1-0.9,0.1-1.3,0.2c0,0,0-0.1,0-0.1
	c0.2-0.2,0.3-0.4,0.4-0.5c0.5-0.6,1-1.3,1.4-1.9c0.2-0.2,0.3-0.5,0.1-0.8s-0.5-0.1-0.8,0c-0.3,0.1-0.5,0.2-0.8,0.4
	c-1.6,1.2-3.3,2.3-4.9,3.5c-0.5,0.5-1.2,0.6-1.9,0.4c-2.1-0.7-4.2-1.6-6.2-2.6c-3.4-1.8-6-4.9-7.2-8.6c-0.4-1-0.6-2.1-0.9-3.2
	c0-0.1,0-0.2,0-0.3h0.4h9c1,0,1.3-0.3,1.5-1.2c0.3-1.8,1.1-3.5,2.3-4.9c2-2.3,5-3.5,8-3.3c4.3,0.2,7.9,3,9.1,7.2
	c0.2,0.7,0.4,1.4,0.5,2c0,0.1,0.1,0.2,0.1,0.3h8.8c0.1,0,0.3,0,0.4,0c0.5,0,0.8,0.3,0.8,0.8c-0.1,0.9-0.1,1.8-0.2,2.7
	c-0.3,2.3-0.6,4.6-1,6.9c-0.7,3.7-1.9,7.4-3.7,10.7C64,37.8,61.8,40,59,41.4c-1.3,0.7-2.6,1.2-4,1.6c-0.9,0.3-1.9,0.1-2.7-0.5
	c-1.6-1.1-3.2-2.2-4.8-3.3c-0.3-0.2-0.6-0.3-1-0.4C46,38.7,45.8,39,46,39.5c0.2,0.6,0.6,1.2,1,1.6c0.3,0.3,0.6,0.7,0.9,1
	c0,0,0,0.1,0,0.1c-0.4,0-0.8,0-1.2-0.1c-1.8-0.4-3.5-0.9-5.3-1.4c-0.3-0.1-0.7-0.1-1-0.1c-0.2,0-0.3,0.1-0.4,0.2
	c0,0.1,0.1,0.3,0.2,0.4c0.2,0.2,0.5,0.3,0.8,0.4l3.8,1.4c0.3,0.1,0.6,0.3,0.9,0.4s0.4,0.3,0.2,0.6c-0.6,0-1.3-0.1-1.9-0.1
	c-1.2-0.1-2.3-0.2-3.5-0.3c-0.3,0-0.7,0-1,0.1c-0.1,0-0.3,0.2-0.3,0.3s0.1,0.3,0.2,0.3c0.5,0.2,0.9,0.3,1.4,0.4
	c1.2,0.2,2.4,0.5,3.7,0.7c0.4,0.1,0.6,0.3,0.7,0.7h-2.4c-0.7,0-1.4,0-2.2,0c-0.2,0-0.4,0-0.4,0.3c0,0.2,0.1,0.4,0.3,0.5
	c0.4,0.2,0.8,0.3,1.1,0.3c1.7,0.2,3.4,0.3,5.2,0.4h0.1c0.1,0.3,0.1,0.4-0.2,0.5c-0.8,0.3-1.6,0.4-2.5,0.5c-0.4,0-0.8,0.1-1.2,0.1
	c-0.1,0-0.2,0-0.3,0.1c-0.1,0.1-0.3,0.2-0.3,0.4c0,0.1,0.1,0.3,0.3,0.3c0.3,0.1,0.7,0.2,1,0.2c2.2,0,4.4-0.1,6.6-0.4
	c3.7-0.5,7.4-1.5,10.8-3c1.3-0.5,2.6-1.2,3.9-1.8l1.6-0.7c1.3,4.3,2.6,8.6,3.9,12.9H29.5C31,48.2,32.4,39.5,33.9,30.8 M56.4,14
	c0.1-0.6,0-1.2-0.2-1.7c-1.2-3.2-4.7-4.9-7.9-3.7c-0.1,0-0.2,0.1-0.3,0.1c-2.1,0.7-3.6,2.6-3.7,4.9c0,0.4,0,0.4,0.4,0.4H56.4z"/>
<polygon class="st2" points="16.7,43.1 16.7,40.1 20.6,40.1 24.6,40.1 24.6,36.6 16.7,36.6 16.7,33.6 35.1,33.6 35.1,36.6 
	27.2,36.6 27.2,40.1 35.1,40.1 35.1,43.1 "/>
<path class="st2" d="M25.9,28.8c-1.7,0-3.4,0-5.1,0c-0.6,0-1.1-0.1-1.6-0.3c-1.6-0.5-2.6-1.9-2.6-3.5c-0.1-0.8,0-1.6,0.1-2.4
	c0.4-1.6,1.8-2.9,3.5-2.9c0.5,0,1-0.1,1.5-0.1c3,0,6.1,0,9.1,0c0.6,0,1.2,0.1,1.8,0.2c1.6,0.4,2.7,1.8,2.8,3.4
	c0.1,0.8,0.1,1.7-0.1,2.5c-0.4,1.6-1.7,2.8-3.4,3c-0.4,0-0.8,0.1-1.2,0.1L25.9,28.8z M25.9,25.8L25.9,25.8c1.7,0,3.4,0,5.1,0
	c1.1,0,1.6-0.5,1.7-1.4c0.1-0.8-0.4-1.5-1.2-1.7c0,0,0,0-0.1,0c-0.2,0-0.5,0-0.7,0h-9.7c-0.3,0-0.5,0-0.8,0
	c-0.7,0.1-1.3,0.7-1.3,1.4c0,0,0,0,0,0c-0.1,0.7,0.4,1.4,1.1,1.6c0,0,0,0,0.1,0c0.3,0,0.5,0.1,0.8,0.1L25.9,25.8z"/>
<path class="st2" d="M35.1,14.9H16.7c0,0,0-0.1,0-0.1c0-1.8,0-3.7,0.1-5.5C16.9,7.5,18.4,6,20.2,6c1.5-0.1,3-0.1,4.5,0
	c1.8,0.1,3.3,1.5,3.4,3.3c0.1,0.7,0.1,1.4,0.1,2.1v0.4h6.9V14.9z M19.4,11.9h6.2v-1.7c0-0.6-0.4-1.2-1.1-1.2c-1.4,0-2.7,0-4.1,0
	c-0.6,0-1,0.4-1,1l0,0C19.4,10.6,19.4,11.2,19.4,11.9L19.4,11.9z"/>
<path class="st2" d="M21.8,47.6v2.9c-0.4,0-0.8,0-1.2,0c-0.8,0-1.5,0.7-1.5,1.5c0,0.3,0.1,0.6,0.2,0.8c0.3,0.4,0.8,0.7,1.3,0.7
	c1.1,0.1,2.2-0.3,2.9-1.1c0.6-0.6,1.2-1.2,1.8-1.9c0.8-1,1.8-1.8,2.9-2.4c1.5-0.7,3.3-0.8,4.8-0.1c1.3,0.5,2.2,1.8,2.3,3.2
	c0.1,0.8,0.1,1.6-0.1,2.5c-0.3,1.5-1.6,2.7-3.1,2.9c-0.9,0.1-1.7,0.2-2.6,0.2v-2.9h0.9c0.3,0,0.6,0,0.9,0c0.6,0,1.1-0.3,1.3-0.8
	c0.3-0.6,0.2-1.2-0.1-1.8c-0.3-0.4-0.7-0.6-1.1-0.6c-1.2-0.1-2.3,0.3-3.1,1.2c-0.7,0.7-1.4,1.4-2,2.2c-0.7,0.9-1.7,1.6-2.7,2.1
	c-1.5,0.7-3.3,0.7-4.8,0c-1.3-0.5-2.2-1.8-2.2-3.2c-0.1-0.7,0-1.4,0.1-2.2c0.3-1.7,1.7-2.9,3.3-3C20.6,47.6,21.2,47.6,21.8,47.6"/>
<path class="st0" d="M37.1,18c0.2-0.2,0.4-0.4,0.5-0.6c0.2-0.2,0.3-0.3,0.4-0.5c0.2-0.2,0.4-0.3,0.7-0.2c0.1,0,0.1,0.1,0.1,0.2
	c0,0.1,0,0.1,0,0.2v2.2c0,0.2-0.2,0.5-0.4,0.5c0,0,0,0,0,0c-0.2,0-0.4-0.2-0.4-0.4c0,0,0,0,0,0c0-0.3,0-0.6,0-0.9l0,0l-0.1,0.1
	l-0.8,1c-0.1,0.2-0.3,0.2-0.5,0.2c-0.2-0.1-0.3-0.3-0.3-0.5c0-0.5,0-0.9,0-1.4c0-0.3,0-0.6,0-0.9c0-0.1,0-0.2,0.1-0.2
	c0.2,0,0.3,0,0.5,0c0.2,0,0.3,0.2,0.3,0.3c0,0.3,0,0.5,0,0.8C37.1,17.9,37.1,17.9,37.1,18"/>
<path class="st0" d="M66.2,17.9c0.3-0.4,0.6-0.7,0.9-1c0.2-0.2,0.4-0.3,0.7-0.2c0.1,0,0.1,0.1,0.1,0.1c0,0,0,0.1,0,0.1v2.3
	c0,0.2-0.1,0.3-0.2,0.4c-0.1,0.1-0.3,0.1-0.5,0c-0.1-0.1-0.2-0.2-0.2-0.4v-0.9L66.6,19c-0.2,0.2-0.3,0.4-0.5,0.5
	c-0.1,0.2-0.3,0.2-0.5,0.2c-0.2-0.1-0.3-0.3-0.3-0.5c0-0.6,0-1.1,0-1.7c0-0.2,0-0.4,0-0.6c0-0.2,0-0.2,0.2-0.2h0.4
	c0.2,0,0.4,0.2,0.4,0.4c0,0,0,0,0,0C66.2,17.4,66.2,17.6,66.2,17.9L66.2,17.9L66.2,17.9"/>
<path class="st0" d="M35,18c0.3,0.2,0.4,0.7,0.2,1c-0.1,0.4-0.5,0.6-0.9,0.6c-0.3,0-0.6,0-1,0c-0.2,0-0.4-0.2-0.4-0.5c0,0,0,0,0,0
	c0-0.6,0-1.3,0-1.9c0-0.1,0-0.3,0-0.4s0-0.2,0.1-0.2c0.5,0,0.9,0,1.4,0c0.5,0.1,0.8,0.5,0.7,1c0,0.1,0,0.1-0.1,0.2
	C35.1,17.9,35,18,35,18 M33.8,18.8h0.4c0.1,0,0.2-0.1,0.2-0.2c0,0,0,0,0,0c0-0.1-0.1-0.2-0.2-0.2c0,0,0,0,0,0c-0.1,0-0.2,0-0.4,0
	V18.8z M33.8,17.7h0.3c0.1,0,0.2-0.1,0.2-0.2c0-0.1-0.1-0.2-0.2-0.2c0,0,0,0,0,0h-0.3L33.8,17.7z"/>
<path class="st0" d="M57,18.7h-0.5c0,0.2,0,0.4,0,0.5c0,0.2-0.2,0.5-0.4,0.5c-0.1,0-0.2,0-0.2-0.1c-0.1-0.1-0.2-0.3-0.2-0.4v-1.8
	c0-0.1,0-0.3,0-0.4c0-0.2,0-0.3,0.2-0.3c0.1,0,0.2,0,0.3,0c0.2,0,0.4,0.2,0.4,0.4c0,0,0,0,0,0v0.6h0.5V17c0,0,0-0.1,0-0.1
	c0-0.2,0-0.2,0.2-0.2c0.1,0,0.3,0,0.4,0c0.2,0,0.3,0.2,0.3,0.4c0,0.7,0,1.4,0,2.1c0,0.2-0.2,0.4-0.4,0.4c-0.2,0-0.5-0.2-0.5-0.4
	c0,0,0,0,0,0c0-0.1,0-0.3,0-0.4c0,0,0-0.1,0-0.1"/>
<path class="st0" d="M50.2,17.4v0.3c0.2,0,0.4,0,0.5,0c0.5,0,0.9,0.4,0.9,1c0,0.5-0.3,0.8-0.8,0.9c-0.1,0-0.2,0-0.3,0h-0.8
	c-0.3,0-0.5-0.1-0.5-0.4c0,0,0-0.1,0-0.1c0-0.5,0-1,0-1.5c0-0.3,0-0.5,0-0.8s0-0.2,0.2-0.2h1.6c0.2,0,0.4,0.2,0.4,0.4c0,0,0,0,0,0
	c0,0.2-0.2,0.4-0.4,0.4L50.2,17.4 M50.3,18.8c0.2,0,0.3,0,0.4,0c0.1,0,0.2-0.1,0.1-0.2c0,0,0,0,0,0c0-0.1-0.1-0.1-0.2-0.1
	c-0.1,0-0.2,0-0.4,0L50.3,18.8z"/>
<path class="st0" d="M63,17.3c0.1-0.1,0.1-0.2,0.2-0.3c0.2-0.3,0.6-0.4,1-0.3c0.2,0.1,0.3,0.3,0.3,0.4c0,0.2-0.2,0.4-0.4,0.4
	c-0.1,0-0.1,0-0.2,0c-0.1,0.1-0.1,0.2-0.2,0.3c0,0,0,0.1,0,0.1c0.2,0.3,0.4,0.7,0.6,1c0.1,0.1,0.1,0.3,0,0.4
	c-0.1,0.2-0.2,0.3-0.4,0.3c-0.1,0-0.3,0-0.4-0.1L63,18.7L63,18.5c0,0,0,0.1,0,0.1c0,0.2,0,0.4,0,0.6c0,0.2-0.2,0.5-0.4,0.5
	c0,0,0,0,0,0c-0.2,0-0.5-0.2-0.5-0.4c0,0,0,0,0,0v-1.8c0-0.2,0-0.3,0-0.5c0-0.2,0-0.3,0.2-0.3c0.1,0,0.2,0,0.4,0
	c0.2,0,0.4,0.2,0.3,0.4C63,17.1,63,17.2,63,17.3L63,17.3z"/>
<path class="st0" d="M53.5,17.5v0.2h0.3c0.2,0,0.4,0.2,0.4,0.4c0,0,0,0,0,0c0,0.2-0.2,0.4-0.4,0.4c0,0,0,0-0.1,0c-0.1,0-0.2,0-0.3,0
	v0.2h0.7c0.2,0,0.4,0.2,0.4,0.4c0,0,0,0,0,0c0,0.2-0.2,0.4-0.4,0.4c0,0,0,0,0,0H53c-0.2,0-0.4-0.2-0.4-0.5c0,0,0,0,0,0v-1.6
	c0-0.2,0-0.4,0-0.6c0-0.2,0-0.2,0.2-0.2h1.5c0.2,0,0.4,0.2,0.4,0.4c0,0.2-0.1,0.4-0.4,0.4c0,0,0,0,0,0H53.5"/>
<path class="st0" d="M47.4,17.7h0.3c0.2,0,0.4,0.2,0.4,0.4c0,0.2-0.2,0.4-0.4,0.4c0,0,0,0,0,0h-0.3v0.2H48c0.2,0,0.5,0.2,0.5,0.4
	c0,0.2-0.2,0.5-0.4,0.5c0,0,0,0,0,0h-1.1c-0.2,0-0.5-0.2-0.5-0.4c0,0,0-0.1,0-0.1v-1.5c0-0.3,0-0.5,0-0.8s0-0.2,0.2-0.2h1.5
	c0.2,0,0.4,0.2,0.4,0.4c0,0.2-0.1,0.4-0.4,0.4c0,0,0,0,0,0h-0.7L47.4,17.7z"/>
<path class="st0" d="M44.1,18.8v0.3c0,0.2-0.1,0.5-0.4,0.5c-0.2,0-0.5-0.1-0.5-0.4c0,0,0-0.1,0-0.1v-1.8c0-0.2,0-0.4,0-0.5
	c0-0.2,0-0.2,0.2-0.2c0.4,0,0.9,0,1.3,0c0.5,0.1,0.9,0.6,0.9,1.1c-0.1,0.5-0.5,0.9-1,1L44.1,18.8 M44.1,17.3V18h0.2
	c0.2,0,0.3-0.1,0.3-0.3c0,0,0,0,0,0c0-0.2-0.1-0.3-0.3-0.3L44.1,17.3z"/>
<path class="st0" d="M59.8,17.4h0.5c0.5,0.1,0.9,0.5,0.9,1c0,0.5-0.3,1-0.8,1.2c-0.1,0-0.2,0.1-0.4,0.1c-0.3,0-0.6,0-0.9,0
	s-0.2-0.1-0.3-0.2s0-0.3,0-0.4c0-0.5,0-1.1,0-1.6c0-0.1,0-0.2,0-0.4s0-0.3,0.2-0.3c0.1,0,0.2,0,0.3,0c0.2,0,0.4,0.2,0.4,0.4
	c0,0,0,0,0,0L59.8,17.4 M59.8,18.7c0.2,0,0.4,0,0.5-0.1c0.1-0.1,0.1-0.3,0-0.4c-0.1-0.2-0.3-0.1-0.5-0.1V18.7z"/>
<path class="st0" d="M40.5,17.5h-0.4c-0.2,0-0.4-0.2-0.4-0.4c0,0,0,0,0,0c0-0.2,0.2-0.4,0.4-0.5h1.8c0.2,0,0.5,0.2,0.5,0.4
	c0,0,0,0,0,0c0,0.2-0.2,0.4-0.4,0.4c0,0,0,0,0,0h-0.4c0,0.1,0,0.1,0,0.1c0,0.5,0,1,0,1.5c0,0.2-0.2,0.4-0.4,0.4
	c-0.2,0-0.4-0.2-0.4-0.4c0,0,0,0,0,0c0-0.5,0-1,0-1.5L40.5,17.5"/>
<path class="st0" d="M33.9,30.8c1.3,0.5,2.5,1,3.8,1.4c2.9,1.2,5.9,2,9,2.5c2.6,0.4,5.3,0.5,8,0.4c0.4,0,0.8-0.1,1.2-0.3
	c0.2-0.1,0.3-0.2,0.3-0.4c0-0.2-0.2-0.3-0.4-0.3l-3.9-0.4h-0.4v-0.5l2.5-0.3l3.8-0.5c0.1,0,0.2,0,0.3-0.1c0.1-0.1,0.2-0.2,0.2-0.4
	c0-0.1-0.2-0.2-0.3-0.3c-0.1,0-0.2,0-0.3,0l-4.2,0h-0.3c-0.1-0.5-0.1-0.6,0.3-0.7c1.4-0.4,2.9-0.7,4.3-1c0.3-0.1,0.7-0.1,1-0.2
	s0.5-0.1,0.5-0.5c0-0.3-0.2-0.5-0.5-0.5c0,0,0,0,0,0c-0.3,0-0.7,0-1,0l-4.6,0.5c-0.2,0-0.4,0-0.6,0s-0.3,0-0.3-0.2
	c0-0.1,0.1-0.2,0.2-0.3c1.4-0.6,2.8-1.1,4.2-1.6c0.3-0.1,0.6-0.2,0.9-0.4c0.2-0.1,0.3-0.2,0.5-0.3c0.1-0.1,0.1-0.3,0.1-0.4
	c-0.1-0.1-0.2-0.2-0.4-0.2c-0.2,0-0.5,0.1-0.7,0.1c-1.8,0.5-3.7,1.1-5.5,1.6c-0.4,0.1-0.9,0.1-1.3,0.2c0,0,0-0.1,0-0.1
	c0.2-0.2,0.3-0.4,0.4-0.5c0.5-0.6,1-1.2,1.4-1.9c0.2-0.2,0.3-0.5,0.1-0.8s-0.5-0.1-0.8,0c-0.3,0.1-0.5,0.2-0.8,0.4
	c-1.6,1.2-3.3,2.3-4.9,3.5c-0.5,0.5-1.2,0.6-1.9,0.4c-2.1-0.7-4.2-1.6-6.2-2.6c-3.4-1.8-6-4.9-7.2-8.6c-0.4-1-0.6-2.1-0.9-3.2
	c0-0.1,0-0.2,0-0.3h0.4h9c1,0,1.3-0.3,1.5-1.2c0.3-1.8,1.1-3.5,2.3-4.9c2-2.3,5-3.5,8-3.3c4.3,0.2,7.9,3.1,9.1,7.2
	c0.2,0.7,0.4,1.4,0.5,2c0,0.1,0.1,0.2,0.1,0.3h8.8c0.1,0,0.3,0,0.4,0c0.5,0,0.8,0.3,0.8,0.8c-0.1,0.9-0.1,1.8-0.2,2.7
	c-0.3,2.3-0.6,4.6-1,6.9c-0.7,3.7-1.9,7.4-3.7,10.7C64,37.8,61.8,40,59,41.4c-1.3,0.7-2.6,1.2-4,1.6c-0.9,0.3-1.9,0.1-2.7-0.5
	c-1.6-1.1-3.2-2.2-4.8-3.3c-0.3-0.2-0.6-0.3-1-0.4C46,38.7,45.8,39,46,39.5c0.2,0.6,0.6,1.2,1,1.6c0.3,0.3,0.6,0.7,0.9,1v0.1
	c-0.4,0-0.8,0-1.2-0.1c-1.8-0.4-3.5-0.9-5.3-1.4c-0.3-0.1-0.7-0.1-1-0.1c-0.2,0-0.3,0.1-0.4,0.2c0,0.1,0.1,0.3,0.2,0.3
	c0.2,0.2,0.5,0.3,0.8,0.5l3.8,1.4c0.3,0.1,0.6,0.3,0.9,0.4s0.4,0.3,0.2,0.6c-0.6,0-1.3-0.1-1.9-0.1c-1.2-0.1-2.3-0.2-3.5-0.3
	c-0.3,0-0.7,0-1,0.1c-0.1,0-0.3,0.2-0.3,0.3s0.1,0.3,0.2,0.3c0.5,0.2,0.9,0.3,1.4,0.4c1.2,0.2,2.4,0.5,3.7,0.7
	c0.4,0.1,0.6,0.3,0.7,0.7h-2.4c-0.7,0-1.4,0-2.2,0c-0.2,0-0.4,0-0.4,0.3c0,0.2,0.1,0.4,0.3,0.5c0.4,0.2,0.8,0.3,1.1,0.3
	c1.7,0.2,3.4,0.3,5.2,0.4h0.1c0.1,0.3,0.1,0.4-0.2,0.5c-0.8,0.3-1.6,0.4-2.5,0.5c-0.4,0-0.8,0.1-1.2,0.1c-0.1,0-0.2,0-0.3,0.1
	c-0.1,0.1-0.3,0.2-0.3,0.4c0,0.1,0.1,0.3,0.3,0.3c0.3,0.1,0.7,0.2,1,0.2c2.2,0,4.4-0.1,6.6-0.4c3.7-0.5,7.4-1.5,10.8-3
	c1.3-0.5,2.6-1.2,3.9-1.8l1.6-0.7c1.3,4.3,2.6,8.6,3.9,12.9H29.5C31,48.2,32.4,39.5,33.9,30.8 M56.4,14c0.1-0.6,0-1.2-0.2-1.7
	c-1.2-3.2-4.7-4.9-7.9-3.7c-0.1,0-0.2,0.1-0.3,0.1c-2.1,0.7-3.6,2.6-3.7,4.9c0,0.4,0,0.4,0.4,0.4H56.4z"/>
<polygon class="st2" points="16.7,43.1 16.7,40.1 20.6,40.1 24.6,40.1 24.6,36.6 16.7,36.6 16.7,33.6 35.1,33.6 35.1,36.6 
	27.2,36.6 27.2,40.1 35.1,40.1 35.1,43.1 "/>
<path class="st2" d="M25.9,28.8c-1.7,0-3.4,0-5.1,0c-0.6,0-1.1-0.1-1.6-0.3c-1.6-0.5-2.6-1.9-2.6-3.5c-0.1-0.8,0-1.6,0.1-2.4
	c0.4-1.6,1.8-2.9,3.5-2.9c0.5,0,1-0.1,1.5-0.1c3,0,6.1,0,9.1,0c0.6,0,1.2,0.1,1.8,0.2c1.6,0.4,2.7,1.8,2.8,3.4
	c0.1,0.8,0.1,1.7-0.1,2.5c-0.4,1.6-1.7,2.8-3.4,3c-0.4,0-0.8,0.1-1.2,0.1L25.9,28.8z M25.9,25.8L25.9,25.8c1.7,0,3.4,0,5.1,0
	c1.1,0,1.6-0.5,1.7-1.4c0.1-0.8-0.4-1.5-1.2-1.7c0,0,0,0-0.1,0c-0.2,0-0.5-0.1-0.7,0h-9.7c-0.3,0-0.5,0-0.8,0
	c-0.7,0.1-1.3,0.7-1.3,1.4c0,0,0,0,0,0c-0.1,0.7,0.4,1.4,1.1,1.6c0,0,0,0,0.1,0c0.3,0,0.5,0.1,0.8,0.1L25.9,25.8z"/>
<path class="st2" d="M35.1,14.9H16.7c0,0,0-0.1,0-0.1c0-1.8,0-3.7,0.1-5.5C16.9,7.5,18.4,6,20.2,6c1.5-0.1,3-0.1,4.5,0
	c1.8,0.1,3.3,1.5,3.4,3.3c0.1,0.7,0.1,1.4,0.1,2.1v0.4h6.9V14.9z M19.4,11.9h6.2v-1.7c0-0.6-0.4-1.2-1.1-1.2c-1.4,0-2.7,0-4.1,0
	c-0.6,0-1,0.4-1,1l0,0C19.4,10.6,19.4,11.2,19.4,11.9L19.4,11.9z"/>
<path class="st2" d="M21.8,47.6v2.9c-0.4,0-0.8,0-1.2,0c-0.8,0-1.5,0.7-1.5,1.5c0,0.3,0.1,0.6,0.2,0.8c0.3,0.4,0.8,0.7,1.3,0.7
	c1.1,0.1,2.2-0.3,2.9-1.1c0.6-0.6,1.2-1.2,1.8-1.9c0.8-1,1.8-1.8,2.9-2.4c1.5-0.7,3.3-0.8,4.8-0.1c1.3,0.5,2.2,1.8,2.3,3.2
	c0.1,0.8,0.1,1.6-0.1,2.5c-0.3,1.5-1.6,2.7-3.1,2.9c-0.9,0.1-1.7,0.2-2.6,0.2v-2.9h0.9c0.3,0,0.6,0,0.9,0c0.6,0,1.1-0.3,1.3-0.8
	c0.3-0.6,0.2-1.2-0.1-1.8c-0.3-0.4-0.7-0.6-1.1-0.6c-1.2-0.1-2.3,0.3-3.1,1.2c-0.7,0.7-1.4,1.4-2,2.2c-0.7,0.9-1.7,1.6-2.7,2.1
	c-1.5,0.7-3.3,0.7-4.8,0c-1.3-0.5-2.2-1.8-2.2-3.2c-0.1-0.7,0-1.4,0.1-2.2c0.3-1.7,1.7-2.9,3.3-3C20.6,47.6,21.2,47.6,21.8,47.6"/>
<path class="st0" d="M37.1,18c0.2-0.2,0.4-0.4,0.5-0.6c0.2-0.2,0.3-0.3,0.4-0.5c0.2-0.2,0.4-0.3,0.7-0.2c0.1,0,0.1,0.1,0.1,0.2
	c0,0.1,0,0.1,0,0.2v2.2c0,0.2-0.2,0.5-0.4,0.5c0,0,0,0,0,0c-0.2,0-0.4-0.2-0.4-0.4c0,0,0,0,0,0c0-0.3,0-0.6,0-0.9l0,0l-0.1,0.1
	l-0.8,1c-0.1,0.2-0.3,0.2-0.5,0.2c-0.2-0.1-0.3-0.3-0.3-0.5c0-0.5,0-0.9,0-1.4c0-0.3,0-0.6,0-0.9c0-0.1,0-0.2,0.1-0.2
	c0.2,0,0.3,0,0.5,0c0.2,0,0.3,0.2,0.3,0.3c0,0.3,0,0.5,0,0.8C37.1,17.9,37.1,17.9,37.1,18"/>
<path class="st0" d="M66.2,17.9c0.3-0.4,0.6-0.7,0.9-1c0.2-0.2,0.4-0.3,0.7-0.2c0.1,0,0.1,0.1,0.1,0.1c0,0,0,0.1,0,0.1v2.3
	c0,0.2-0.1,0.3-0.2,0.4c-0.1,0.1-0.3,0.1-0.5,0c-0.1-0.1-0.2-0.2-0.2-0.4v-0.9L66.6,19c-0.2,0.2-0.3,0.4-0.5,0.5
	c-0.1,0.2-0.3,0.2-0.5,0.2c-0.2-0.1-0.3-0.3-0.3-0.5c0-0.6,0-1.1,0-1.7c0-0.2,0-0.4,0-0.6c0-0.2,0-0.2,0.2-0.2h0.4
	c0.2,0,0.4,0.2,0.4,0.4c0,0,0,0,0,0C66.2,17.4,66.2,17.6,66.2,17.9L66.2,17.9L66.2,17.9"/>
<path class="st0" d="M35,18c0.3,0.2,0.4,0.7,0.2,1c-0.1,0.4-0.5,0.6-0.9,0.6c-0.3,0-0.6,0-1,0c-0.2,0-0.4-0.2-0.4-0.5c0,0,0,0,0,0
	c0-0.6,0-1.3,0-1.9c0-0.1,0-0.3,0-0.4s0-0.2,0.1-0.2c0.5,0,0.9,0,1.4,0c0.5,0.1,0.8,0.5,0.7,1c0,0.1,0,0.1-0.1,0.2
	C35.1,17.9,35,18,35,18 M33.8,18.8h0.4c0.1,0,0.2-0.1,0.2-0.2c0,0,0,0,0,0c0-0.1-0.1-0.2-0.2-0.2c0,0,0,0,0,0c-0.1,0-0.2,0-0.4,0
	V18.8z M33.8,17.7h0.3c0.1,0,0.2-0.1,0.2-0.2c0-0.1-0.1-0.2-0.2-0.2c0,0,0,0,0,0h-0.3L33.8,17.7z"/>
<path class="st0" d="M57,18.7h-0.5c0,0.2,0,0.4,0,0.5c0,0.2-0.2,0.5-0.4,0.5c-0.1,0-0.2,0-0.2-0.1c-0.1-0.1-0.2-0.3-0.2-0.4v-1.8
	c0-0.1,0-0.3,0-0.4c0-0.2,0-0.3,0.2-0.3c0.1,0,0.2,0,0.3,0c0.2,0,0.4,0.2,0.4,0.4c0,0,0,0,0,0v0.6h0.5V17c0,0,0-0.1,0-0.1
	c0-0.2,0-0.2,0.2-0.2c0.1,0,0.3,0,0.4,0c0.2,0,0.3,0.2,0.3,0.4c0,0.7,0,1.4,0,2.1c0,0.2-0.2,0.4-0.4,0.4c-0.2,0-0.5-0.2-0.5-0.4
	c0,0,0,0,0,0c0-0.1,0-0.3,0-0.4c0,0,0-0.1,0-0.1"/>
<path class="st0" d="M50.2,17.4v0.3c0.2,0,0.4,0,0.5,0c0.5,0,0.9,0.4,0.9,1c0,0.5-0.3,0.8-0.8,0.9c-0.1,0-0.2,0-0.3,0h-0.8
	c-0.3,0-0.5-0.1-0.5-0.4c0,0,0-0.1,0-0.1c0-0.5,0-1,0-1.5c0-0.3,0-0.5,0-0.8s0-0.2,0.2-0.2h1.6c0.2,0,0.4,0.2,0.4,0.4c0,0,0,0,0,0
	c0,0.2-0.2,0.4-0.4,0.4L50.2,17.4 M50.3,18.8c0.2,0,0.3,0,0.4,0c0.1,0,0.2-0.1,0.1-0.2c0,0,0,0,0,0c0-0.1-0.1-0.1-0.2-0.1
	c-0.1,0-0.2,0-0.4,0L50.3,18.8z"/>
<path class="st0" d="M63,17.3c0.1-0.1,0.1-0.2,0.2-0.3c0.2-0.3,0.6-0.5,1-0.3c0.2,0.1,0.3,0.3,0.3,0.4c0,0.2-0.2,0.4-0.4,0.4
	c-0.1,0-0.1,0-0.2,0c-0.1,0.1-0.1,0.2-0.2,0.3c0,0,0,0.1,0,0.1c0.2,0.3,0.4,0.7,0.6,1c0.1,0.1,0.1,0.3,0,0.4
	c-0.1,0.2-0.2,0.3-0.4,0.3c-0.1,0-0.3,0-0.4-0.1L63,18.7L63,18.5c0,0,0,0.1,0,0.1c0,0.2,0,0.4,0,0.6c0,0.2-0.2,0.5-0.4,0.5
	c0,0,0,0,0,0c-0.3,0-0.5-0.2-0.5-0.5c0,0,0,0,0,0v-1.8c0-0.2,0-0.3,0-0.5c0-0.2,0-0.3,0.2-0.3c0.1,0,0.2,0,0.4,0
	c0.2,0,0.4,0.2,0.3,0.4C63,17.1,63,17.2,63,17.3L63,17.3z"/>
<path class="st0" d="M53.5,17.5v0.2h0.3c0.2,0,0.4,0.2,0.4,0.4c0,0,0,0,0,0c0,0.2-0.2,0.4-0.4,0.4c0,0,0,0-0.1,0h-0.3v0.2h0.7
	c0.2,0,0.4,0.2,0.4,0.4c0,0,0,0,0,0c0,0.2-0.2,0.4-0.4,0.4c0,0,0,0,0,0H53c-0.2,0-0.4-0.2-0.4-0.5c0,0,0,0,0,0v-1.6
	c0-0.2,0-0.4,0-0.6s0-0.2,0.2-0.2h1.5c0.2,0,0.4,0.2,0.4,0.4c0,0.2-0.1,0.4-0.4,0.4c0,0,0,0,0,0H53.5"/>
<path class="st0" d="M47.4,17.7h0.3c0.2,0,0.4,0.2,0.4,0.4c0,0.2-0.2,0.4-0.4,0.4c0,0,0,0,0,0c-0.1,0-0.2,0-0.3,0v0.2H48
	c0.2,0,0.5,0.2,0.5,0.4c0,0.2-0.2,0.5-0.4,0.5c0,0,0,0,0,0h-1.1c-0.2,0-0.5-0.2-0.5-0.4c0,0,0-0.1,0-0.1v-1.5c0-0.3,0-0.5,0-0.8
	s0-0.2,0.2-0.2h1.5c0.2,0,0.4,0.2,0.4,0.4c0,0.2-0.1,0.4-0.4,0.4c0,0,0,0,0,0h-0.7L47.4,17.7z"/>
<path class="st0" d="M44.1,18.8v0.4c0,0.2-0.2,0.5-0.4,0.5c0,0,0,0,0,0c-0.2,0-0.4-0.2-0.5-0.4c0,0,0,0,0-0.1v-1.8
	c0-0.2,0-0.4,0-0.5s0-0.2,0.2-0.2c0.4,0,0.9,0,1.3,0c0.5,0.1,0.9,0.6,0.9,1.1c-0.1,0.5-0.5,0.9-1,1L44.1,18.8 M44.1,17.3V18h0.2
	c0.2,0,0.3-0.1,0.3-0.3c0,0,0,0,0,0c0-0.2-0.1-0.3-0.3-0.3L44.1,17.3z"/>
<path class="st0" d="M59.8,17.4h0.5c0.5,0.1,0.9,0.5,0.9,1c0,0.5-0.3,1-0.8,1.2c-0.1,0-0.2,0.1-0.4,0.1c-0.3,0-0.6,0-0.9,0
	s-0.2-0.1-0.3-0.2s0-0.3,0-0.4c0-0.5,0-1.1,0-1.6c0-0.1,0-0.2,0-0.4s0-0.3,0.2-0.3c0.1,0,0.2,0,0.3,0c0.2,0,0.4,0.2,0.4,0.4
	c0,0,0,0,0,0L59.8,17.4 M59.8,18.7c0.2,0,0.4,0,0.5-0.1c0.1-0.1,0.1-0.2,0-0.4c-0.1-0.2-0.3-0.1-0.5-0.1V18.7z"/>
<path class="st0" d="M40.5,17.5h-0.4c-0.2,0-0.4-0.2-0.4-0.4c0,0,0,0,0,0c0-0.2,0.2-0.4,0.4-0.5h1.8c0.2,0,0.5,0.2,0.5,0.4
	c0,0,0,0,0,0c0,0.2-0.2,0.4-0.5,0.4l0,0h-0.4c0,0,0,0.1,0,0.1c0,0.5,0,1,0,1.6c0,0.2-0.2,0.4-0.4,0.4c-0.2,0-0.4-0.2-0.4-0.4
	c0,0,0,0,0,0c0-0.5,0-1,0-1.5L40.5,17.5"/>
<path class="st3" d="M33.6,30.3c1.3,0.5,2.6,1,3.8,1.5c3,1.2,6,2,9.2,2.5c2.7,0.4,5.4,0.6,8.2,0.4c0.4,0,0.8-0.1,1.2-0.3
	c0.2-0.1,0.3-0.2,0.3-0.4c0-0.2-0.2-0.3-0.4-0.3l-4-0.4l-0.4-0.1v-0.5l2.6-0.3l3.9-0.5c0.1,0,0.2,0,0.3-0.1c0.1-0.1,0.2-0.2,0.2-0.3
	c0-0.1-0.2-0.2-0.3-0.3c-0.1,0-0.2,0-0.3,0h-4.3h-0.3c-0.2-0.5-0.1-0.6,0.3-0.7l4.4-1l1-0.2c0.3-0.1,0.5-0.2,0.5-0.5
	c0-0.3-0.2-0.5-0.5-0.5c0,0,0,0,0,0c-0.4,0-0.7,0-1.1,0c-1.6,0.2-3.1,0.4-4.7,0.5c-0.2,0-0.4,0-0.6,0s-0.3,0-0.3-0.2
	c0-0.1,0.1-0.2,0.2-0.3l4.3-1.7c0.3-0.1,0.6-0.2,1-0.4c0.2-0.1,0.3-0.2,0.5-0.3c0.1-0.1,0.2-0.3,0.1-0.5c-0.1-0.1-0.2-0.2-0.4-0.2
	c-0.2,0-0.5,0-0.7,0.1c-1.9,0.5-3.8,1.1-5.6,1.7c-0.4,0.1-0.9,0.1-1.3,0.2l0-0.1c0.2-0.2,0.3-0.4,0.5-0.5c0.5-0.6,1-1.3,1.4-1.9
	c0.2-0.2,0.3-0.5,0.1-0.8s-0.6-0.1-0.8,0c-0.3,0.1-0.6,0.2-0.8,0.4c-1.7,1.2-3.3,2.4-5,3.6c-0.5,0.5-1.3,0.6-1.9,0.4
	c-2.2-0.7-4.3-1.6-6.3-2.7c-3.5-1.9-6.1-5-7.4-8.8c-0.4-1-0.6-2.1-0.9-3.2c0-0.1,0-0.2,0-0.3h0.4h9.2c1,0,1.4-0.3,1.6-1.3
	c0.3-1.9,1.1-3.6,2.4-5c2-2.3,5-3.6,8.1-3.4c4.4,0.2,8.1,3.1,9.3,7.3c0.2,0.7,0.4,1.4,0.6,2.1l0.1,0.3H70c0.5,0,0.8,0.3,0.8,0.8
	c-0.1,0.9-0.1,1.8-0.3,2.7c-0.3,2.4-0.6,4.7-1,7c-0.7,3.8-1.9,7.5-3.7,10.9c-1.5,2.8-3.8,5-6.6,6.5c-1.3,0.7-2.7,1.2-4.1,1.7
	c-0.9,0.3-2,0.1-2.8-0.5c-1.6-1.1-3.2-2.2-4.8-3.3c-0.3-0.2-0.7-0.3-1.1-0.4c-0.5-0.1-0.7,0.1-0.5,0.6c0.2,0.6,0.6,1.2,1.1,1.7
	l0.9,1v0.1c-0.4,0-0.8,0-1.2-0.1c-1.8-0.5-3.6-1-5.4-1.4c-0.3-0.1-0.7-0.1-1-0.1c-0.2,0-0.3,0.1-0.4,0.2c0,0.1,0.1,0.3,0.2,0.4
	c0.2,0.2,0.5,0.3,0.8,0.5c1.3,0.5,2.6,0.9,3.9,1.4c0.3,0.1,0.6,0.3,0.9,0.4c0.3,0.1,0.4,0.3,0.2,0.6c-0.6,0-1.3-0.1-2-0.1
	c-1.2-0.1-2.4-0.2-3.6-0.3c-0.3,0-0.7,0-1,0.1c-0.1,0-0.3,0.2-0.3,0.3c0,0.1,0.1,0.3,0.3,0.3c0.5,0.2,0.9,0.3,1.4,0.4
	c1.2,0.2,2.5,0.5,3.7,0.7c0.4,0.1,0.6,0.3,0.7,0.7h-4.7c-0.2,0-0.4,0-0.4,0.3c0,0.2,0.1,0.4,0.3,0.5c0.4,0.2,0.8,0.3,1.2,0.3
	c1.8,0.2,3.5,0.3,5.2,0.5c0,0,0.1,0,0.1,0c0.1,0.3,0.1,0.4-0.2,0.5c-0.8,0.3-1.7,0.4-2.5,0.5c-0.4,0-0.8,0.1-1.2,0.1
	c-0.1,0-0.2,0-0.3,0.1c-0.1,0.1-0.3,0.2-0.3,0.4c0,0.2,0.1,0.4,0.3,0.4c0.3,0.1,0.7,0.2,1.1,0.2c2.3,0,4.5-0.1,6.7-0.4
	c3.8-0.5,7.5-1.6,11-3.1c1.3-0.6,2.6-1.2,3.9-1.8l1.6-0.7c1.3,4.4,2.6,8.8,4,13.1H29.1L33.6,30.3 M56.5,13.1c0.1-0.6,0-1.2-0.2-1.7
	c-1.2-3.3-4.8-5-8.1-3.8c-0.1,0-0.3,0.1-0.4,0.2c-2.2,0.8-3.7,2.7-3.8,5c0,0.4,0,0.4,0.4,0.4L56.5,13.1L56.5,13.1z"/>
<polygon class="st1" points="16.7,43.1 16.7,40.1 20.6,40.1 24.6,40.1 24.6,36.6 16.7,36.6 16.7,33.6 35.1,33.6 35.1,36.6 
	27.2,36.6 27.2,40.1 35.1,40.1 35.1,43.1 "/>
<path class="st1" d="M25.9,28.8c-1.7,0-3.4,0-5.1,0c-0.6,0-1.1-0.1-1.6-0.3c-1.6-0.5-2.6-1.9-2.6-3.5c-0.1-0.8,0-1.6,0.1-2.4
	c0.4-1.6,1.8-2.9,3.5-2.9c0.5,0,1-0.1,1.5-0.1c3,0,6.1,0,9.1,0c0.6,0,1.2,0.1,1.8,0.2c1.6,0.4,2.7,1.8,2.8,3.4
	c0.1,0.8,0.1,1.7-0.1,2.5c-0.4,1.6-1.7,2.8-3.4,3c-0.4,0-0.8,0.1-1.2,0.1L25.9,28.8z M25.9,25.8L25.9,25.8c1.7,0,3.4,0,5.1,0
	c1.1,0,1.6-0.5,1.7-1.4c0.1-0.8-0.4-1.5-1.2-1.7c0,0,0,0-0.1,0c-0.2,0-0.5-0.1-0.7,0h-9.7c-0.2,0-0.5,0-0.7,0
	c-0.7,0.1-1.3,0.7-1.3,1.4c0,0,0,0,0,0c-0.1,0.7,0.4,1.4,1.1,1.6c0,0,0,0,0.1,0c0.3,0,0.5,0.1,0.8,0.1L25.9,25.8z"/>
<path class="st1" d="M35.1,14.9H16.7c0,0,0-0.1,0-0.1c0-1.8,0-3.7,0.1-5.5C16.9,7.5,18.4,6,20.2,6c1.5-0.1,3-0.1,4.5,0
	c1.8,0.1,3.3,1.5,3.4,3.3c0.1,0.7,0.1,1.4,0.1,2.1v0.4h6.9V14.9z M19.4,11.9h6.2v-1.7c0-0.6-0.4-1.2-1.1-1.2c-1.4,0-2.7,0-4.1,0
	c-0.6,0-1,0.4-1,1l0,0C19.4,10.6,19.4,11.2,19.4,11.9L19.4,11.9z"/>
<path class="st1" d="M21.8,47.6v2.9c-0.4,0-0.8,0-1.2,0c-0.8,0-1.5,0.7-1.5,1.5c0,0.3,0.1,0.6,0.2,0.8c0.3,0.4,0.8,0.7,1.3,0.7
	c1.1,0.1,2.2-0.3,2.9-1.1c0.6-0.6,1.2-1.2,1.8-1.9c0.8-1,1.8-1.8,2.9-2.4c1.5-0.7,3.3-0.8,4.8-0.1c1.3,0.5,2.2,1.8,2.3,3.2
	c0.1,0.8,0.1,1.6-0.1,2.5c-0.3,1.5-1.6,2.7-3.1,2.9c-0.9,0.1-1.7,0.2-2.6,0.2v-2.9h0.9c0.3,0,0.6,0,0.9,0c0.6,0,1.1-0.3,1.3-0.8
	c0.3-0.6,0.2-1.2-0.1-1.8c-0.3-0.4-0.7-0.6-1.1-0.6c-1.2-0.1-2.3,0.3-3.1,1.2c-0.7,0.7-1.4,1.4-2,2.2c-0.7,0.9-1.7,1.6-2.7,2.1
	c-1.5,0.7-3.3,0.7-4.8,0c-1.3-0.5-2.2-1.8-2.2-3.2c-0.1-0.7,0-1.4,0.1-2.2c0.3-1.7,1.7-2.9,3.3-3C20.6,47.6,21.1,47.6,21.8,47.6"/>
<path class="st0" d="M37.1,18c0.2-0.2,0.4-0.4,0.5-0.6c0.2-0.2,0.3-0.3,0.4-0.5c0.2-0.2,0.4-0.3,0.7-0.2c0,0,0.1,0.1,0.1,0.2
	c0,0.1,0,0.1,0,0.2v2.2c0,0.2-0.2,0.5-0.4,0.5c0,0,0,0,0,0c-0.2,0-0.4-0.2-0.4-0.4c0,0,0,0,0,0c0-0.3,0-0.6,0-0.9l0,0l-0.1,0.1
	l-0.8,1c-0.1,0.2-0.3,0.2-0.5,0.2c-0.2-0.1-0.3-0.3-0.3-0.5v-1.4c0-0.3,0-0.6,0-0.9c0-0.1,0-0.2,0.1-0.2c0.2,0,0.3,0,0.5,0
	c0.2,0,0.3,0.2,0.3,0.3c0,0.3,0,0.5,0,0.8L37.1,18"/>
<path class="st0" d="M66.2,17.9c0.3-0.4,0.6-0.7,0.9-1c0.2-0.2,0.4-0.3,0.7-0.2c0.1,0,0.1,0.1,0.1,0.1c0,0,0,0.1,0,0.1v2.3
	c0,0.2-0.1,0.3-0.2,0.4c-0.1,0.1-0.3,0.1-0.5,0c-0.1-0.1-0.2-0.2-0.2-0.4v-0.9L66.6,19c-0.2,0.2-0.3,0.4-0.5,0.5
	c-0.1,0.2-0.3,0.2-0.5,0.2c-0.2-0.1-0.3-0.3-0.3-0.5v-1.8c0-0.2,0-0.4,0-0.6c0-0.2,0-0.2,0.2-0.2h0.4c0.2,0,0.4,0.2,0.4,0.4
	c0,0,0,0,0,0c0,0.2,0,0.5,0,0.8L66.2,17.9L66.2,17.9"/>
<path class="st0" d="M35,18c0.3,0.2,0.4,0.7,0.2,1c-0.1,0.4-0.5,0.6-0.9,0.6c-0.3,0-0.6,0-1,0c-0.2,0-0.4-0.2-0.4-0.5c0,0,0,0,0,0
	c0-0.6,0-1.3,0-1.9c0-0.1,0-0.3,0-0.4s0-0.2,0.1-0.2c0.5,0,0.9,0,1.4,0c0.5,0.1,0.8,0.5,0.7,1c0,0.1,0,0.1-0.1,0.2
	C35.1,17.9,35,18,35,18 M33.8,18.8h0.4c0.1,0,0.2-0.1,0.2-0.2c0,0,0,0,0,0c0-0.1-0.1-0.2-0.2-0.2c0,0,0,0,0,0c-0.1,0-0.2,0-0.4,0
	V18.8z M33.8,17.7h0.3c0.1,0,0.2-0.1,0.2-0.2c0-0.1-0.1-0.2-0.2-0.2c0,0,0,0,0,0h-0.3L33.8,17.7z"/>
<path class="st0" d="M57,18.7h-0.5v0.5c0,0.2-0.2,0.5-0.4,0.5c-0.1,0-0.2,0-0.2-0.1c-0.1-0.1-0.2-0.3-0.2-0.4v-1.8
	c0-0.1,0-0.3,0-0.4c0-0.2,0-0.3,0.2-0.3c0.1,0,0.2,0,0.3,0c0.2,0,0.4,0.2,0.4,0.4c0,0,0,0,0,0v0.6h0.5V17c0,0,0-0.1,0-0.1
	c0-0.2,0-0.2,0.2-0.2c0.1,0,0.3,0,0.4,0c0.2,0,0.3,0.2,0.3,0.4c0,0.7,0,1.4,0,2.1c0,0.2-0.2,0.4-0.4,0.4c-0.2,0-0.5-0.2-0.5-0.4
	c0,0,0,0,0,0L57,18.7"/>
<path class="st0" d="M50.2,17.4v0.3c0.2,0,0.4,0,0.5,0c0.4,0,0.7,0.3,0.9,0.7c0.1,0.5-0.2,1.1-0.7,1.2c-0.1,0-0.2,0-0.3,0h-0.8
	c-0.3,0-0.5-0.1-0.5-0.4c0,0,0-0.1,0-0.1c0-0.5,0-1,0-1.5c0-0.3,0-0.5,0-0.8s0-0.2,0.2-0.2h1.6c0.2,0,0.4,0.2,0.4,0.4c0,0,0,0,0,0
	c0,0.2-0.2,0.4-0.4,0.4L50.2,17.4 M50.3,18.8c0.2,0,0.3,0,0.4,0c0.1,0,0.2-0.1,0.1-0.2c0,0,0,0,0,0c0-0.1-0.1-0.1-0.2-0.1
	c-0.1,0-0.2,0-0.4,0L50.3,18.8z"/>
<path class="st0" d="M63,17.3c0.1-0.1,0.1-0.2,0.2-0.3c0.2-0.3,0.6-0.5,1-0.3c0.2,0.1,0.3,0.3,0.3,0.4c0,0.2-0.2,0.4-0.4,0.4
	c-0.1,0-0.1,0-0.2,0c-0.1,0.1-0.1,0.2-0.2,0.3c0,0,0,0.1,0,0.1l0.6,1c0.1,0.1,0.1,0.3,0.1,0.4c-0.1,0.2-0.2,0.3-0.4,0.3
	c-0.2,0.1-0.3,0-0.4-0.1c-0.2-0.3-0.3-0.5-0.5-0.8L63,18.5c0,0,0,0.1,0,0.1c0,0.2,0,0.4,0,0.6c0,0.2-0.2,0.5-0.4,0.5c0,0,0,0,0,0
	c-0.3,0-0.5-0.2-0.5-0.5c0,0,0,0,0,0c0-0.6,0-1.2,0-1.8c0-0.2,0-0.3,0-0.5c0-0.2,0-0.3,0.2-0.3c0.1,0,0.2,0,0.4,0
	c0.2,0,0.4,0.2,0.3,0.4C63,17.1,63,17.1,63,17.3L63,17.3z"/>
<path class="st0" d="M53.5,17.5v0.2h0.3c0.2,0,0.4,0.2,0.4,0.4c0,0,0,0,0,0c0,0.2-0.2,0.4-0.4,0.4c0,0,0,0,0,0h-0.3v0.2h0.7
	c0.2,0,0.4,0.2,0.4,0.4c0,0,0,0,0,0c0,0.2-0.2,0.4-0.4,0.4c0,0,0,0,0,0H53c-0.2,0-0.4-0.2-0.4-0.5c0,0,0,0,0,0v-1.6
	c0-0.2,0-0.4,0-0.6s0-0.2,0.2-0.2h1.5c0.2,0,0.4,0.2,0.4,0.4c0,0.2-0.1,0.4-0.4,0.4c0,0,0,0,0,0H53.5"/>
<path class="st0" d="M47.4,17.7h0.3c0.2,0,0.4,0.2,0.4,0.4c0,0.2-0.2,0.4-0.4,0.4c0,0,0,0,0,0c-0.1,0-0.2,0-0.3,0v0.2H48
	c0.2,0,0.5,0.2,0.5,0.4v0c0,0.2-0.2,0.4-0.4,0.5c0,0,0,0,0,0h-1.1c-0.2,0-0.5-0.2-0.5-0.4c0,0,0-0.1,0-0.1v-1.5c0-0.3,0-0.5,0-0.8
	s0-0.2,0.2-0.2h1.5c0.2,0,0.4,0.2,0.4,0.4c0,0.2-0.1,0.4-0.4,0.4c0,0,0,0,0,0h-0.7L47.4,17.7z"/>
<path class="st0" d="M44.1,18.8v0.4c0,0.2-0.1,0.4-0.4,0.5c0,0,0,0-0.1,0c-0.2,0-0.4-0.2-0.4-0.4c0,0,0,0,0-0.1v-1.8
	c0-0.2,0-0.4,0-0.5s0-0.2,0.2-0.2c0.4,0,0.9,0,1.3,0c0.5,0.1,0.9,0.6,0.9,1.1c-0.1,0.5-0.5,0.9-1,1L44.1,18.8 M44.1,17.3V18h0.2
	c0.2,0,0.3-0.1,0.3-0.3c0,0,0,0,0,0c0-0.2-0.1-0.3-0.3-0.3L44.1,17.3z"/>
<path class="st0" d="M59.8,17.4h0.5c0.5,0.1,0.9,0.5,0.9,1c0,0.5-0.3,1-0.8,1.2c-0.1,0-0.2,0.1-0.4,0.1c-0.3,0-0.6,0-0.9,0
	s-0.2-0.1-0.3-0.2s0-0.3,0-0.4c0-0.5,0-1.1,0-1.6c0-0.1,0-0.2,0-0.4s0-0.3,0.2-0.3c0.1,0,0.2,0,0.3,0c0.2,0,0.4,0.2,0.4,0.4
	c0,0,0,0,0,0L59.8,17.4 M59.8,18.7c0.2,0,0.4,0,0.5-0.1c0.1-0.1,0.1-0.2,0-0.4c-0.1-0.2-0.3-0.1-0.5-0.1V18.7z"/>
<path class="st0" d="M40.5,17.5h-0.4c-0.2,0-0.4-0.2-0.4-0.4c0,0,0,0,0,0c0-0.2,0.2-0.4,0.4-0.5h1.8c0.2,0,0.5,0.2,0.5,0.4
	c0,0,0,0,0,0c0,0.2-0.2,0.4-0.5,0.4l0,0h-0.4c0,0,0,0.1,0,0.1c0,0.5,0,1,0,1.6c0,0.2-0.2,0.4-0.4,0.4c-0.2,0-0.4-0.2-0.4-0.4
	c0,0,0,0,0,0c0-0.5,0-1,0-1.5L40.5,17.5"/>
<g>
	<path class="st0" d="M3.6,74.4v-7.8h3.2c0.8,0,1.4,0.2,1.8,0.7c0.3,0.4,0.5,0.8,0.5,1.3c0,0.4-0.1,0.8-0.4,1.1s-0.6,0.5-1,0.6
		c0.5,0.1,0.9,0.4,1.2,0.7c0.3,0.3,0.4,0.7,0.4,1.3c0,0.6-0.2,1.1-0.6,1.5c-0.4,0.4-1.1,0.6-1.9,0.6H3.6z M5.1,67.1v3h1
		c0.4,0,0.8-0.1,1.1-0.3c0.3-0.2,0.5-0.6,0.5-1.1c0-0.4-0.1-0.8-0.3-1c-0.3-0.3-0.8-0.5-1.5-0.5H5.1z M5.1,70.6v3.3h1.2
		c0.6,0,1.1-0.2,1.4-0.5c0.2-0.3,0.3-0.6,0.3-1.1c0-0.4-0.1-0.8-0.3-1.1c-0.3-0.4-0.7-0.6-1.3-0.6H5.1z"/>
	<path class="st0" d="M12.4,70.7l-2.6-4.1h1.7l1.8,2.8l2-2.8h0.8L13.7,70l2.9,4.4h-1.8l-2-3.1l-2.2,3.1H9.8L12.4,70.7z"/>
	<path class="st0" d="M18.8,74.4h-1.5v-7.8h1.5V74.4z"/>
	<path class="st0" d="M23.2,66.4l3.1,7.4h0.4v2.8h-1.4v-2.2h-4v2.2h-1.4v-2.8h0.5L23.2,66.4z M22.9,69.3l-1.8,4.6h3.7L22.9,69.3z"/>
	<path class="st0" d="M35.3,66.6h0.8l-3.2,7.8h-0.8l0.7-1.7l-2.7-6.1h1.5l1.9,4.5L35.3,66.6z"/>
	<path class="st0" d="M40.4,74.4v-7.8H42l2.2,5.3l2.1-5.3h1.5v7.8h-1.5v-6.3l-2.6,6.5l-2.8-6.5l0,6.3H40.4z"/>
	<path class="st0" d="M55.3,74.4h-1.5l-0.8-2h-2.7l-0.8,2h-0.7l3.2-8L55.3,74.4z M52.8,71.9L51.7,69l-1.1,2.9H52.8z"/>
	<path class="st0" d="M61,67.2h-3.1v7.2h-1.5v-7.8H61V67.2z"/>
	<path class="st0" d="M67.6,74.4h-1.5l-0.8-2h-2.7l-0.8,2h-0.7l3.2-8L67.6,74.4z M65.1,71.9L63.9,69l-1.1,2.9H65.1z"/>
	<path class="st0" d="M71,70.4h-0.6v-0.5H71c0.3,0,0.6-0.2,0.8-0.5c0.2-0.3,0.3-0.7,0.3-1.1c0-0.6-0.1-1-0.4-1.2
		c-0.2-0.2-0.6-0.3-1.1-0.3c-0.3,0-0.7,0.1-1,0.3c-0.3,0.2-0.6,0.5-0.9,0.8l-0.3-0.4c0.4-0.4,0.8-0.8,1.1-0.9
		c0.4-0.2,0.9-0.3,1.4-0.3c0.7,0,1.3,0.2,1.8,0.6c0.5,0.4,0.7,0.9,0.7,1.5c0,0.4-0.1,0.8-0.4,1.2c-0.3,0.4-0.6,0.6-1,0.6
		c0.5,0.1,0.9,0.4,1.2,0.7s0.5,0.8,0.5,1.4c0,0.8-0.3,1.3-1,1.8c-0.6,0.3-1.3,0.5-2.2,0.5c-0.6,0-1.1-0.1-1.6-0.4
		c-0.5-0.3-0.9-0.7-1.2-1.2l0.5-0.3c0.2,0.5,0.5,0.8,0.9,1c0.4,0.2,0.9,0.4,1.4,0.4c0.5,0,0.9-0.2,1.2-0.5c0.3-0.3,0.4-0.8,0.4-1.4
		c0-0.6-0.1-1-0.4-1.2C71.8,70.5,71.4,70.4,71,70.4z"/>
	<path class="st0" d="M76.7,66.6l0,5.9l3.7-5.9h1.1v7.8H80l0-6l-3.7,6h-1v-7.8H76.7z"/>
	<path class="st0" d="M84.6,74.4h-1.5v-7.8h1.5v3.4h3.2v-3.4h1.5v7.8h-1.5v-3.8h-3.2V74.4z"/>
</g>
</svg>
