<svg id="Слой_1" data-name="Слой 1" xmlns="http://www.w3.org/2000/svg" viewBox="0 0 54.29 53.33"><defs><style>.cls-1{fill:#fff;}.cls-2{fill:#174f81;}.cls-3{fill:#575756;}.cls-4{fill:#9d9c9c;}</style></defs><path class="cls-1" d="M17.39,29.33c1.28.49,2.52,1,3.75,1.43a41.25,41.25,0,0,0,9,2.47,41.37,41.37,0,0,0,8,.42,4.68,4.68,0,0,0,1.22-.27.6.6,0,0,0,.34-.42c0-.24-.23-.29-.43-.31l-3.92-.42-.37,0v-.52l2.55-.3,3.79-.46a.7.7,0,0,0,.33-.09.54.54,0,0,0,.18-.36c0-.09-.15-.21-.26-.26a.81.81,0,0,0-.35,0L37,30.2h-.3c-.15-.53-.15-.58.32-.69,1.43-.35,2.86-.67,4.29-1,.34-.08.68-.13,1-.2s.49-.16.49-.48a.48.48,0,0,0-.52-.48,6,6,0,0,0-1,0l-4.57.5c-.19,0-.38,0-.57,0s-.33-.05-.31-.25a.38.38,0,0,1,.22-.26c1.4-.56,2.81-1.1,4.22-1.64.31-.12.63-.24.94-.38a1.32,1.32,0,0,0,.45-.32.52.52,0,0,0,.07-.43.48.48,0,0,0-.36-.23,2.85,2.85,0,0,0-.71.12c-1.84.55-3.68,1.11-5.53,1.63a7.85,7.85,0,0,1-1.29.17.93.93,0,0,1-.05-.1c.15-.18.3-.35.44-.54.47-.63,1-1.26,1.4-1.9.16-.24.32-.54.1-.82s-.55-.14-.82,0a3.66,3.66,0,0,0-.79.4c-1.63,1.17-3.27,2.33-4.88,3.53a1.9,1.9,0,0,1-1.89.35,51,51,0,0,1-6.22-2.58A15,15,0,0,1,13.93,16c-.38-1-.62-2.12-.92-3.17a1,1,0,0,1,0-.31h.39l9,0c1,0,1.35-.27,1.54-1.24A9.72,9.72,0,0,1,26.22,6.4a10.09,10.09,0,0,1,8-3.35,9.82,9.82,0,0,1,9.1,7.16c.19.68.37,1.35.55,2,0,.1.07.2.1.31h8.78c.14,0,.28,0,.41,0,.52,0,.79.28.76.8-.06.89-.13,1.78-.25,2.67-.32,2.29-.6,4.6-1,6.88A36.42,36.42,0,0,1,49,33.61a15,15,0,0,1-6.5,6.32,22.31,22.31,0,0,1-4,1.64,2.92,2.92,0,0,1-2.71-.5C34.17,40,32.6,38.86,31,37.79A3,3,0,0,0,30,37.38c-.48-.12-.67.12-.53.6a4.85,4.85,0,0,0,1,1.63c.3.35.61.69.91,1,0,0,0,.07,0,.11a6.67,6.67,0,0,1-1.19-.09c-1.76-.44-3.51-.93-5.27-1.38a4.19,4.19,0,0,0-1-.09.46.46,0,0,0-.36.24c0,.08.07.28.17.36a3.4,3.4,0,0,0,.79.44l3.82,1.39c.3.11.58.27.88.4s.35.27.16.59c-.61,0-1.27-.06-1.93-.12-1.17-.1-2.34-.24-3.51-.34a3.8,3.8,0,0,0-1,.12c-.12,0-.29.17-.29.27s.14.26.25.31a11,11,0,0,0,1.38.43c1.21.25,2.43.48,3.65.69a.81.81,0,0,1,.68.69H26.2c-.72,0-1.43,0-2.15,0-.21,0-.43.05-.43.27a.59.59,0,0,0,.26.47,4,4,0,0,0,1.15.32c1.71.17,3.43.3,5.15.44l.13,0c.09.26.06.41-.25.54a8.9,8.9,0,0,1-2.5.46c-.4,0-.79.09-1.19.14a.45.45,0,0,0-.26.09c-.12.1-.27.24-.27.37a.46.46,0,0,0,.25.34,3.52,3.52,0,0,0,1,.22,48.68,48.68,0,0,0,6.61-.41,43.68,43.68,0,0,0,10.83-3c1.31-.55,2.58-1.18,3.86-1.78L50,42.44c1.31,4.32,2.59,8.59,3.89,12.89H13q2.19-13,4.38-26M39.85,12.47a3.66,3.66,0,0,0-.23-1.69,6.19,6.19,0,0,0-8.28-3.56,5.6,5.6,0,0,0-3.74,4.85c0,.4,0,.4.38.4H39.85Z" transform="translate(0 -2)"/><polygon class="cls-2" points="0.2 39.58 0.2 36.59 4.13 36.59 8.06 36.59 8.06 33.14 0.21 33.14 0.21 30.07 18.6 30.07 18.6 33.13 10.72 33.13 10.72 36.58 18.61 36.58 18.61 39.58 0.2 39.58"/><path class="cls-2" d="M9.39,27.32c-1.7,0-3.41,0-5.11,0A5.78,5.78,0,0,1,2.63,27,3.72,3.72,0,0,1,0,23.48a8.41,8.41,0,0,1,.15-2.35,3.75,3.75,0,0,1,3.47-2.94c.49,0,1-.06,1.46-.06,3,0,6.06,0,9.09,0a6.55,6.55,0,0,1,1.76.24,3.77,3.77,0,0,1,2.81,3.4,7.35,7.35,0,0,1-.12,2.52,3.81,3.81,0,0,1-3.4,2.95c-.41,0-.83.07-1.24.07Zm0-3h0c1.69,0,3.39,0,5.08,0,1.11,0,1.63-.45,1.74-1.43A1.44,1.44,0,0,0,15,21.2a6.13,6.13,0,0,0-.74-.05H4.6a6.27,6.27,0,0,0-.74.05,1.35,1.35,0,0,0-1.25,1.48,1.37,1.37,0,0,0,1.21,1.57,5.12,5.12,0,0,0,.78.06Z" transform="translate(0 -2)"/><path class="cls-2" d="M18.61,13.39H.23a.2.2,0,0,1,0-.08c0-1.82,0-3.65.09-5.47a3.48,3.48,0,0,1,3.4-3.32,37.37,37.37,0,0,1,4.49,0A3.57,3.57,0,0,1,11.6,7.87c.07.69.06,1.39.08,2.08v.42h6.93Zm-15.75-3h6.2V8.73A1.16,1.16,0,0,0,8,7.52c-1.36,0-2.71,0-4.07,0a1,1,0,0,0-1,1A16.59,16.59,0,0,0,2.86,10.35Z" transform="translate(0 -2)"/><path class="cls-2" d="M5.29,46.11V49c-.42,0-.83,0-1.24,0a1.5,1.5,0,0,0-1.27,2.3,1.46,1.46,0,0,0,1.28.7A3.58,3.58,0,0,0,7,50.93c.62-.6,1.21-1.24,1.79-1.89a9.54,9.54,0,0,1,2.9-2.38,6,6,0,0,1,4.82-.14,3.61,3.61,0,0,1,2.28,3.16,6.74,6.74,0,0,1-.11,2.45A3.61,3.61,0,0,1,15.57,55a24.62,24.62,0,0,1-2.62.2V52.28h.88c.29,0,.57,0,.85,0A1.39,1.39,0,0,0,16,51.5a1.85,1.85,0,0,0-.11-1.78,1.41,1.41,0,0,0-1.14-.57,3.62,3.62,0,0,0-3.07,1.2c-.7.69-1.35,1.44-2,2.16A8,8,0,0,1,7,54.57a6,6,0,0,1-4.8,0A3.49,3.49,0,0,1,0,51.35a7.8,7.8,0,0,1,.11-2.16,3.6,3.6,0,0,1,3.34-3c.59-.06,1.18-.07,1.81-.11" transform="translate(0 -2)"/><path class="cls-1" d="M20.57,16.48c.19-.23.36-.43.52-.64s.27-.31.4-.47a.65.65,0,0,1,.67-.19c.05,0,.1.11.13.17a.44.44,0,0,1,0,.2v2.16a.44.44,0,0,1-.45.47.41.41,0,0,1-.43-.41c0-.29,0-.58,0-.87h0l-.07.08-.83,1a.47.47,0,0,1-.52.19.48.48,0,0,1-.31-.48v-1.4c0-.3,0-.59,0-.89,0-.11,0-.21.14-.21a2.9,2.9,0,0,1,.51,0,.31.31,0,0,1,.27.31c0,.27,0,.55,0,.82v.16" transform="translate(0 -2)"/><path class="cls-1" d="M49.72,16.45c.29-.35.58-.69.86-1a.69.69,0,0,1,.68-.23c.06,0,.11.08.14.13a.25.25,0,0,1,0,.15v2.3a.4.4,0,0,1-.23.38.43.43,0,0,1-.46,0,.48.48,0,0,1-.19-.39v-.85l-.48.57c-.15.18-.3.37-.46.55a.45.45,0,0,1-.51.18.47.47,0,0,1-.3-.48V16c0-.19,0-.39,0-.58s0-.22.19-.23h.36a.37.37,0,0,1,.38.39c0,.25,0,.5,0,.76v.12h0" transform="translate(0 -2)"/><path class="cls-1" d="M18.48,16.56a.82.82,0,0,1,.2,1,.94.94,0,0,1-.87.62c-.32,0-.64,0-1,0a.44.44,0,0,1-.41-.47c0-.63,0-1.27,0-1.9,0-.14,0-.27,0-.4s0-.24.14-.24a9.32,9.32,0,0,1,1.4,0,.85.85,0,0,1,.64,1.17,1.12,1.12,0,0,1-.1.18m-1.16.79h.39a.18.18,0,0,0,.16-.21.17.17,0,0,0-.18-.18c-.12,0-.24,0-.37,0Zm0-1.07h.29a.18.18,0,0,0,.17-.17.17.17,0,0,0-.16-.18h-.3Z" transform="translate(0 -2)"/><path class="cls-1" d="M40.49,17.18H40v.54a.45.45,0,0,1-.69.39.46.46,0,0,1-.21-.42V15.87a3,3,0,0,0,0-.42c0-.22,0-.28.24-.29a1.51,1.51,0,0,1,.3,0,.41.41,0,0,1,.39.47v.62h.53v-.76s0-.06,0-.09c0-.19,0-.25.23-.25a1.71,1.71,0,0,1,.39,0,.36.36,0,0,1,.31.39c0,.72,0,1.44,0,2.15a.44.44,0,0,1-.43.44.45.45,0,0,1-.47-.44v-.56" transform="translate(0 -2)"/><path class="cls-1" d="M33.72,15.93v.31c.19,0,.37,0,.55,0a1,1,0,0,1,.86.67,1,1,0,0,1-.74,1.2,2.48,2.48,0,0,1-.27,0h-.77a.46.46,0,0,1-.52-.53c0-.49,0-1,0-1.46,0-.27,0-.53,0-.8s0-.22.18-.22h1.6a.36.36,0,0,1,.35.39.37.37,0,0,1-.37.37h-.84m0,1.44c.15,0,.28,0,.41,0a.17.17,0,0,0,.14-.21A.18.18,0,0,0,34.1,17c-.12,0-.25,0-.38,0Z" transform="translate(0 -2)"/><path class="cls-1" d="M46.47,15.78c.06-.1.11-.2.17-.29a.79.79,0,0,1,1-.28.39.39,0,0,1,.27.45.43.43,0,0,1-.41.37.29.29,0,0,0-.19,0,1.41,1.41,0,0,0-.18.29s0,.07,0,.1l.6,1a.44.44,0,0,1,.06.43.42.42,0,0,1-.36.28A.38.38,0,0,1,47,18c-.17-.26-.32-.53-.48-.8L46.46,17a.62.62,0,0,0,0,.12c0,.19,0,.37,0,.56a.44.44,0,0,1-.45.47.45.45,0,0,1-.45-.48c0-.6,0-1.2,0-1.8a4.19,4.19,0,0,0,0-.5c0-.2,0-.26.22-.27a1.54,1.54,0,0,1,.37,0,.4.4,0,0,1,.34.43,1.2,1.2,0,0,1,0,.19Z" transform="translate(0 -2)"/><path class="cls-1" d="M37,16v.25h.33a.42.42,0,0,1,.45.42.41.41,0,0,1-.45.4c-.11,0-.21,0-.33,0v.2h.7a.41.41,0,0,1,.4.45.43.43,0,0,1-.42.44H36.52a.44.44,0,0,1-.42-.49V16.06c0-.21,0-.42,0-.64s0-.25.18-.25h1.5a.41.41,0,0,1,.36.43.38.38,0,0,1-.37.4H37" transform="translate(0 -2)"/><path class="cls-1" d="M30.84,16.26h.35a.43.43,0,0,1,.43.42.4.4,0,0,1-.43.4h-.35v.19h.66a.45.45,0,0,1,.45.45.44.44,0,0,1-.45.45H30.41a.44.44,0,0,1-.48-.48V16.22c0-.27,0-.54,0-.81s0-.24.18-.24h1.49a.4.4,0,0,1,.36.43.38.38,0,0,1-.37.4h-.72Z" transform="translate(0 -2)"/><path class="cls-1" d="M27.56,17.35v.34a.45.45,0,1,1-.89,0V15.88c0-.17,0-.35,0-.52s0-.22.16-.22a8.32,8.32,0,0,1,1.32,0A1.08,1.08,0,0,1,29,16.26a1.11,1.11,0,0,1-1,1l-.46,0m0-1.42v.65l.25,0a.28.28,0,0,0,.3-.29.34.34,0,0,0-.31-.34Z" transform="translate(0 -2)"/><path class="cls-1" d="M43.27,15.91l.49,0a1.14,1.14,0,0,1,.93.95,1.12,1.12,0,0,1-.81,1.17,1.43,1.43,0,0,1-.37.06c-.29,0-.58,0-.87,0s-.25-.06-.26-.23,0-.27,0-.41c0-.54,0-1.09,0-1.64,0-.11,0-.23,0-.35s0-.28.23-.28a1.51,1.51,0,0,1,.3,0,.42.42,0,0,1,.4.46v.21m0,1.41c.19,0,.37,0,.49-.14a.3.3,0,0,0,0-.36c-.12-.16-.3-.13-.49-.12Z" transform="translate(0 -2)"/><path class="cls-1" d="M24,16.05h-.44a.43.43,0,0,1-.45-.44.45.45,0,0,1,.44-.45h1.78a.45.45,0,0,1,.45.45.44.44,0,0,1-.45.44h-.42c0,.06,0,.1,0,.14,0,.52,0,1,0,1.55a.44.44,0,1,1-.88,0c0-.5,0-1,0-1.5v-.17" transform="translate(0 -2)"/><path class="cls-1" d="M17.39,29.33c1.28.49,2.52,1,3.75,1.43a41.25,41.25,0,0,0,9,2.47,41.37,41.37,0,0,0,8,.42,4.68,4.68,0,0,0,1.22-.27.6.6,0,0,0,.34-.42c0-.24-.23-.29-.43-.31l-3.92-.42-.37,0v-.52l2.55-.3,3.79-.46a.7.7,0,0,0,.33-.09.54.54,0,0,0,.18-.36c0-.09-.15-.21-.26-.26a.81.81,0,0,0-.35,0L37,30.2h-.31c-.14-.53-.14-.58.33-.69,1.43-.35,2.86-.67,4.29-1,.34-.08.68-.13,1-.2s.49-.16.49-.48a.48.48,0,0,0-.52-.48,6,6,0,0,0-1,0l-4.57.5c-.19,0-.38,0-.57,0s-.33-.05-.31-.25a.38.38,0,0,1,.22-.26c1.4-.56,2.81-1.1,4.22-1.64.31-.12.63-.24.94-.38a1.32,1.32,0,0,0,.45-.32.52.52,0,0,0,.07-.43.48.48,0,0,0-.36-.23,2.85,2.85,0,0,0-.71.12c-1.84.55-3.68,1.11-5.53,1.63a7.85,7.85,0,0,1-1.29.17.93.93,0,0,1-.05-.1c.15-.18.3-.35.44-.54.47-.63,1-1.26,1.4-1.9.16-.24.32-.54.09-.82s-.54-.14-.81,0a3.66,3.66,0,0,0-.79.4c-1.63,1.17-3.27,2.33-4.88,3.53a1.9,1.9,0,0,1-1.89.35,51,51,0,0,1-6.22-2.58A15,15,0,0,1,13.93,16c-.38-1-.62-2.12-.92-3.17a1,1,0,0,1,0-.31h.39l9,0c1,0,1.35-.27,1.54-1.24A9.72,9.72,0,0,1,26.22,6.4a10.09,10.09,0,0,1,8-3.35,9.82,9.82,0,0,1,9.1,7.16c.19.68.37,1.35.55,2,0,.1.06.2.1.31h8.78c.14,0,.28,0,.41,0,.52,0,.79.28.76.8-.06.89-.13,1.78-.25,2.67-.32,2.29-.6,4.6-1,6.88A36.42,36.42,0,0,1,49,33.61a15,15,0,0,1-6.5,6.32,22.31,22.31,0,0,1-4,1.64,2.92,2.92,0,0,1-2.71-.5C34.17,40,32.6,38.86,31,37.79A3.07,3.07,0,0,0,30,37.38c-.48-.12-.67.12-.52.6a4.68,4.68,0,0,0,1,1.63c.3.35.61.69.91,1,0,0,0,.07,0,.11a6.67,6.67,0,0,1-1.19-.09c-1.76-.44-3.51-.93-5.27-1.38a4.19,4.19,0,0,0-1-.09.46.46,0,0,0-.36.24c0,.08.07.28.17.36a3.4,3.4,0,0,0,.79.44l3.82,1.39c.3.11.58.27.88.4s.35.27.16.59c-.61,0-1.27-.06-1.93-.12-1.17-.1-2.34-.24-3.51-.34a3.8,3.8,0,0,0-1,.12c-.12,0-.29.17-.29.27s.14.26.25.31a11,11,0,0,0,1.38.43c1.21.25,2.43.48,3.65.69a.81.81,0,0,1,.68.69H26.2c-.72,0-1.43,0-2.15,0-.21,0-.43.05-.43.27a.59.59,0,0,0,.26.47,4,4,0,0,0,1.15.32c1.71.17,3.43.3,5.15.44l.13,0c.09.26.06.41-.25.54a8.9,8.9,0,0,1-2.5.46c-.4,0-.79.09-1.19.14a.45.45,0,0,0-.26.09c-.12.1-.27.24-.28.37a.49.49,0,0,0,.26.34,3.52,3.52,0,0,0,1,.22,48.68,48.68,0,0,0,6.61-.41,43.8,43.8,0,0,0,10.83-3c1.31-.55,2.58-1.18,3.86-1.78L50,42.44c1.3,4.32,2.59,8.59,3.89,12.89H13q2.21-13,4.39-26M39.85,12.47a3.66,3.66,0,0,0-.23-1.69,6.19,6.19,0,0,0-8.28-3.56,5.6,5.6,0,0,0-3.74,4.85c0,.4,0,.4.38.4H39.85Z" transform="translate(0 -2)"/><polygon class="cls-3" points="0.2 39.58 0.2 36.59 4.13 36.59 8.06 36.59 8.06 33.14 0.21 33.14 0.21 30.07 18.6 30.07 18.6 33.13 10.72 33.13 10.72 36.58 18.61 36.58 18.61 39.58 0.2 39.58"/><path class="cls-3" d="M9.39,27.32c-1.7,0-3.41,0-5.11,0A5.78,5.78,0,0,1,2.63,27,3.72,3.72,0,0,1,0,23.48a8.41,8.41,0,0,1,.15-2.35,3.75,3.75,0,0,1,3.47-2.94c.49,0,1-.06,1.46-.06,3,0,6.06,0,9.09,0a6.55,6.55,0,0,1,1.76.24,3.77,3.77,0,0,1,2.81,3.4,7.35,7.35,0,0,1-.12,2.52,3.81,3.81,0,0,1-3.4,2.95c-.41,0-.83.07-1.24.07Zm0-3h0c1.69,0,3.39,0,5.08,0,1.11,0,1.63-.45,1.74-1.43A1.44,1.44,0,0,0,15,21.2a6.13,6.13,0,0,0-.74-.05H4.61a6.3,6.3,0,0,0-.75.05,1.35,1.35,0,0,0-1.25,1.48,1.37,1.37,0,0,0,1.21,1.57,5.12,5.12,0,0,0,.78.06Z" transform="translate(0 -2)"/><path class="cls-3" d="M18.61,13.39H.23a.2.2,0,0,1,0-.08c0-1.82,0-3.65.09-5.47a3.48,3.48,0,0,1,3.4-3.32,37.37,37.37,0,0,1,4.49,0A3.57,3.57,0,0,1,11.6,7.87c.07.69.06,1.39.08,2.08v.42h6.93Zm-15.75-3h6.2V8.73A1.16,1.16,0,0,0,8,7.52c-1.36,0-2.71,0-4.07,0a1,1,0,0,0-1,1A16.59,16.59,0,0,0,2.86,10.35Z" transform="translate(0 -2)"/><path class="cls-3" d="M5.29,46.11V49c-.42,0-.83,0-1.24,0a1.5,1.5,0,0,0-1.27,2.3,1.46,1.46,0,0,0,1.28.7A3.58,3.58,0,0,0,7,50.93c.62-.6,1.21-1.24,1.79-1.89a9.54,9.54,0,0,1,2.9-2.38,6,6,0,0,1,4.82-.14,3.61,3.61,0,0,1,2.28,3.16,6.74,6.74,0,0,1-.11,2.45A3.61,3.61,0,0,1,15.57,55a24.62,24.62,0,0,1-2.62.2V52.28h.88c.29,0,.57,0,.85,0A1.39,1.39,0,0,0,16,51.5a1.85,1.85,0,0,0-.11-1.78,1.41,1.41,0,0,0-1.14-.57,3.62,3.62,0,0,0-3.07,1.2c-.7.69-1.35,1.44-2,2.16A8,8,0,0,1,7,54.57a6,6,0,0,1-4.8,0A3.51,3.51,0,0,1,0,51.35a7.8,7.8,0,0,1,.11-2.16,3.6,3.6,0,0,1,3.34-3c.59-.06,1.19-.07,1.81-.11" transform="translate(0 -2)"/><path class="cls-1" d="M20.56,16.48c.2-.23.37-.43.53-.64s.27-.31.4-.47a.64.64,0,0,1,.66-.19c.06,0,.11.11.14.17a.44.44,0,0,1,0,.2v2.16a.45.45,0,0,1-.45.47.41.41,0,0,1-.43-.41c0-.29,0-.58,0-.87h0l-.07.08-.83,1a.47.47,0,0,1-.52.19.48.48,0,0,1-.31-.48c0-.47,0-.93,0-1.4,0-.3,0-.59,0-.89,0-.11,0-.21.14-.21a2.9,2.9,0,0,1,.51,0,.31.31,0,0,1,.27.31c0,.27,0,.55,0,.82a.83.83,0,0,1,0,.16" transform="translate(0 -2)"/><path class="cls-1" d="M49.72,16.45c.29-.35.58-.69.86-1a.69.69,0,0,1,.68-.23c.05,0,.11.08.14.13a.25.25,0,0,1,0,.15v2.3a.4.4,0,0,1-.23.38.43.43,0,0,1-.46,0,.48.48,0,0,1-.19-.39v-.85l-.48.57c-.15.18-.3.37-.46.55a.45.45,0,0,1-.51.18.47.47,0,0,1-.3-.48c0-.57,0-1.13,0-1.7a5.63,5.63,0,0,0,0-.58c0-.16,0-.22.19-.23h.36a.37.37,0,0,1,.38.39c0,.25,0,.5,0,.76v.12h0" transform="translate(0 -2)"/><path class="cls-1" d="M18.48,16.56a.82.82,0,0,1,.2,1,.94.94,0,0,1-.87.62c-.32,0-.64,0-1,0a.44.44,0,0,1-.41-.47c0-.63,0-1.27,0-1.9,0-.14,0-.27,0-.4s0-.24.14-.24a9.32,9.32,0,0,1,1.4,0,.85.85,0,0,1,.64,1.17,1.12,1.12,0,0,1-.1.18m-1.16.79h.39a.18.18,0,0,0,.16-.21.17.17,0,0,0-.18-.18c-.12,0-.24,0-.37,0Zm0-1.07h.29a.18.18,0,0,0,.17-.17.17.17,0,0,0-.16-.18h-.3Z" transform="translate(0 -2)"/><path class="cls-1" d="M40.48,17.18H40c0,.18,0,.36,0,.54a.45.45,0,0,1-.69.39.46.46,0,0,1-.21-.42V15.87a3,3,0,0,0,0-.42c0-.22,0-.28.24-.29a1.51,1.51,0,0,1,.3,0,.41.41,0,0,1,.39.47v.62h.53v-.76s0-.06,0-.09c0-.19,0-.25.23-.25a1.71,1.71,0,0,1,.39,0,.36.36,0,0,1,.31.39c0,.72,0,1.44,0,2.15a.44.44,0,0,1-.43.44.45.45,0,0,1-.47-.44c0-.14,0-.29,0-.44a.49.49,0,0,0,0-.12" transform="translate(0 -2)"/><path class="cls-1" d="M33.72,15.93v.31c.19,0,.37,0,.55,0a.94.94,0,0,1,.12,1.87,2.48,2.48,0,0,1-.27,0h-.77a.46.46,0,0,1-.52-.53c0-.49,0-1,0-1.46,0-.27,0-.53,0-.8s0-.22.18-.22h1.6a.36.36,0,0,1,.35.39.37.37,0,0,1-.37.37h-.84m0,1.44c.15,0,.28,0,.41,0a.17.17,0,0,0,.14-.21A.18.18,0,0,0,34.1,17c-.12,0-.25,0-.38,0Z" transform="translate(0 -2)"/><path class="cls-1" d="M46.47,15.78c.06-.1.11-.2.17-.29a.79.79,0,0,1,1-.28.41.41,0,0,1,.28.45.45.45,0,0,1-.42.37.29.29,0,0,0-.19,0,1.41,1.41,0,0,0-.18.29s0,.07,0,.1c.2.33.4.66.61,1a.47.47,0,0,1,0,.43.42.42,0,0,1-.36.28A.38.38,0,0,1,47,18l-.48-.8L46.46,17a.62.62,0,0,0,0,.12c0,.19,0,.37,0,.56a.44.44,0,0,1-.45.47.45.45,0,0,1-.45-.48V15.9a4.19,4.19,0,0,0,0-.5c0-.2,0-.26.22-.27a1.54,1.54,0,0,1,.37,0,.4.4,0,0,1,.34.43,1.2,1.2,0,0,1,0,.19Z" transform="translate(0 -2)"/><path class="cls-1" d="M37,16v.25h.33a.42.42,0,0,1,.45.42.4.4,0,0,1-.45.4c-.11,0-.21,0-.33,0v.2h.7a.41.41,0,0,1,.4.45.43.43,0,0,1-.42.44H36.52a.44.44,0,0,1-.42-.49V16.06c0-.21,0-.42,0-.64s0-.25.17-.25h1.5a.41.41,0,0,1,.36.43.38.38,0,0,1-.37.4H37" transform="translate(0 -2)"/><path class="cls-1" d="M30.84,16.26h.35a.43.43,0,0,1,.43.42.4.4,0,0,1-.43.4h-.35v.19h.66a.45.45,0,1,1,0,.9H30.41a.44.44,0,0,1-.48-.48V16.22c0-.27,0-.54,0-.81s0-.24.18-.24h1.49a.4.4,0,0,1,.36.43.38.38,0,0,1-.37.4h-.72Z" transform="translate(0 -2)"/><path class="cls-1" d="M27.56,17.35v.34a.45.45,0,1,1-.89,0V15.88c0-.17,0-.35,0-.52s0-.22.16-.22a8.32,8.32,0,0,1,1.32,0A1.07,1.07,0,0,1,29,16.26a1.11,1.11,0,0,1-1,1l-.46,0m0-1.42v.65l.25,0a.28.28,0,0,0,.3-.29.34.34,0,0,0-.31-.34Z" transform="translate(0 -2)"/><path class="cls-1" d="M43.27,15.91l.48,0a1.13,1.13,0,0,1,.94.95,1.12,1.12,0,0,1-.81,1.17,1.43,1.43,0,0,1-.37.06c-.29,0-.58,0-.87,0s-.25-.06-.26-.23,0-.27,0-.41c0-.54,0-1.09,0-1.64,0-.11,0-.23,0-.35s0-.28.23-.28a1.51,1.51,0,0,1,.3,0,.42.42,0,0,1,.4.46v.21m0,1.41c.19,0,.37,0,.49-.14a.3.3,0,0,0,0-.36c-.12-.16-.3-.13-.49-.12Z" transform="translate(0 -2)"/><path class="cls-1" d="M24,16.05h-.44a.43.43,0,0,1-.45-.44.45.45,0,0,1,.44-.45h1.78a.45.45,0,0,1,.45.45.44.44,0,0,1-.45.44h-.42c0,.06,0,.1,0,.14,0,.52,0,1,0,1.55a.44.44,0,1,1-.88,0c0-.5,0-1,0-1.5v-.17" transform="translate(0 -2)"/><path class="cls-1" d="M17.39,29.33c1.28.49,2.52,1,3.75,1.43a41.25,41.25,0,0,0,9,2.47,41.37,41.37,0,0,0,8,.42,4.68,4.68,0,0,0,1.22-.27.6.6,0,0,0,.34-.42c0-.24-.23-.29-.43-.31l-3.92-.42-.37,0v-.52l2.55-.3,3.79-.46a.6.6,0,0,0,.33-.09.54.54,0,0,0,.18-.36c0-.09-.15-.21-.26-.26a.81.81,0,0,0-.35,0L37,30.2h-.31c-.14-.53-.14-.58.33-.69,1.43-.35,2.86-.67,4.29-1,.34-.08.68-.13,1-.2s.49-.15.49-.48a.48.48,0,0,0-.52-.48,6,6,0,0,0-1,0l-4.57.5c-.19,0-.38,0-.57,0s-.33-.05-.31-.25a.38.38,0,0,1,.22-.26c1.4-.56,2.81-1.1,4.22-1.64.31-.12.63-.23.94-.38a1.32,1.32,0,0,0,.45-.32.52.52,0,0,0,.07-.43.46.46,0,0,0-.36-.23,2.47,2.47,0,0,0-.71.13c-1.84.54-3.68,1.1-5.53,1.62a7.85,7.85,0,0,1-1.29.17.93.93,0,0,1-.05-.1c.15-.18.3-.35.44-.54.47-.63,1-1.25,1.4-1.9.16-.24.32-.54.09-.82s-.54-.14-.81,0a3.66,3.66,0,0,0-.79.4c-1.63,1.17-3.27,2.33-4.88,3.53a1.9,1.9,0,0,1-1.89.35,52.53,52.53,0,0,1-6.22-2.57A15,15,0,0,1,13.93,16c-.38-1-.62-2.11-.92-3.17a1,1,0,0,1,0-.31h.39l9,0c1,0,1.35-.27,1.54-1.24A9.72,9.72,0,0,1,26.22,6.4a10.09,10.09,0,0,1,8-3.35,9.83,9.83,0,0,1,9.1,7.16c.19.68.37,1.35.55,2,0,.1.06.2.1.31h8.78c.14,0,.28,0,.41,0,.52,0,.79.28.76.8-.06.89-.13,1.78-.25,2.67-.32,2.29-.6,4.6-1,6.88A36.42,36.42,0,0,1,49,33.61a15,15,0,0,1-6.5,6.32,22.31,22.31,0,0,1-4,1.64,3,3,0,0,1-2.71-.5Q33.4,39.41,31,37.79A3.07,3.07,0,0,0,30,37.38c-.48-.12-.67.12-.52.6a4.68,4.68,0,0,0,1,1.63c.3.35.61.69.91,1l0,.11a6.67,6.67,0,0,1-1.19-.09c-1.76-.44-3.51-.92-5.27-1.38a4.19,4.19,0,0,0-1-.09.46.46,0,0,0-.36.24c0,.08.07.28.17.35a3.1,3.1,0,0,0,.79.45l3.82,1.39c.3.11.58.27.88.4s.35.27.16.59c-.61,0-1.27-.06-1.93-.12-1.17-.1-2.34-.24-3.51-.33a3.41,3.41,0,0,0-1,.11c-.12,0-.29.17-.29.27s.14.27.25.31a11,11,0,0,0,1.38.43c1.21.25,2.43.48,3.65.69a.81.81,0,0,1,.68.69H26.2c-.72,0-1.43,0-2.15,0-.21,0-.43.05-.43.27a.59.59,0,0,0,.26.47,4,4,0,0,0,1.15.32c1.71.17,3.43.3,5.15.44l.13,0c.09.26.06.41-.25.54a8.9,8.9,0,0,1-2.5.46c-.4,0-.79.09-1.19.14a.45.45,0,0,0-.26.09c-.12.1-.27.24-.28.37a.49.49,0,0,0,.26.34,3.52,3.52,0,0,0,1,.22,48.68,48.68,0,0,0,6.61-.41,43.8,43.8,0,0,0,10.83-3c1.31-.55,2.58-1.18,3.86-1.78L50,42.44c1.3,4.32,2.59,8.59,3.89,12.89H13q2.21-13,4.39-26M39.85,12.47a3.66,3.66,0,0,0-.23-1.69,6.19,6.19,0,0,0-8.28-3.56,5.62,5.62,0,0,0-3.74,4.85c0,.4,0,.4.38.4H39.85Z" transform="translate(0 -2)"/><polygon class="cls-3" points="0.2 39.58 0.2 36.59 4.13 36.59 8.06 36.59 8.06 33.13 0.21 33.13 0.21 30.07 18.6 30.07 18.6 33.12 10.72 33.12 10.72 36.57 18.61 36.57 18.61 39.58 0.2 39.58"/><path class="cls-3" d="M9.39,27.32c-1.7,0-3.41,0-5.11,0A5.44,5.44,0,0,1,2.63,27,3.72,3.72,0,0,1,0,23.48a8.41,8.41,0,0,1,.15-2.35,3.75,3.75,0,0,1,3.47-2.94c.49,0,1-.06,1.46-.06,3,0,6.06,0,9.09,0a7,7,0,0,1,1.76.23,3.79,3.79,0,0,1,2.81,3.41,7.35,7.35,0,0,1-.12,2.52,3.81,3.81,0,0,1-3.4,2.95c-.41,0-.83.06-1.24.07Zm0-3h0c1.69,0,3.39,0,5.08,0,1.11,0,1.63-.45,1.74-1.43A1.44,1.44,0,0,0,15,21.2a4.6,4.6,0,0,0-.74-.05H4.61a4.73,4.73,0,0,0-.75.05,1.35,1.35,0,0,0-1.25,1.48,1.37,1.37,0,0,0,1.21,1.57,5.12,5.12,0,0,0,.78.06Z" transform="translate(0 -2)"/><path class="cls-3" d="M18.61,13.39H.23a.2.2,0,0,1,0-.08c0-1.82,0-3.65.09-5.47a3.48,3.48,0,0,1,3.4-3.32,37.37,37.37,0,0,1,4.49,0A3.57,3.57,0,0,1,11.6,7.87c.07.69.06,1.39.08,2.08v.42h6.93Zm-15.75-3h6.2V8.73A1.16,1.16,0,0,0,8,7.52c-1.36,0-2.71,0-4.07,0a1,1,0,0,0-1,1A16.59,16.59,0,0,0,2.86,10.35Z" transform="translate(0 -2)"/><path class="cls-3" d="M5.29,46.11V49c-.42,0-.83,0-1.24,0a1.5,1.5,0,0,0-1.27,2.3A1.43,1.43,0,0,0,4.06,52,3.54,3.54,0,0,0,7,50.93c.62-.6,1.21-1.24,1.79-1.89a9.54,9.54,0,0,1,2.9-2.38,6,6,0,0,1,4.82-.14,3.61,3.61,0,0,1,2.28,3.16,6.74,6.74,0,0,1-.11,2.45A3.61,3.61,0,0,1,15.57,55a24.62,24.62,0,0,1-2.62.2V52.28h.88c.29,0,.57,0,.85,0A1.39,1.39,0,0,0,16,51.5a1.85,1.85,0,0,0-.11-1.78,1.41,1.41,0,0,0-1.14-.57,3.62,3.62,0,0,0-3.07,1.2c-.7.69-1.35,1.44-2,2.16A8,8,0,0,1,7,54.57a6,6,0,0,1-4.8,0A3.51,3.51,0,0,1,0,51.35a7.8,7.8,0,0,1,.11-2.16,3.6,3.6,0,0,1,3.34-3c.59-.07,1.19-.07,1.81-.11" transform="translate(0 -2)"/><path class="cls-1" d="M20.56,16.48c.2-.23.37-.43.53-.64s.27-.31.4-.47a.64.64,0,0,1,.66-.19c.06,0,.11.1.14.17a.44.44,0,0,1,0,.2v2.16a.45.45,0,0,1-.45.47.41.41,0,0,1-.43-.41c0-.29,0-.58,0-.87h0l-.07.08-.83,1a.47.47,0,0,1-.52.19.48.48,0,0,1-.31-.48c0-.47,0-.93,0-1.4,0-.3,0-.6,0-.89,0-.11,0-.21.14-.21a2.9,2.9,0,0,1,.51,0,.31.31,0,0,1,.27.31c0,.27,0,.54,0,.82a.83.83,0,0,1,0,.16" transform="translate(0 -2)"/><path class="cls-1" d="M49.72,16.45c.29-.35.58-.69.86-1a.69.69,0,0,1,.68-.23c.05,0,.11.08.14.13a.25.25,0,0,1,0,.15v2.3a.4.4,0,0,1-.23.38.43.43,0,0,1-.46,0,.48.48,0,0,1-.19-.39v-.85l-.48.57c-.15.18-.3.37-.46.55a.45.45,0,0,1-.51.18.47.47,0,0,1-.3-.48c0-.57,0-1.13,0-1.7a5.63,5.63,0,0,0,0-.58c0-.16,0-.22.19-.23h.36a.37.37,0,0,1,.38.39c0,.25,0,.5,0,.76v.12h0" transform="translate(0 -2)"/><path class="cls-1" d="M18.48,16.56a.82.82,0,0,1,.2,1,.94.94,0,0,1-.87.62c-.32,0-.64,0-1,0a.44.44,0,0,1-.41-.47c0-.63,0-1.27,0-1.9,0-.14,0-.27,0-.4s0-.24.14-.24a9.32,9.32,0,0,1,1.4,0,.85.85,0,0,1,.64,1.17,1.12,1.12,0,0,1-.1.18m-1.16.79h.39a.18.18,0,0,0,.16-.21.17.17,0,0,0-.18-.18c-.12,0-.24,0-.37,0Zm0-1.07h.29a.18.18,0,0,0,.17-.17.17.17,0,0,0-.16-.18h-.3Z" transform="translate(0 -2)"/><path class="cls-1" d="M40.48,17.18H40c0,.18,0,.36,0,.54a.45.45,0,0,1-.69.39.46.46,0,0,1-.21-.42V15.87a3,3,0,0,0,0-.42c0-.22,0-.28.24-.28a1,1,0,0,1,.3,0,.42.42,0,0,1,.39.47v.62h.53v-.76s0-.06,0-.09c0-.19,0-.25.23-.25a1.71,1.71,0,0,1,.39,0,.36.36,0,0,1,.31.39c0,.72,0,1.44,0,2.15a.44.44,0,0,1-.43.44.45.45,0,0,1-.47-.44c0-.14,0-.29,0-.44a.49.49,0,0,0,0-.12" transform="translate(0 -2)"/><path class="cls-1" d="M33.72,15.93v.31c.19,0,.37,0,.55,0a.94.94,0,0,1,.12,1.87,1.24,1.24,0,0,1-.27,0h-.77a.46.46,0,0,1-.52-.53c0-.49,0-1,0-1.46,0-.27,0-.53,0-.8s0-.22.18-.22h1.6a.36.36,0,0,1,.35.39.37.37,0,0,1-.37.37h-.84m0,1.44c.15,0,.28,0,.41,0a.17.17,0,0,0,.14-.21A.18.18,0,0,0,34.1,17c-.12,0-.25,0-.38,0Z" transform="translate(0 -2)"/><path class="cls-1" d="M46.47,15.78c.06-.1.11-.2.17-.29a.78.78,0,0,1,1-.28.41.41,0,0,1,.28.45.45.45,0,0,1-.42.37.29.29,0,0,0-.19,0,1.41,1.41,0,0,0-.18.29s0,.07,0,.1c.2.33.4.66.61,1a.47.47,0,0,1,0,.43.42.42,0,0,1-.36.28A.38.38,0,0,1,47,18l-.48-.8L46.46,17a.62.62,0,0,0,0,.12c0,.19,0,.37,0,.56a.44.44,0,0,1-.45.47.46.46,0,0,1-.45-.48V15.9a4.19,4.19,0,0,0,0-.5c0-.2,0-.26.22-.27a1.54,1.54,0,0,1,.37,0,.4.4,0,0,1,.34.43,1.2,1.2,0,0,1,0,.19Z" transform="translate(0 -2)"/><path class="cls-1" d="M37,16v.25h.33a.42.42,0,0,1,.45.42.4.4,0,0,1-.45.4H37v.2h.7a.41.41,0,0,1,.4.45.43.43,0,0,1-.42.44H36.52a.44.44,0,0,1-.42-.49V16.07c0-.22,0-.43,0-.65s0-.25.17-.25h1.5a.41.41,0,0,1,.36.43.38.38,0,0,1-.37.4H37" transform="translate(0 -2)"/><path class="cls-1" d="M30.84,16.26h.35a.43.43,0,0,1,.43.42.4.4,0,0,1-.43.4c-.11,0-.23,0-.35,0v.19h.66a.45.45,0,1,1,0,.9H30.41a.44.44,0,0,1-.48-.48V16.22c0-.27,0-.54,0-.81s0-.24.18-.24h1.49a.4.4,0,0,1,.36.43.38.38,0,0,1-.37.4h-.72Z" transform="translate(0 -2)"/><path class="cls-1" d="M27.56,17.35v.35a.44.44,0,0,1-.44.48.44.44,0,0,1-.45-.49V15.88c0-.17,0-.35,0-.51s0-.23.16-.23a8.32,8.32,0,0,1,1.32,0A1.07,1.07,0,0,1,29,16.26a1.11,1.11,0,0,1-1,1l-.46,0m0-1.42v.65l.25,0a.28.28,0,0,0,.3-.29.34.34,0,0,0-.31-.34Z" transform="translate(0 -2)"/><path class="cls-1" d="M43.27,15.91l.48,0a1.13,1.13,0,0,1,.94.95,1.12,1.12,0,0,1-.81,1.17,1.43,1.43,0,0,1-.37.06c-.29,0-.58,0-.87,0s-.25-.06-.26-.24,0-.26,0-.4c0-.54,0-1.09,0-1.64,0-.11,0-.23,0-.35s0-.28.23-.28a1.51,1.51,0,0,1,.3,0,.42.42,0,0,1,.4.46v.21m0,1.41c.19,0,.37,0,.49-.14a.28.28,0,0,0,0-.35c-.12-.17-.3-.14-.49-.13Z" transform="translate(0 -2)"/><path class="cls-1" d="M24,16.06h-.44a.43.43,0,0,1-.45-.44.45.45,0,0,1,.44-.45h1.78a.45.45,0,0,1,.45.45.45.45,0,0,1-.45.45h-.42c0,.05,0,.09,0,.13,0,.52,0,1,0,1.56a.44.44,0,1,1-.88,0c0-.5,0-1,0-1.5v-.16" transform="translate(0 -2)"/><path class="cls-4" d="M17.07,28.81c1.31.5,2.57,1,3.82,1.46a42.34,42.34,0,0,0,9.18,2.52,42.23,42.23,0,0,0,8.18.43,4.53,4.53,0,0,0,1.25-.28.6.6,0,0,0,.34-.43c0-.24-.23-.29-.44-.32l-4-.42L35,31.72v-.53l2.59-.31,3.87-.47a.6.6,0,0,0,.33-.09A.54.54,0,0,0,42,30c0-.09-.16-.21-.27-.26a.81.81,0,0,0-.35,0l-4.31,0h-.31c-.15-.54-.14-.59.33-.71l4.38-1,1-.2c.27-.06.5-.16.5-.49a.49.49,0,0,0-.53-.49,6.27,6.27,0,0,0-1.06.05c-1.56.17-3.11.35-4.67.51-.19,0-.38,0-.57,0s-.35-.05-.32-.25a.4.4,0,0,1,.22-.27l4.31-1.67c.32-.13.64-.24,1-.39a1.09,1.09,0,0,0,.46-.33A.49.49,0,0,0,41.9,24a.47.47,0,0,0-.37-.23,2.33,2.33,0,0,0-.73.12c-1.87.55-3.75,1.12-5.63,1.66a8.22,8.22,0,0,1-1.32.17l-.05-.1c.15-.18.31-.36.45-.55.48-.64,1-1.28,1.42-1.94.17-.24.33-.55.1-.83s-.56-.15-.83,0a3.33,3.33,0,0,0-.8.4c-1.67,1.19-3.34,2.38-5,3.6a1.92,1.92,0,0,1-1.93.35A48.61,48.61,0,0,1,20.89,24a15.29,15.29,0,0,1-7.35-8.75c-.38-1.05-.63-2.15-.94-3.23a2.73,2.73,0,0,1,0-.32H13l9.17,0c1,0,1.38-.28,1.57-1.27a9.91,9.91,0,0,1,2.36-5A10.3,10.3,0,0,1,34.19,2a10,10,0,0,1,9.28,7.31c.2.69.38,1.38.57,2.07l.1.32h9.38c.53,0,.8.28.77.81-.06.91-.14,1.82-.26,2.72-.32,2.35-.61,4.7-1,7a37.25,37.25,0,0,1-3.74,10.93,15.4,15.4,0,0,1-6.63,6.45,24.82,24.82,0,0,1-4.1,1.67,3,3,0,0,1-2.76-.51q-2.39-1.7-4.8-3.35A3.32,3.32,0,0,0,29.9,37c-.49-.12-.68.12-.53.61a4.89,4.89,0,0,0,1.06,1.67l.93,1.05,0,.11a7,7,0,0,1-1.22-.09c-1.79-.45-3.58-.95-5.37-1.41a3.88,3.88,0,0,0-1-.09.49.49,0,0,0-.37.24c0,.08.07.29.17.36a3.6,3.6,0,0,0,.81.46c1.29.48,2.6.94,3.9,1.41.3.12.59.28.9.41s.35.28.16.61c-.63,0-1.3-.06-2-.12-1.19-.11-2.39-.25-3.58-.35a3.9,3.9,0,0,0-1,.12c-.12,0-.29.17-.3.27a.46.46,0,0,0,.26.32,9.88,9.88,0,0,0,1.4.44c1.24.25,2.48.48,3.73.7a.82.82,0,0,1,.69.71H23.86c-.21,0-.43,0-.43.27a.65.65,0,0,0,.26.49,4.32,4.32,0,0,0,1.17.32c1.75.17,3.5.3,5.25.45a.5.5,0,0,1,.13,0c.1.27.07.42-.25.54a8.85,8.85,0,0,1-2.55.48c-.4,0-.8.09-1.21.14a.48.48,0,0,0-.27.09c-.11.11-.27.25-.28.38A.46.46,0,0,0,26,48a3.25,3.25,0,0,0,1.06.23,49.09,49.09,0,0,0,6.74-.42,45.11,45.11,0,0,0,11-3.06c1.33-.57,2.62-1.22,3.93-1.82l1.59-.73c1.33,4.41,2.64,8.76,4,13.15H12.6l4.47-26.52M40,11.62a3.82,3.82,0,0,0-.24-1.73A6.31,6.31,0,0,0,31.3,6.26a5.72,5.72,0,0,0-3.82,5c0,.4,0,.41.39.41H40Z" transform="translate(0 -2)"/><polygon class="cls-2" points="0.2 39.58 0.2 36.59 4.13 36.59 8.06 36.59 8.06 33.13 0.21 33.13 0.21 30.07 18.6 30.07 18.6 33.12 10.72 33.12 10.72 36.57 18.61 36.57 18.61 39.58 0.2 39.58"/><path class="cls-2" d="M9.39,27.32c-1.7,0-3.41,0-5.11,0A5.44,5.44,0,0,1,2.63,27,3.72,3.72,0,0,1,0,23.48a8.41,8.41,0,0,1,.15-2.35,3.75,3.75,0,0,1,3.47-2.94c.49,0,1-.06,1.46-.06,3,0,6.06,0,9.09,0a7,7,0,0,1,1.76.23,3.79,3.79,0,0,1,2.81,3.41,7.35,7.35,0,0,1-.12,2.52,3.81,3.81,0,0,1-3.4,2.95c-.41,0-.83.06-1.24.07Zm0-3h0c1.69,0,3.39,0,5.08,0,1.11,0,1.63-.45,1.74-1.43A1.44,1.44,0,0,0,15,21.2a4.6,4.6,0,0,0-.74-.05H4.6a4.68,4.68,0,0,0-.74.05,1.35,1.35,0,0,0-1.25,1.48,1.37,1.37,0,0,0,1.21,1.57,5.12,5.12,0,0,0,.78.06Z" transform="translate(0 -2)"/><path class="cls-2" d="M18.61,13.39H.23a.2.2,0,0,1,0-.08c0-1.82,0-3.65.09-5.47a3.48,3.48,0,0,1,3.4-3.32,37.37,37.37,0,0,1,4.49,0A3.57,3.57,0,0,1,11.6,7.87c.07.69.06,1.39.08,2.08v.42h6.93Zm-15.75-3h6.2V8.73A1.16,1.16,0,0,0,8,7.52c-1.36,0-2.71,0-4.07,0a1,1,0,0,0-1,1A16.59,16.59,0,0,0,2.86,10.35Z" transform="translate(0 -2)"/><path class="cls-2" d="M5.29,46.11V49c-.42,0-.83,0-1.24,0a1.5,1.5,0,0,0-1.27,2.3A1.43,1.43,0,0,0,4.06,52,3.54,3.54,0,0,0,7,50.93c.62-.6,1.21-1.24,1.79-1.89a9.54,9.54,0,0,1,2.9-2.38,6,6,0,0,1,4.82-.14,3.61,3.61,0,0,1,2.28,3.16,6.74,6.74,0,0,1-.11,2.45A3.61,3.61,0,0,1,15.57,55a24.62,24.62,0,0,1-2.62.2V52.28h.88c.29,0,.57,0,.85,0A1.39,1.39,0,0,0,16,51.5a1.85,1.85,0,0,0-.11-1.78,1.41,1.41,0,0,0-1.14-.57,3.62,3.62,0,0,0-3.07,1.2c-.7.69-1.35,1.44-2,2.16A8,8,0,0,1,7,54.57a6,6,0,0,1-4.8,0A3.49,3.49,0,0,1,0,51.35a7.8,7.8,0,0,1,.11-2.16,3.6,3.6,0,0,1,3.34-3c.59-.07,1.18-.07,1.81-.11" transform="translate(0 -2)"/><path class="cls-1" d="M20.57,16.48c.19-.23.36-.43.52-.64s.27-.31.4-.47a.65.65,0,0,1,.67-.19c.05,0,.1.1.13.17a.44.44,0,0,1,0,.2v2.16a.44.44,0,0,1-.45.47.41.41,0,0,1-.43-.41c0-.29,0-.58,0-.87h0l-.07.08-.83,1a.47.47,0,0,1-.52.19.48.48,0,0,1-.31-.48v-1.4c0-.3,0-.6,0-.89,0-.11,0-.21.14-.21a2.9,2.9,0,0,1,.51,0,.31.31,0,0,1,.27.31c0,.27,0,.54,0,.82v.16" transform="translate(0 -2)"/><path class="cls-1" d="M49.72,16.45c.29-.35.58-.69.86-1a.69.69,0,0,1,.68-.23c.06,0,.11.08.14.13a.25.25,0,0,1,0,.15v2.3a.4.4,0,0,1-.23.38.43.43,0,0,1-.46,0,.48.48,0,0,1-.19-.39v-.85l-.48.57c-.15.18-.3.37-.46.55a.45.45,0,0,1-.51.18.47.47,0,0,1-.3-.48V16c0-.19,0-.39,0-.58s0-.22.19-.23h.36a.37.37,0,0,1,.38.39c0,.25,0,.5,0,.76v.12h0" transform="translate(0 -2)"/><path class="cls-1" d="M18.48,16.56a.82.82,0,0,1,.2,1,.94.94,0,0,1-.87.62c-.32,0-.64,0-1,0a.44.44,0,0,1-.41-.47c0-.63,0-1.27,0-1.9,0-.14,0-.27,0-.4s0-.24.14-.24a9.32,9.32,0,0,1,1.4,0,.85.85,0,0,1,.64,1.17,1.12,1.12,0,0,1-.1.18m-1.16.79h.39a.18.18,0,0,0,.16-.21.17.17,0,0,0-.18-.18c-.12,0-.24,0-.37,0Zm0-1.07h.29a.18.18,0,0,0,.17-.17.17.17,0,0,0-.16-.18h-.3Z" transform="translate(0 -2)"/><path class="cls-1" d="M40.49,17.18H40v.54a.45.45,0,0,1-.69.39.46.46,0,0,1-.21-.42V15.87a3,3,0,0,0,0-.42c0-.22,0-.28.24-.28a1,1,0,0,1,.3,0,.42.42,0,0,1,.39.47v.62h.53v-.76s0-.06,0-.09c0-.19,0-.25.23-.25a1.71,1.71,0,0,1,.39,0,.36.36,0,0,1,.31.39c0,.72,0,1.44,0,2.15a.44.44,0,0,1-.43.44.45.45,0,0,1-.47-.44v-.56" transform="translate(0 -2)"/><path class="cls-1" d="M33.72,15.93v.31c.19,0,.37,0,.55,0a1,1,0,0,1,.86.67,1,1,0,0,1-.74,1.2,1.24,1.24,0,0,1-.27,0h-.77a.46.46,0,0,1-.52-.53c0-.49,0-1,0-1.46,0-.27,0-.53,0-.8s0-.22.18-.22h1.6a.36.36,0,0,1,.35.39.37.37,0,0,1-.37.37h-.84m0,1.44c.15,0,.28,0,.41,0a.17.17,0,0,0,.14-.21A.18.18,0,0,0,34.1,17c-.12,0-.25,0-.38,0Z" transform="translate(0 -2)"/><path class="cls-1" d="M46.47,15.78c.06-.1.11-.2.17-.29a.78.78,0,0,1,1-.28.39.39,0,0,1,.27.45.43.43,0,0,1-.41.37.29.29,0,0,0-.19,0,1.41,1.41,0,0,0-.18.29s0,.07,0,.1l.6,1a.44.44,0,0,1,.06.43.42.42,0,0,1-.36.28A.38.38,0,0,1,47,18c-.17-.26-.32-.53-.48-.8L46.46,17a.62.62,0,0,0,0,.12c0,.19,0,.37,0,.56a.44.44,0,0,1-.45.47.46.46,0,0,1-.45-.48c0-.6,0-1.2,0-1.8a4.19,4.19,0,0,0,0-.5c0-.2,0-.26.22-.27a1.54,1.54,0,0,1,.37,0,.4.4,0,0,1,.34.43,1.2,1.2,0,0,1,0,.19Z" transform="translate(0 -2)"/><path class="cls-1" d="M37,16v.25h.33a.42.42,0,0,1,.45.42.41.41,0,0,1-.45.4H37v.2h.7a.41.41,0,0,1,.4.45.43.43,0,0,1-.42.44H36.52a.44.44,0,0,1-.42-.49V16.07c0-.22,0-.43,0-.65s0-.25.18-.25h1.5a.41.41,0,0,1,.36.43.38.38,0,0,1-.37.4H37" transform="translate(0 -2)"/><path class="cls-1" d="M30.84,16.26h.35a.43.43,0,0,1,.43.42.4.4,0,0,1-.43.4c-.11,0-.23,0-.35,0v.19h.66a.45.45,0,0,1,.45.45.44.44,0,0,1-.45.45H30.41a.44.44,0,0,1-.48-.48V16.22c0-.27,0-.54,0-.81s0-.24.18-.24h1.49a.4.4,0,0,1,.36.43.38.38,0,0,1-.37.4h-.72Z" transform="translate(0 -2)"/><path class="cls-1" d="M27.56,17.35v.35a.43.43,0,0,1-.45.48.44.44,0,0,1-.44-.49V15.88c0-.17,0-.35,0-.51s0-.23.16-.23a8.32,8.32,0,0,1,1.32,0A1.08,1.08,0,0,1,29,16.26a1.11,1.11,0,0,1-1,1l-.46,0m0-1.42v.65l.25,0a.28.28,0,0,0,.3-.29.34.34,0,0,0-.31-.34Z" transform="translate(0 -2)"/><path class="cls-1" d="M43.27,15.91l.49,0a1.14,1.14,0,0,1,.93.95,1.12,1.12,0,0,1-.81,1.17,1.43,1.43,0,0,1-.37.06c-.29,0-.58,0-.87,0s-.25-.06-.26-.24,0-.26,0-.4c0-.54,0-1.09,0-1.64,0-.11,0-.23,0-.35s0-.28.23-.28a1.51,1.51,0,0,1,.3,0,.42.42,0,0,1,.4.46v.21m0,1.41c.19,0,.37,0,.49-.14a.28.28,0,0,0,0-.35c-.12-.17-.3-.14-.49-.13Z" transform="translate(0 -2)"/><path class="cls-1" d="M24,16.06h-.44a.43.43,0,0,1-.45-.44.45.45,0,0,1,.44-.45h1.78a.45.45,0,0,1,.45.45.45.45,0,0,1-.45.45h-.42c0,.05,0,.09,0,.13,0,.52,0,1,0,1.56a.44.44,0,1,1-.88,0c0-.5,0-1,0-1.5v-.16" transform="translate(0 -2)"/></svg>