<svg id="_19" data-name="19" xmlns="http://www.w3.org/2000/svg" xmlns:xlink="http://www.w3.org/1999/xlink" viewBox="0 0 800 409"><defs><style>.cls-1{fill:none;}.cls-2{clip-path:url(#clip-path);}.cls-3{fill:url(#Безымянный_градиент_109);}.cls-4{fill:url(#Безымянный_градиент_111);}.cls-5{fill:url(#Безымянный_градиент_111-2);}.cls-6{fill:url(#Безымянный_градиент_111-3);}.cls-7{fill:url(#Безымянный_градиент_111-4);}.cls-8{fill:url(#Безымянный_градиент_111-5);}.cls-9{fill:url(#Безымянный_градиент_111-6);}.cls-10{fill:url(#Безымянный_градиент_111-7);}.cls-11{fill:url(#Безымянный_градиент_111-8);}.cls-12{fill:url(#Безымянный_градиент_111-9);}.cls-13{fill:url(#Безымянный_градиент_111-10);}.cls-14{fill:url(#Безымянный_градиент_111-11);}.cls-15{fill:url(#Безымянный_градиент_111-12);}.cls-16{fill:url(#Безымянный_градиент_111-13);}.cls-17{fill:url(#Безымянный_градиент_111-14);}.cls-18{fill:url(#Безымянный_градиент_111-15);}.cls-19{fill:url(#Безымянный_градиент_111-16);}.cls-20{fill:url(#Безымянный_градиент_111-17);}.cls-21{fill:url(#Безымянный_градиент_111-18);}.cls-22{fill:url(#Безымянный_градиент_111-19);}.cls-23{fill:url(#Безымянный_градиент_111-20);}.cls-24{fill:url(#Безымянный_градиент_111-21);}.cls-25{fill:url(#Безымянный_градиент_111-22);}.cls-26{fill:url(#Безымянный_градиент_111-23);}</style><clipPath id="clip-path"><rect class="cls-1" y="0.49" width="800" height="408.51"/></clipPath><linearGradient id="Безымянный_градиент_109" x1="0.03" y1="732.16" x2="59.54" y2="51.97" gradientUnits="userSpaceOnUse"><stop offset="0.51" stop-color="#42210b" stop-opacity="0"/><stop offset="0.8" stop-color="#001f26"/></linearGradient><linearGradient id="Безымянный_градиент_111" x1="510.21" y1="473.84" x2="510.21" y2="-77.94" gradientUnits="userSpaceOnUse"><stop offset="0.12" stop-color="#42210b" stop-opacity="0"/><stop offset="0.68" stop-color="#001f26"/></linearGradient><linearGradient id="Безымянный_градиент_111-2" x1="525.45" y1="461.3" x2="525.45" y2="-92.49" xlink:href="#Безымянный_градиент_111"/><linearGradient id="Безымянный_градиент_111-3" x1="542.53" y1="448.83" x2="542.53" y2="-103.2" xlink:href="#Безымянный_градиент_111"/><linearGradient id="Безымянный_градиент_111-4" x1="560.42" y1="436.77" x2="560.42" y2="-110.32" xlink:href="#Безымянный_градиент_111"/><linearGradient id="Безымянный_градиент_111-5" x1="579.66" y1="425.37" x2="579.66" y2="-116.19" xlink:href="#Безымянный_градиент_111"/><linearGradient id="Безымянный_градиент_111-6" x1="598.45" y1="415.06" x2="598.45" y2="-119.81" xlink:href="#Безымянный_градиент_111"/><linearGradient id="Безымянный_градиент_111-7" x1="617.33" y1="406.02" x2="617.33" y2="-120.34" xlink:href="#Безымянный_градиент_111"/><linearGradient id="Безымянный_градиент_111-8" x1="632.97" y1="398.35" x2="632.97" y2="-121.62" xlink:href="#Безымянный_градиент_111"/><linearGradient id="Безымянный_градиент_111-9" x1="657.25" y1="392.13" x2="657.25" y2="-124.36" xlink:href="#Безымянный_градиент_111"/><linearGradient id="Безымянный_градиент_111-10" x1="672" y1="387.03" x2="672" y2="-129.14" xlink:href="#Безымянный_градиент_111"/><linearGradient id="Безымянный_градиент_111-11" x1="676.39" y1="382.6" x2="676.39" y2="-138.15" xlink:href="#Безымянный_градиент_111"/><linearGradient id="Безымянный_градиент_111-12" x1="677.65" y1="378.27" x2="677.65" y2="-147.5" xlink:href="#Безымянный_градиент_111"/><linearGradient id="Безымянный_градиент_111-13" x1="679.42" y1="373.36" x2="679.42" y2="-159.42" xlink:href="#Безымянный_градиент_111"/><linearGradient id="Безымянный_градиент_111-14" x1="687.22" y1="367.11" x2="687.22" y2="-172.41" xlink:href="#Безымянный_градиент_111"/><linearGradient id="Безымянный_градиент_111-15" x1="696.01" y1="359.28" x2="696.01" y2="-185.17" xlink:href="#Безымянный_градиент_111"/><linearGradient id="Безымянный_градиент_111-16" x1="706.1" y1="349.92" x2="706.1" y2="-198.64" xlink:href="#Безымянный_градиент_111"/><linearGradient id="Безымянный_градиент_111-17" x1="717.26" y1="338.95" x2="717.26" y2="-211.85" xlink:href="#Безымянный_градиент_111"/><linearGradient id="Безымянный_градиент_111-18" x1="730.02" y1="326.34" x2="730.02" y2="-222.81" xlink:href="#Безымянный_градиент_111"/><linearGradient id="Безымянный_градиент_111-19" x1="743.13" y1="312.4" x2="743.13" y2="-234.28" xlink:href="#Безымянный_градиент_111"/><linearGradient id="Безымянный_градиент_111-20" x1="757.09" y1="297.93" x2="757.09" y2="-245.59" xlink:href="#Безымянный_градиент_111"/><linearGradient id="Безымянный_градиент_111-21" x1="770.52" y1="283.37" x2="770.52" y2="-256.29" xlink:href="#Безымянный_градиент_111"/><linearGradient id="Безымянный_градиент_111-22" x1="783.7" y1="268.96" x2="783.7" y2="-266.98" xlink:href="#Безымянный_градиент_111"/><linearGradient id="Безымянный_градиент_111-23" x1="796.77" y1="254.81" x2="796.77" y2="-277.68" xlink:href="#Безымянный_градиент_111"/></defs><g class="cls-2"><path class="cls-3" d="M156.73,745.87c-24.11-16.33-47.89-33.08-71.07-50.38-11.59-8.65-23-17.44-34.57-26.41-65.56-51.53-135.68-96.7-205.32-144.67C-225.83,474.85-289,395.18-260.59,330.35c13.9-31.37,52.2-43.45,95.52-44.42,6.45-.47,12-4.21,9.07-9.81-12.78-26.38-50.35-34.11-78.9-36.4-45.77-4.23-84.58,1.06-129.26,4.75-10.75.78-20.72.92-31.19.66,35.47-13.76,83.1-8.65,127.87-11.61a204.93,204.93,0,0,1,65.24,6.73c25.63,6.28,50.4,18.86,61.6,40.13,3.43,6,1.7,15.42-8.08,13.81-56-8.72-106.95,8.93-114.57,54.37C-275.73,418.77-207.61,487.18-135.53,534-61.59,581.6,9.12,627.89,75.52,681.14Q95.7,696.89,116.57,712t42.3,29.5ZM164,729.29q-21.6-13.9-42.15-28.64T81.68,670.36C24.37,625-35.28,586.52-102,547.35c-83.23-48.87-167.69-119.15-153.8-197.74,3.68-17.41,14.5-30.25,31-39.73,24.22-13.38,57.57-7.82,87.34,9.49,7.15,4.56,16.54,6.5,23,2.83,5.56-3.74,6.91-9.65,6.9-16-1.13-23.89-22-46.06-48.35-60.56a154.92,154.92,0,0,0-60.87-19.11c-53-6.32-109.24-10.8-153,2.55,69.82-1,145.94-19.18,217.52,24,21.84,13.37,44.49,38.9,29.47,56-3,3.27-9,4.14-13.58,2.29-47-19.25-101.53-14.7-115.23,21.3C-295,445.74-125.16,536.68-14.3,606.21c27.12,17.06,51.32,34.91,76.19,54,11.26,8.64,22,17.09,33,25.39q32.72,24.9,67.39,48Zm4.27-12q-20.79-13.07-40-27.29c-12.84-9.47-25.22-19.29-37.95-29.39C34.71,615-28.35,580.06-94.24,543.45c-82-45.91-170.52-117.64-153.2-193.42,5.41-26.84,39.08-50.35,76.48-31.27,16.84,8.65,25.49,27.2,47,32,16.15,3.62,28-5.23,32.62-15.45,13.81-32.09-14-72.64-54-95.15-19.28-10.66-38.37-16.68-59.3-20.39-46.86-8.94-95.47-14.86-135.34-4.69,62.38-1.34,130-5.39,193,28.83,23,12.42,40.16,29.62,48.23,50.25,6.3,17.26,7.13,35.8-8.49,45.36-9.67,5.5-25.91,1.16-34.44-7.09-21.17-21.12-53.85-31.24-77.88-19.62-18.26,9.32-29.77,23.52-31.48,42.53C-262.9,467.52-116,534-10.22,594.87,30.8,618.18,65,645.48,99.27,673.4q16,12.79,32.9,24.82t34.58,23.37Zm4-11.51q-14.1-9.44-27.69-19.33T117.91,666C85,639.52,53.18,613.51,13.73,592.11c-97.62-52.32-215.45-96.93-252.65-196.21-8.37-22.78-4.8-44.11,9-60.22,7.9-8.86,19.62-15.23,36.25-11.21,20.64,4.75,21.76,22.24,32.94,33.93,17.15,17.2,45.22,19.08,63.19,10.8,33-15.76,30.67-54.67,12.11-85.14C-127.7,213.77-236,197.38-308.52,203.81c78.22.13,191.58,12.38,225,93.92,11.71,28.06,9.74,64.08-28.38,68-27.86,2.75-47.47-19.65-64-38.22-10.29-11.6-29.65-10.19-42-4.94-25.78,11.47-31.39,36.86-26.25,61.48,12.76,60.81,72,109.24,136.66,146.09,80.19,45.75,161,83,225.36,142.31,8.38,6.59,17,12.95,25.78,19.16s17.8,12.28,27,18.27Zm4.44-10.72q-13.26-8.57-25.51-17.9c-8.17-6.21-16.06-12.66-24-19.26C70.37,605.87-2.46,572.51-74.31,536.77c-63.44-31.42-125.43-71.23-152.56-129.11-11.69-24.86-14.89-54.27,10.2-67.57,6.94-3.26,19.26-2.12,24.17,5.07,9.81,14.4,10,34.29,29.24,41.75,39.44,15,87.92,7.41,99.67-23.8,15.65-40.8-3.45-94-56.53-125.92-47.88-28.92-105-43.07-155.07-40.59,52.32,4.48,107.78,12.79,155.47,43.47,54.94,36,78.88,108.45,32.12,137.86-16,9.88-40.46,12.23-63.26,4.45-18.69-6.34-29-21.14-33.23-36.08-3.26-10.95-17.74-15.13-28.29-12.91-7.14,1.82-13.58,5.49-16.69,11.23-34.77,59.62,42.36,133.49,113.45,173.07,84.2,46.47,172.77,80.56,239.47,143.38,8.06,6.72,16.17,13.27,24.62,19.59s17.24,12.39,26.44,18.19Zm5.63-9.64a299.54,299.54,0,0,1-26.33-18.59c-69.94-70.57-167-106.51-258.75-154-58.55-30.61-115.67-76-123.33-131.37-.9-6.47,1-12,4.16-17,3.71-4.63,13.28-7.65,17.5-2.29C-176.64,397-144.08,434.48-95,444c-12.73-7.21-34-25.86-14.45-29,76.24-11.06,82.62-84.31,42.29-140.22-38.06-52.14-113.81-78.31-177-82.73,62.6,9.69,136.28,30.34,172.29,83.37,24.34,34.55,30.79,74.9,11.89,104.75-13.15,21.15-43.65,23.66-69,31.6-5,1.67-9,7.34-11.23,6.78-32.19-9.72-41.94-39.38-58.91-61.53-3.63-4.24-11.95-7.85-17.72-5.54-6.15,2.62-10.34,6.85-11.7,12.76-5.11,29,10.41,59.53,35.8,86,61.47,64.25,149,93.63,229.82,134.82,44.83,22.6,79.62,54.21,116,84.59a317.23,317.23,0,0,0,27,19.18Zm7.33-8.44a279,279,0,0,1-26.1-19C93.3,586.33-6,553-98.44,506.85-149.35,481.2-200,444.93-212.82,396.18c-1-4-.21-7.83,3.89-9.58a8.06,8.06,0,0,1,6.26,1.29c88.5,83.78,243.73,106.64,318.28,42.53-3.13-.64-5,1.67-7,2.55C56.42,458-14,469.92-77.78,436.34c-8.91-4.73.16-11.34,5.54-13.33,67.6-23.22,51.58-98.18,12.54-151.13-34.14-45.75-98.06-74.37-155.08-81.42,57.82,12.8,122,37.19,154.31,85.25,36,53,39.79,121.18-21.55,145.69-5.38,2-11.42,8.53-6.62,11.81C-50.34,462,2.26,459,45.18,458.35c-80.71,22.72-185.71-10.77-249.43-78.77-2.55-2.72-7.44-3.53-9.78-1.62-4.4,2.79-5.36,8.38-4.27,13.1,6.62,29,27.51,54.37,53.57,76.3,56.82,46.42,128.27,72.9,196.79,103.37,49.53,22,88,55.35,126.31,89a247,247,0,0,0,28.36,20.22Zm9.39-7.17A271.84,271.84,0,0,1,173,650.64c-61-63.64-148.26-98-232.63-133.1-48.45-20.45-102.69-48.18-123.14-92.31-1.67-2.64,5.38-2,8.22-.31C-97,464-10.89,483.34,63,464.61c62.54-15.88,97.34-59.52,141.85-92.68-16.64-7.22-31.09,1.39-41,8.64-31.72,25.12-59.71,55.19-107,65-31.66,6.66-75.55,12.9-107.67-8.89C-28.74,417.09-1.9,397.56-7,364.08c-12.22-78.87-87.8-160.4-186.79-175.58C-94,209.43-18.5,287.05-14.2,368.38c1.35,31.72-26.38,48-44.91,67.91,17,15.77,45.12,15.17,66.53,16.09,74.42,4,115.48-38.32,162.83-69.8A14.68,14.68,0,0,1,182,379.4c-33.83,41.25-77.74,78.73-144.21,88.21-70.38,9.47-148.35-7.67-213.77-50.28-4.8-3.28-10.09-7-15.66-6.42-8.11,1-1.93,11.18,1.8,16.14,20.41,31.35,53.33,55.69,90.23,74.37,56.1,28.61,112.37,49.07,168.37,77,39.65,19.64,69.64,48,101.18,74.72a307.52,307.52,0,0,0,25.41,19.18Zm11.74-5.93a208.39,208.39,0,0,1-29.66-21.48C121.14,574,28.57,545.56-57.17,510c-29.07-12.27-60.1-26.14-77.37-50.45-2.16-3,5.38-2,8.12-1,95.3,26.2,189.56,26,255.16-18,33-22.15,57.16-57.91,110-56.22,3-.08,7.72-.71,7-2.55-8.35-16.39-33.61-29.37-52-24-35.56,9.85-51,39.3-78.47,57.71C81.4,437.56,37.93,453.07-13.72,444c-7.53-1-13.22-7.61-7.65-11.35C33.49,395.86,6.92,326.31-35.75,272.32c-34.13-42.56-86.31-71.16-142.38-87-.88-.08.2,1.44-.68,1.36,48.64,15.49,96,37.62,129.55,75.86,50,56.8,81.09,133.87,16.74,171.23-5.17,3.43,3.74,8.15,8.73,9.68,20.35,5.78,38.54,5.33,57.89,3.93,67.85-5.8,99.23-49.05,142.76-79.82,9.08-6.61,23.74-10.59,37.54-5.05,7.34,2.81,23.2,10.66,18.61,12-51.59,16.54-80.55,52.2-125.86,76.41-70.5,36.8-164.79,27.38-253.35-3.52-6.36-2-7.33,3.58-2.82,7.9,42.05,43.29,102.14,63,159,84.62,64.69,24.79,123,59.64,169.49,106.59a232.83,232.83,0,0,0,26.74,19.41Zm14.09-5.09a372.13,372.13,0,0,1-44.29-34.16c-25-18.75-43.52-42.82-73.48-58.37C47.62,535.61-19.68,526.55-72.38,488c-3.43-2.8,1.46-5.19,4.49-5.27,107.19,11.68,189.73-22.94,254.24-74.84,16.88-13,41.91-14.23,69.4-7.08,7.24,2.09,13.39-3.73,10.83-9.65-8.65-18.54-30.68-33.36-53.48-37.95-19.17-3.55-32.84,4.42-43.87,12.63-21.38,15.07-37.95,33.41-59.33,48.48C87.25,429.58,61.27,439.6,28,441.15c-8.61.62-26.5,0-24.27-5.79,11.76-31.22,30.65-61.07,13.94-100.24-31.17-71.39-104.65-131.43-190-154.57,91,29.7,166.35,93.81,190.3,172.7,9.76,32.85-6.51,56.55-24.54,80.09-3.31,4.31,6.28,7.68,11.17,8.49,32,5.08,58.76-2.38,83.27-13.61,28.23-12.65,46.47-31.56,66.47-50.3,15-13.88,33.47-28.15,61.74-21.63,19.28,4.27,38.07,14.52,45.06,30.43,1.37,3.68-.67,7.75-4.68,7-27.2-5-50,0-68.91,10.68-34.56,20.23-61.39,46.15-101.05,60.95C34.49,484.7-25.26,483.08-88.15,474.43c-4.4-.41-11.93,1.74-7,5.74,20.77,18.25,48.67,28.28,75,39.59,51.29,22.13,109.4,33.89,152.11,69.43,14.31,12.32,28.13,24.25,42.6,36.25a468.08,468.08,0,0,0,44.93,35.16Zm16.4-4.71a337.52,337.52,0,0,1-41.47-30.8c-14.76-11.84-27-25-40.54-38-33.61-32.57-83.11-41.76-126-59.56-15.17-6-33.57-10.2-40.93-22.6-4.41-6.8,9.27-8.37,16.11-9.16,67.84-9,119.69-36.15,165.37-70.27,22.45-16.74,55.11-16.21,89-10.24,13.79,2.34,16.88-13,9.33-23.64-11.49-17-27.76-34.15-50.94-38.42-52.73-10.56-73.07,30.87-102.25,52.32-13,9.8-26,19.61-43.06,24.77-14.56,4.69-31.36,12-49.47,3.6-1.37-.48-2.06-2.32-1.67-2.64,25.89-51.57,9.11-116.3-45.09-168.88-41.76-41.13-94.72-69.1-152.17-88.6-.49-.4.2,1.44.69,1.84C-84.41,203.22-7.52,259.66,24.93,334c15.34,35.5,8,67.12-9,95.37-2.82,4.71,7.55,7.45,12.83,7.93C55.5,438.71,76,430,96.32,419.77c29.2-15,46.94-37.55,71.34-55.89,13.08-9.08,29.29-17.53,50.92-12,21.23,5.87,40.72,18,50.83,34.52,3.43,6,4.72,12.15,2.88,17.65s-9.37,7.66-15.73,5.65c-28.77-10.11-56.14-7-74.3,6.27-57.49,43-122.83,73.14-212.09,78-3,.07-5.27,2.71-2.72,5.43,7.64,8.16,19,11.69,29.17,16.18C50.55,538,111.7,549.69,154,588.74c13.43,12.25,26.07,25.13,41,37.09a339.44,339.44,0,0,0,40,30Zm18.48-4.92a254.29,254.29,0,0,1-33.84-24.47C176.09,572.32,111.47,538.67,40.9,509.07c-3.23-1.36-.89-6.47,2.43-7.58,52.46-19.65,96.2-45.78,141-73.59,19.24-11.71,46.33-7.44,72.94-3.56,15.06,2.1,25.89-7.55,25.08-19.69-1.33-22.13-25.52-40-48.43-51.69-21.44-10.5-44.71-9.1-60.72.78-39.93,25.42-62.22,68.45-121,74-6.94.07-12.82-4.73-11-10.24C83.45,314.21-44,199.85-176.42,163.12c0,0,2.35,1.29,2.06,2.32C-82.28,196.67,9.19,254.82,39.12,339.23c10.83,31.17,6.69,57.77-5,83.31-1.46,2,.8,5.76,4.42,6.8,33.35,5.57,54.82-12,75.52-25.68,25.09-16.5,39.7-39.64,69.1-53.25C215.51,336,256.44,361.79,275,389.06c3.92,6.4,7,12.71,5.23,18.94-1.94,8-10,15.4-19.53,12.75-50.58-13.9-85.84,4.5-114.43,27.06-32.89,26.07-77.64,38.62-121.71,53-8.3,2.78-3.3,10.7,4.53,13.91,43.76,17.88,91.2,27.94,128.23,56.92,22.44,17.7,41.75,37.94,63.31,56.61A213.63,213.63,0,0,0,252.81,651Zm20.19-5.79c-13.29-7.35-27.78-14.72-37.48-25.2-39.13-47.28-95.15-81.56-156.81-106.43-10.57-4.17-1.4-13.26,4.66-16.61,28.32-15.13,54.87-30.43,78.88-48.44,20.89-15.47,50.71-16.62,82.5-13,15.84,1.46,31.57-4.18,33.69-17.12,3.38-19.57-12.71-41.64-32.21-56.93-14.59-11.29-34.07-20.19-52.06-18.3-47.61,4.47-61.5,42.24-94.79,62.24-12,7.41-32,23-49.46,10C87.14,303.2-45.82,190.1-182.31,151.93c-.89-.08,2.54,2.72,2.54,2.72C-45.12,195.13,85.69,308.39,52.12,417.46c-1,2.39,4.12,4.64,7.64,5,26.2-2.19,42.1-16,60.07-27.46,29.38-20,47.85-62.31,101-48.89,32.88,8.36,59.15,34.93,64.1,61.3,2.57,12.31-8.55,23-23.81,22.65-29.52.11-60.54-7.37-82.41,7.3-31.92,20.48-61.4,39.76-97.64,57.36-6.93,3.26-17.58,8-12.57,15.88,3.34,5.27,9.8,8,16.16,10,48.54,18,99,37.55,128.18,78.58,5.4,7.59,14.12,14.08,21.49,20.55a227.62,227.62,0,0,0,38.12,25.94Zm21.43-7.3c-11.75-6.61-23.68-13.57-34.44-21.54s-20.41-16.91-27.9-27.31c-24.9-35.57-68-58-111.13-74.77-7.83-3.21-10.2-10.88-6.49-15.51,30-31,68-58,125.8-54.76,31.59,2.21,52.65-21.4,39-47.87-13.17-26.06-41.77-47.52-75.23-53.81-26.31-4.91-44.08,8-59.79,20-22.84,17.06-40.84,53.38-79.78,45.17-3.13-.65-3.92-6.4-3.54-9.92C85.91,278.59-59.44,179.61-187.92,139.7c1.08,1.52.89,3.27,2.26,3.76C-56.1,184.89,85.92,285,64.11,400.46c-.88,3.12-.18,8.15,4.81,9.68,18.59,5.62,31.66-6.66,43.18-14.47,27.14-17.37,42.23-46.51,78.49-54.52,38.4-8.17,82,24.26,96.54,57.2,10.52,22.62-8.8,40-35.09,41.48-25,1.24-51.06-4.71-69.8,7.4-27,18.09-63.09,30.73-76.13,59-.58,2.08,2.07,5.52,5.79,7.28,35.53,15,74.08,26.72,100.65,55.45,15.3,16.32,26.68,32.63,44.85,46.61a247.23,247.23,0,0,0,36.1,23.36Zm21.76-8.78c-11.59-5.64-23.16-11.74-33.37-18.88s-19.06-15.32-25.2-25.11c-20.21-33.12-58-58.26-97.08-76.78-4.6-1.84-9-5.45-9.11-9.36-.44-18.85,18.5-29.53,36.38-35.33,23.74-7.39,49.84-10.31,74.08-17.3,11.62-3.89,21.58-10.43,23-22,4.31-37.94-36.57-82.18-85.58-87.78-23.86-2.91-40.16,8-54.71,19.09C131.4,368.7,119,392.4,89.62,396.43c-6.36,1.19-9.5-5.85-9.71-10.48-.19-120.71-142.2-214.41-271.67-258.32.2,1.44,1,4,1.87,4.08,134.75,44.39,273,142,267.77,264.7,0,3.2,5.1,5.44,8.42,4.33,35.18-9.53,52.12-37.78,80.15-55.08,14.84-8.92,33.89-12.48,54.84-5.58C254.56,351.32,283.17,376,291,404c11.74,44-50.44,43.61-87.78,50.1-25.9,4.35-43.37,19.43-57.5,36.58-3.61,5.34-2.9,13.57,5.42,17.18,40.72,18,79.49,40.71,102.34,74.85,6.79,10.49,16,19.59,26.62,27.5a200.31,200.31,0,0,0,35.18,20.43Zm21.44-10.25c-20.23-9-36.45-21.54-50.18-35.82a244.89,244.89,0,0,1-18.95-22.49c-13.83-25-38.8-42.27-67-57.65-10.38-5.93-14.9-16.65-8.37-22.79,18.05-17.14,50.22-17,73.76-29,19-10,29.06-28.55,20-50-10.83-28-39.24-51.2-71.73-63.07-52.65-19.42-78.17,22.24-108.82,42.48-4,2.47-8.89,4.86-15,4.29-4.89-.81-7.64-5-8.63-9C78.2,326.51,60.49,280.14,18,239.65c-58.21-56.49-135.15-91.29-210.62-124.88.2,1.43.11,3.91,1.48,4.39C-64.84,168.82,73.63,255.8,85.26,374.37c.6,4.32,1.78,9.75,7.36,12.4,9.2,3.69,16.72-1.65,22.28-5.4,23.83-13.06,35.41-36.13,63.26-45.27,19.93-6.68,45.46-1.13,67.3,12.25,27,16.34,49.37,39.7,49.24,63.83.11,44.74-64.43,43-101.94,60.87-10.93,5.73-17.65,20-1.69,28.6,33.88,18.75,66.39,40.21,83.57,70.2,6.54,11.07,15.85,20.27,26.65,28.24s23.08,14.71,35.56,20.85Zm20.61-11.8c-20.73-10.73-38.69-23.89-53.23-39.24a159.2,159.2,0,0,1-19.17-24.62c-6.73-10.06-10-21-16.17-31.17-5-7.91-17.53-10.49-25.17-18.65-5.59-5.84-8.34-13.2-3.27-17.34,16.39-13.4,38.67-22,47.78-40.42a39.92,39.92,0,0,0,4.84-22.76c-.74-8.13-4.05-16.73-10.6-25.59-21.28-28.24-55.67-57-95-58.47-36.28-1.58-52.46,22.84-74.22,38.22-7.13,5-19.45,3.89-23.49-6.42-17.21-42.77-32.76-82.9-69.61-120C-32,177.18-112.82,142.38-188.79,102l-2.05,4.07C-64.08,161.79,72,244.29,95.51,366.8c2.07,8.71,14.59,8.09,20.54,4,23.63-14.5,37.36-37.73,70.69-41.75,35.88-4.49,73.38,18.49,94.57,46,11.67,15.28,19,30.87,16.93,47-2.75,33.47-50.47,34-68.11,57.25-11.79,15.24,25.09,24.33,37,37.85,8.33,10,12,20.63,19.31,30.83a191.12,191.12,0,0,0,19.32,23.77,182.17,182.17,0,0,0,52.09,37.92ZM384.24,592c-32.34-17.63-65.83-39.9-72.85-71.78-2.27-8.56-3-17-4.81-25.3s-4.68-16.58-11.27-24.77c-2-1.57-1-4-.3-5.35,3.89-12.81,9.36-25.9,10.92-39.38s-.8-27.36-12.57-41.76a189,189,0,0,0-26.13-26.89c-21.8-18-48.72-33.63-77.57-34.87-29.24-.93-45.63,15.66-66.23,26.89-10.06,5.82-19.86-5.38-23.6-13.54C90.69,313.11,80.47,292.64,66,272.48,37.59,234,1.24,200.48-42.35,171.25c-44.95-29.71-91.06-52.08-139.23-79.95-.49-.4-1,2.39-2.63,3,59.93,37.48,126.78,65.31,181.05,109,50,40.82,82.75,89.29,104.09,143.09,3.94,9.59,15.68,12.81,23.3,8.18,22.94-13.14,40.29-35.32,75.8-29.91,28.86,4.44,54,19.9,73.54,38a115.35,115.35,0,0,1,18.83,22.67,84,84,0,0,1,10.9,26.22c2.82,12.51-.92,22.37-6.62,31.57C292,455.24,274,463.51,279.61,478.94c2.06,5.52,10.28,8.41,12.35,13.92,4.13,11,6.41,21.18,11.45,31.87a144.38,144.38,0,0,0,17.44,28.13c14,17.7,32.87,33,56.79,44.08Zm16.69-14.18c-22.06-12.68-46.73-24.54-59-44.13-15.41-23.44-11.26-46.84-14.16-70.89-2.81-29.72-8.65-59.37-33-87.53A206.46,206.46,0,0,0,266.92,349c-40.42-37.19-98.42-41.84-140.41-21.93-5,1.67-12.63-3.3-15.86-7.86-44.06-64.06-93.19-124-170-170.12-38.87-23.47-73.93-44.45-111.24-69.2l-3.9,3.19a254.82,254.82,0,0,0,32,21.06C-40.52,159.35,52.63,223.33,100.08,315c5.4,10.79,20.79,27.83,30.94,19.54,38.16-28.78,104.88-17.64,144,23.05a139.09,139.09,0,0,1,25.39,29.69,102.41,102.41,0,0,1,13.93,35.2c1.19,8.63.52,16.38,2.6,25.09,6.41,24.37,3.24,45.38,8.77,69.67,6.33,30.05,39.92,49.84,69.4,65.71Zm15-14.43c-29.24-14.21-62.44-34.32-66-63.4-5-45.55-6.67-92.21-49.7-133.1a284.82,284.82,0,0,0-29-23.89c-42.39-33.82-94.83-45.41-148.31-42.54-6.94.07-13.61-7.29-17.92-13.37C47.21,209.34-35,149.21-122.12,95.26c-22.56-17-34.56-26.68-34.56-26.68l-4.71,3.85C-149.54,81.12-139,91-125.34,99-26.44,157.45,53.9,223.09,114,306c1.67,2.63,6.76,4.88,9.3,4.4,39.19-5.6,81.53-7.37,119.77,17.36a248,248,0,0,1,33.07,22.44,232,232,0,0,1,29.48,28.16c37.56,42.17,32.09,84.26,38.55,127.81,4.86,28.85,37.46,47.83,66.43,62.39ZM429.83,549c-30-11.38-56.75-32-64.45-59.29-8.68-31.33-8.46-61.13-27.4-91.28-14.49-23.11-34.14-42.64-56.82-59.68a360.61,360.61,0,0,0-36-23.69c-38.14-24.93-82.64-29.4-125.8-43A34.14,34.14,0,0,1,103,260.64c-62.26-70-137.68-122-213.9-176.41-20.83-16.68-32.67-26.35-32.67-26.35l-4.71,3.85s11.85,9.68,33.4,26.51C-37.33,141.54,40.43,194.87,99.37,266c8.93,11.12,21.36,19.37,36.23,20,41.76,3.5,83.34,15.15,119.28,38.9a336.61,336.61,0,0,1,30.49,21.53A270.21,270.21,0,0,1,313,371.63c35,36.24,40.47,75.8,45.06,115.27,3.69,29.8,33.58,54.22,66.81,67.27Zm13.45-14.18C387.84,517,374.82,470,362.21,429.07c-11.06-36.3-34.74-65.88-65.16-91.15A371.34,371.34,0,0,0,264.6,314c-42.86-30.32-93-47-142.39-65.07-6.46-2.73-13-6.17-18-10.9C40.78,178.57-28.08,126.78-98.33,73.44c-20.33-16.59-32.16-26.26-32.16-26.26L-135.21,51s11.83,9.67,32.27,26.28C-36.58,128.12,32.85,174.65,90.3,235c11.18,11.68,25.76,19.77,41.81,25.87,41.6,14.84,83.77,27.62,121,51.37,10.56,6.41,20.94,13.21,31.08,20.53C337.72,371.43,361.8,423,371.61,475c5.74,28.93,34.54,51.82,66.87,64.88Zm13.21-13.88c-31.61-12.6-60.5-33-67.91-61.39-15.34-55.91-53.41-101.05-101.95-139.43-12.14-9.6-24.93-18.78-38.18-27.59-38.2-25.88-80.88-45.45-123.16-65.33C97,214.3,75.14,194.53,53.39,175.48,8.51,136.9-38.71,100.24-85.28,62.73L-117.4,36.49l-4.72,3.85L-90,66.59c51,41.07,103.71,79.67,151.82,122.8C81.24,207.16,101.52,225,127.07,237c43.07,19.25,85.94,37.05,125,62.7q15.64,9.94,30.58,20.72t29,22.73c45.37,39,58,86.3,78.84,133.31,10.23,23.66,36.08,37.76,61.27,49.48Z"/><path class="cls-4" d="M813.54,469.32q-23.19-15.87-45.84-32.4t-44.61-33.73C650.76,345.1,574.3,294.11,494.39,241.58,416.47,190,341.49,116,350.62,43.1c5.44-47.21,57.77-63.78,116.73-52.6,10.31,2,11.6-7.74,7.68-14.14-12.88-22.64-39.46-36.7-66.6-44.2a220.34,220.34,0,0,0-68.55-9.45c-46.63,1.45-96.7-5.65-133,7.42,11,.66,21.37.88,32.56.46,46.49-2.2,86.76-6.3,134.83-.19,30,3.44,69.66,12.9,84.47,40.95,3.39,6-2.22,9.66-8.94,9.92-45.21-.59-84.57,10.62-97.38,42.9-26.09,66.7,44.33,152.3,121.9,206.75,75.43,52.7,151.21,102.49,222.58,158.77,12.56,9.8,25,19.41,37.59,28.87,25.18,18.94,51,37.32,77.06,55.28Z"/><path class="cls-5" d="M818.18,456.78q-23.34-15.33-45.63-31.49t-43.61-33.14c-62.41-49.47-126.87-91.93-198.73-135.34C440.52,202.67,348.37,126.1,358.54,44.48,361.42,26.42,372,13.4,388.75,4.1c24.57-13.1,59.74-6,91.8,13.13,7.73,5,17.65,7.41,24.18,3.81,5.61-3.71,6.7-9.83,6.33-16.51-2.5-25-25.55-48.94-53.88-65.07-20.75-11.85-42.48-19.4-64.67-22.22-55.75-8.56-114.77-15.32-159.78-3,72.9,1.53,151.46-14.65,228.66,33.11C485-37.85,510-10.34,495.28,6.94c-3,3.31-9.16,4-14.07,1.9C431.05-13,374.28-10.27,362,26.86c-39.15,116.63,143.42,218,263.12,294.7,29.29,18.84,55.57,38.39,82.61,59.27,12.25,9.45,24,18.68,35.86,27.76q35.57,27.23,73.08,52.71Z"/><path class="cls-6" d="M822,444.44q-22.44-14.42-43.31-30c-13.94-10.37-27.43-21.09-41.29-32.12C676.79,332.56,609,293.72,538.06,253c-88.19-51-184.72-129.23-170.8-207.8C371.43,17.37,405.33-6,445.47,15.36c18.07,9.66,28.14,29.37,50.9,35.21,17.07,4.38,28.92-4.43,33.24-14.94C542.27,2.6,511-40.81,467.9-65.81c-20.74-11.85-41-18.85-63.1-23.5-49.47-11.08-100.6-19-141.71-9.9,65.12.91,135.61-.83,203.29,37.26C491.12-48.12,510-29.51,519.57-7.66,527.11,10.62,529,30,513.2,39.44c-9.8,5.39-27,.25-36.39-8.68C453.52,7.9,418.8-3.88,394.33,7.39c-18.57,9.06-29.81,23.48-30.55,43.28-6.19,116.77,151.05,191.66,264.93,259.2,44.17,25.88,81.41,55.67,118.78,86.11q17.46,14,35.76,27.16t37.43,25.69Z"/><path class="cls-7" d="M825.49,432.56q-15.24-10.38-30-21.23T766.57,389c-35.84-28.93-70.56-57.3-113-81.11C548.68,249.58,423.06,198.61,378.7,93.47c-10-24.11-7.46-46.27,6.12-62.6,7.77-9,19.66-15.19,37.27-10.38,21.83,5.73,24,24.05,36.29,36.68C477.26,75.78,506.7,78.78,525,70.79c33.63-15.26,29-56,8-88.54-48.1-75-162.18-96.15-237.64-92.1,81.76,3,200.92,20,240.37,106.45,13.79,29.76,13.72,67.34-25.91,70.05-29,1.84-50.69-22.29-68.94-42.3-11.4-12.5-31.55-11.75-44.12-6.71-26.32,11-30.78,37.36-24,63.28C389.4,145,454,197.75,523.6,238.65c86.34,50.77,172.8,92.71,243.4,157q13.68,10.79,28,21t29.21,20.09Z"/><path class="cls-8" d="M829.54,421.51q-14.32-9.43-27.64-19.64c-8.89-6.8-17.49-13.83-26.1-21-62.24-56.52-140.2-94.06-217.28-134.07-68-35.18-135-79.07-166.58-140.57C378.35,79.79,373.38,48.94,398.87,36c7.07-3.16,20-1.51,25.54,6.19,11,15.41,12.3,36.21,32.86,44.71,42.06,17.14,92.3,11,102.87-21.2,14.09-42.06-8.81-98.41-66-133.68C442.45-100,382-116.9,329.77-116.16c54.94,6.61,113.36,17.35,164.9,51.17C554.08-25.38,583.1,51.27,535.85,80.27,519.66,90,494.25,91.57,470,82.59c-19.88-7.31-31.47-23.16-36.73-38.94-4-11.56-19.37-16.46-30.28-14.53-7.35,1.65-13.89,5.24-16.82,11.13-33,61,51.65,141.07,128.13,185.06C604.87,277,699.32,315.89,772.5,384c8.79,7.32,17.63,14.47,26.81,21.38S818,419,828,425.37Z"/><path class="cls-9" d="M834.89,411.65q-15-9.66-28.54-20.4c-77-76.34-180.45-117.49-279-170.54C464.52,186.56,402.32,137,391.25,78.85a24.11,24.11,0,0,1,3.41-17.62c3.62-4.7,13.46-7.5,18.16-1.75C443.86,97,480,137.29,531.8,149c-13.7-8-36.95-28.28-16.7-30.87,79.07-8.74,81.69-85.06,36.45-145-42.66-55.91-123.27-86-189.54-93,66,12.44,144.11,36.74,184.68,93.49C574,10.68,583,53.1,564.9,83.6c-12.57,21.62-44.31,23.11-70.42,30.48-5.12,1.56-9,7.34-11.36,6.66-34.19-11.34-46-42.69-65-66.48-4-4.56-12.92-8.64-18.82-6.44C393,50.34,388.89,54.6,387.8,60.73,384.06,90.84,402,123.33,430,152c67.79,69.42,160.85,103.35,247.64,149.39,48.11,25.27,86.22,59.6,125.9,92.69,9.26,7.34,19,14.38,29.28,21Z"/><path class="cls-10" d="M842.09,403.09a332.29,332.29,0,0,1-28.33-20.84c-77.31-77.49-183-116-282.11-167.63C477,185.94,422.1,146.16,406,94.73c-1.26-4.21-.66-8.19,3.53-9.87,1.71-.52,5,.27,6.62,1.58,97.12,90.83,260.62,120.45,335,56.2-3.3-.79-5.11,1.56-7.21,2.4-53.12,24.2-126.12,34.09-194.58-3.35-9.58-5.27-.46-11.85,5-13.73,69.38-21.77,48.49-100.71,4.76-157.49C521-78.61,452.56-110.88,392.58-120.34c61.13,15.5,129.58,43.36,166,94.79,40.57,56.74,48.29,128.11-14.47,151.46-5.51,1.88-11.47,8.49-6.27,12.1,41.62,31.46,96.43,30.31,141.26,31.22C596,190,484.39,151.12,414,77.69c-2.81-2.93-8-4-10.31-2-4.44,2.75-5.14,8.56-3.74,13.53,8.52,30.56,31.75,57.83,60.21,81.72,61.95,50.62,138.08,80.93,211.38,115.3,53,24.79,95.07,61.09,136.93,97.65A292.78,292.78,0,0,0,839.26,406Z"/><path class="cls-11" d="M851.5,396a320.75,320.75,0,0,1-28.16-21C756.11,306.15,663,267.05,572.84,227.22c-51.77-23.16-110-54.14-133.79-101-1.89-2.82,5.51-1.88,8.57,0,83.19,43.74,174.24,67.1,250.42,50.25,64.48-14.29,98.44-58.62,143.13-91.64-17.79-8.15-32.42.31-42.32,7.53-31.76,25.07-59.35,55.47-108.25,64-32.72,5.79-78.25,10.69-113-13.26,22-19.69,48.94-39.11,41.79-74.29C602.23-14.11,518.73-102.1,414.43-121.62,519.88-96.06,603.06-12.16,612.05,73c3.16,33.2-24.92,49.17-43.19,69.33,18.59,17.1,48,17.52,70.42,19.26,78,7,118.58-35.79,166.33-66.94a14.38,14.38,0,0,1,12.08-2.89c-33.08,41.86-76.9,79.41-145.85,86.87-73,7.3-155.47-13.49-226.2-60.44-5.19-3.6-10.92-7.65-16.72-7.28-8.42.77-1.39,11.62,2.78,16.94,23.06,33.51,58.81,60.17,98.41,81,60.21,32,120.16,55.44,180.22,86.66,42.53,22,75.44,52.7,109.88,81.82q13.08,10.94,27.62,21Z"/><path class="cls-12" d="M863.45,390.19a248.2,248.2,0,0,1-32.19-23.55C764.86,292.89,666.54,259.76,575,219.38c-31.06-13.89-64.26-29.54-83.65-55.58-2.42-3.26,5.51-1.88,8.42-.78,101,30.9,199.56,34.2,265.69-9.36C798.68,131.73,822,95.25,877.24,99c3.16,0,8-.45,7.21-2.4-9.63-17.44-36.75-31.94-55.65-27-36.63,9-51.17,39.19-78.83,57.42-34.18,21.82-78.76,36.43-133.24,25.08-7.93-1.37-14.24-8.44-8.63-12.15,55.31-36.46,23.69-110.12-23.88-168.13-38-45.73-94.15-77.56-153.62-96.17-.92-.11.29,1.51-.64,1.4C481.65-105,532.39-80.1,569.55-38.9c55.4,61.21,92.15,142.9,27,179.58-5.22,3.39,4.36,8.66,9.66,10.44,21.59,6.8,40.57,7,60.72,6.24,70.59-3.56,101-47.6,144.8-78.15a40.5,40.5,0,0,1,38.95-3.9c7.83,3.21,24.83,12,20.11,13.24-53,15.38-81.29,51.58-127.31,75.22-71.66,35.85-170.72,22.53-265-13-6.76-2.33-7.46,3.47-2.51,8.16,46.35,46.79,110.23,69.65,170.86,94.3,69,28.3,131.8,66.86,183,117.65a275,275,0,0,0,29,21.28Z"/><path class="cls-13" d="M877.89,385.39a444.38,444.38,0,0,1-48.18-37.34c-27.14-20.52-47.84-46.36-80-63.72-63.81-34.27-134.64-46.22-191.85-88.49-3.74-3.06,1.23-5.38,4.39-5.34,112.68,16.16,197-17,261.59-68.85,16.93-13,43-13.32,72.14-4.83,7.69,2.45,13.79-3.41,10.79-9.69-10.06-19.7-33.91-36-58-41.64-20.23-4.41-34.08,3.41-45.15,11.59-21.51,15-37.83,33.51-59.34,48.47-22.82,15.16-49.43,24.68-84.08,25.06-9,.34-27.7-.94-25.68-6.94,10.56-32.2,28.66-62.7,9-104.25C607-36.35,526.91-101.8,436.46-129.14,533.21-94.74,615.51-24.95,644.9,58.38c12,34.7-3.68,58.87-21.23,82.8-3.22,4.38,7,8.26,12.14,9.28,33.71,6.5,61.28-.32,86.29-11.14,28.8-12.19,46.82-31.28,66.68-50.13C803.72,75.25,822.21,61,852.12,68.87c20.38,5.16,40.59,16.58,48.77,33.46,1.64,3.9-.27,8.08-4.5,7.17-28.7-6.23-52.22-1.85-71.43,8.61-35,19.88-61.62,46-102.25,60-53.35,18.28-115.89,14.39-182.1,3-4.62-.59-12.36,1.37-7,5.74C556.31,206.69,586,218.21,614.15,231,669,256,730.37,270.45,777,309.17c15.63,13.41,30.73,26.39,46.52,39.46A555.29,555.29,0,0,0,872.4,387Z"/><path class="cls-14" d="M894.77,381.07a401.23,401.23,0,0,1-45-33.73c-16.08-12.91-29.61-27.16-44.46-41.21-36.94-35.28-89.18-46.71-135-66.89-16.19-6.85-35.64-11.9-44-25.13-5-7.27,9.22-8.41,16.33-9,70.4-6.9,123.1-33.37,168.95-67.35,22.54-16.66,56.7-14.9,92.41-7.42,14.54,2.95,16.92-13,8.44-24.35C899.47,87.78,881.52,69.28,857.05,64c-55.69-13-74.66,29.58-104,50.92-13,9.76-26.05,19.53-43.64,24.3-15,4.37-32.11,11.4-51.5,1.93-1.46-.55-2.28-2.5-1.89-2.82,24.2-52.94,3.09-121.21-56.46-178.16-45.92-44.53-102.82-75.71-163.93-98.22-.54-.43.28,1.51.82,2C529.54-102.21,613-40.38,651,38.53,669,76.19,663.1,109,647,137.87c-2.69,4.82,8.3,8.06,13.84,8.77,28,2.45,48.94-5.95,69.61-15.85,29.68-14.66,47-37.52,71.47-55.78,13.17-9,29.64-17.24,52.55-10.64,22.51,6.91,43.55,20.27,55,37.94,3.93,6.4,5.61,12.88,4,18.57s-9.37,7.65-16.13,5.32c-30.63-11.63-59.06-9.35-77.3,3.81-57.71,42.79-124.34,71.91-217.36,73.73-3.16,0-5.36,2.63-2.55,5.57,8.45,8.81,20.51,12.92,31.39,18,57.61,25.38,122.15,39.84,168.56,82.22,14.71,13.3,28.63,27.23,44.9,40.27a401.6,401.6,0,0,0,43.47,32.81Z"/><path class="cls-15" d="M913.82,376.61a301.36,301.36,0,0,1-36.73-26.83c-54.9-56.61-124.29-94.17-199.68-127.7-3.45-1.54-1.29-6.8,2.12-7.84,53.74-18.6,98-44.3,143.31-71.71,19.45-11.53,48-6.06,76-1,15.86,2.75,26.65-6.94,25.13-19.66C921.39,98.67,895.12,79.12,870.53,66c-23-11.76-47.23-11.15-63.42-1.42-40.33,25.1-61.25,69.24-122.34,72.9-7.25-.18-13.66-5.42-12-11.11C711.11,20,571.55-104.24,431.16-147.5c0,0,2.52,1.42,2.28,2.5,98,36,196.78,100.18,232.72,189.5,13,33,10.19,60.63-.6,86.9-1.42,2,1.15,6,5,7.26,35.17,7.05,56.64-10.49,77.51-24,25.31-16.32,39.31-40,69.28-53.11,33-13.87,77.2,14.6,98.09,43.79,4.46,6.83,8,13.54,6.51,20-1.58,8.28-9.63,15.73-19.7,12.61-53.64-16.39-89.47,1.53-118.11,24.06-32.93,26-79,37.5-124.26,50.91-8.53,2.6-2.86,11.06,5.5,14.7,46.71,20.31,96.86,32.58,137.16,64.23C827,311.1,848.26,333,871.82,353.28a251.57,251.57,0,0,0,34.91,25Z"/><path class="cls-16" d="M934.6,371.29c-14.3-8.16-29.85-16.4-40.57-27.72-43.51-50.85-103.94-88.75-169.76-117-11.28-4.75-2.2-13.91,3.94-17.19C757,194.6,783.89,179.6,808,161.65c21-15.39,52.07-15.49,85.5-10.51,16.64,2.11,32.76-3.21,34.27-16.65,2.44-20.33-15.59-44-36.81-60.69-15.88-12.34-36.74-22.36-55.43-21-49.51,2.93-61.94,41.88-95.63,61.56-12.14,7.3-32.2,22.81-51.14,8.61C714.36,8.61,569.14-114.49,424.38-159.42c-.93-.12,2.81,2.94,2.81,2.94C570.15-109.21,713.12,14,684.07,126.74c-.88,2.47,4.56,5,8.26,5.48,27.26-1.33,43.12-15.16,61.26-26.49,29.6-19.83,46.58-63.37,102.84-47.37,34.82,10,63.75,38.68,70.38,66.43,3.37,13-7.66,23.71-23.63,22.79-30.85-1-63.68-9.93-85.72,4.59-32.24,20.22-62,39.29-98.88,56.35-7.07,3.15-17.94,7.67-12.27,16.13,3.78,5.64,10.69,8.73,17.44,11.06,51.73,20.57,105.59,42.89,138.32,86.85,6.06,8.14,15.53,15.24,23.6,22.28a268.94,268.94,0,0,0,41.27,28.52Z"/><path class="cls-17" d="M956.6,364.46c-12.65-7.34-25.5-15.06-37.19-23.78s-22.26-18.43-30.67-29.58c-28-38.09-74.25-63.13-120.28-82.24-8.36-3.64-11.26-11.75-7.65-16.45,29.69-31.24,67.88-58.08,128.47-52.59,33.13,3.47,53.84-20.43,38.11-48.59-15.2-27.73-46.28-51.21-81.6-59C818,46.11,800.17,59,784.41,71c-22.93,17-39.74,54.28-80.88,44.26-3.31-.79-4.46-6.83-4.26-10.49C711.71-17.15,554.33-126,417.85-172.41c1.21,1.63,1.11,3.46,2.56,4,137.7,48.08,291.67,157.93,275.25,277.82-.74,3.23.26,8.51,5.56,10.29,19.75,6.56,32.73-5.79,44.34-13.53C773,89,787.12,59.13,824.57,52.1c39.69-7.12,87,28.38,104.07,63.34,12.24,24-7,41.49-34.39,42.06-26.09.37-53.62-6.81-72.54,5.16-27.26,17.91-64.24,29.79-76.3,58.85-.5,2.15,2.46,5.84,6.45,7.82,38,17,78.9,30.66,108.26,61.66,16.88,17.62,29.68,35.1,49.45,50.37a290.22,290.22,0,0,0,39,25.75Z"/><path class="cls-18" d="M978.86,356.08c-12.43-6.31-24.87-13.11-35.93-21S922.17,318.41,915.2,308c-23-35.36-63.85-63-105.7-83.83-4.91-2.09-9.71-6-10-10.12-1.5-19.72,17.71-30.18,36.07-35.58,24.41-6.85,51.53-8.93,76.47-15.35,11.93-3.64,22-10.1,22.84-22.15,2.41-39.5-42.76-87.25-94.29-94.9C815.45,42.1,799,52.91,784.43,64c-20.2,14.75-31.81,39.08-62.33,42.2-6.58,1-10.25-6.46-10.72-11.31C704.5-31.33,550.9-134.5,413.16-185.17c.29,1.51,1.26,4.22,2.18,4.33C558.63-129.46,708.46-22.35,709.83,105.7c.19,3.34,5.63,5.87,9,4.83,36.24-8.66,52.39-37.57,80.72-54.6,15-8.78,34.74-11.8,57-3.82,35.39,13,66.66,39.8,76.35,69.41,14.71,46.45-50.31,43.72-89,49.13-26.83,3.59-44.26,18.7-58.08,36.1-3.47,5.46-2.28,14.08,6.61,18.16,43.55,20.28,85.34,45.49,111.11,82C911.29,318.13,921.4,328,933,336.64a235.23,235.23,0,0,0,37.91,22.64Z"/><path class="cls-19" d="M1000.69,346.16c-21.64-10.16-39.29-23.85-54.42-39.28a290,290,0,0,1-21-24.21C909.38,256,882.33,237.06,852,219.94c-11.18-6.58-16.5-17.94-10-24.12,17.92-17.25,51.55-15.93,75.48-27.63,19.35-9.7,28.81-28.77,18.16-51.49-12.85-29.64-43.83-54.95-78.45-68.56C801.09,25.9,776.72,68.5,745.81,88.52c-4,2.44-9,4.75-15.49,3.93-5.16-1-8.26-5.47-9.52-9.68-14.5-50.12-35.57-99.23-82.26-143.12-64-61.19-146.31-100.4-227-138.29.29,1.51.33,4.09,1.79,4.65,134.8,56.55,284.33,152.57,303,276.93.86,4.53,2.4,10.25,8.38,13.22,9.82,4.2,17.38-1.11,23-4.82,24.18-12.77,35-36.45,63.6-45,20.46-6.25,47.46.5,71,15.29,29.15,18.07,53.8,43.32,55,68.53,2.58,46.76-65,42.6-103.17,59.85-11.12,5.59-17.34,20.28-.19,29.83,36.44,20.84,71.61,44.47,91.22,76.45,7.44,11.81,17.68,21.78,29.41,30.5S979.52,343,992.9,349.92Z"/><path class="cls-20" d="M1021.58,334.59c-22.26-12-41.75-26.4-57.8-43a188.77,188.77,0,0,1-21.4-26.44c-7.59-10.77-11.59-22.33-18.62-33.17-5.67-8.46-18.89-11.62-27.34-20.43-6.16-6.31-9.45-14.1-4.37-18.24,16.39-13.4,39.2-21.56,47.7-40.48a39.76,39.76,0,0,0,3.8-23.61c-1.22-8.52-5.15-17.64-12.49-27.14-23.8-30.29-61.33-61.59-102.5-64.61-38-3-53.56,21.94-75.46,37.21-7.17,5-20.11,3.34-24.9-7.59-20.35-45.33-38.82-87.84-79.39-128-65.9-66.6-152.32-105.95-234-151-.64,1.39-1.27,2.78-1.91,4.18C548.5-144.75,695.32-53.5,726.62,75.4c2.65,9.18,15.69,9,21.69,5,23.9-14.29,37-38.05,71.58-41,37.24-3.37,77.71,22,101.38,51.58,13,16.4,21.61,33,20.29,49.75-1,34.87-50.87,33.7-68,57.32-11.49,15.49,27.57,26.35,40.71,40.92,9.27,10.75,13.66,22,21.89,32.93a228.59,228.59,0,0,0,21.51,25.56A215.62,215.62,0,0,0,1014.18,339Z"/><path class="cls-21" d="M1040.83,321.42c-34.77-19.63-71-44.13-80.11-77.72-2.84-9-4.07-17.83-6.42-26.61s-5.81-17.5-13.15-26.31c-2.14-1.71-1.25-4.19-.61-5.6,3.36-13.25,8.35-26.72,9.23-40.75s-2.34-28.63-15.44-44.11a225.41,225.41,0,0,0-28.79-29.07c-23.78-19.62-52.78-36.94-83-39.31-30.61-2.05-46.82,14.69-67.74,25.67-10.18,5.7-21-6.36-25.41-15C718.61,19.11,706.8-2.66,690.51-24.26c-31.76-41.26-71.61-77.65-118.78-109.8-48.62-32.72-98.05-57.79-149.94-88.7-.53-.44-.88,2.46-2.58,3,64.7,41.39,136.11,72.94,195.25,120.63,54.48,44.51,91.42,96.37,116.7,153.38,4.64,10.18,17.09,14,24.8,9.42,23.25-12.89,40.16-35.43,77.57-28.47,30.4,5.7,57.56,22.79,79,42.46A137.4,137.4,0,0,1,933.42,102a96.85,96.85,0,0,1,12.85,27.81c3.63,13.17.27,23.34-5.18,32.75-4.26,12.48-22.58,20.47-15.87,36.8,2.47,5.85,11.22,9.17,13.69,15,4.92,11.68,7.86,22.37,13.72,33.72a170.23,170.23,0,0,0,19.78,30.05,182.68,182.68,0,0,0,61.79,48.17Z"/><path class="cls-22" d="M1057.49,307.22c-23.76-14.07-50.2-27.38-64.11-48.31C976,233.85,979,209.55,974.67,184.3c-4.58-31.17-12.32-62.37-39.29-92.69a246,246,0,0,0-30.59-28.49C860.48,22.76,799.61,15.76,756.82,35c-5.12,1.57-13.37-3.91-17-8.79-49.59-68.58-104.25-133-187-184.07-41.92-26-79.72-49.19-120.09-76.43l-3.9,3.19a301.44,301.44,0,0,0,34.63,23.2C573-146.43,673.87-76.13,728.53,21.47,734.78,33,751.81,51.33,762,43c38.29-28.67,108.63-14.58,151.81,29.4a165.08,165.08,0,0,1,28.17,32,117.33,117.33,0,0,1,16.51,37.3c1.72,9.06,1.45,17.13,4.1,26.31,8.06,25.72,5.9,47.55,13,73.15,8.28,31.64,44.48,53.56,76.17,71.23Z"/><path class="cls-23" d="M1072.33,292.68c-31.35-15.93-67.15-38.17-72.51-68.7-7.75-47.78-12.08-96.61-59.3-140.93a339.11,339.11,0,0,0-31.66-26C862.68,20.09,807.24,6,751.5,7.07,744.25,6.88,736.88-1,732-7.57c-64.59-83.38-153.8-149.25-247.87-208.86-24.51-18.59-37.59-29.16-37.59-29.16l-4.72,3.85c12.87,9.52,24.38,20.2,39.15,29.08C587.59-147.9,675.19-76.33,742.63,12.58c1.89,2.81,7.33,5.35,10,5,40.65-4.42,84.8-4.71,126.14,22.56a290.83,290.83,0,0,1,35.8,24.67A276.5,276.5,0,0,1,946.9,95.28c41.58,45.45,38.19,89.24,47.35,135,6.67,30.33,41.8,51.37,72.88,67.65Z"/><path class="cls-24" d="M1086.11,278.16c-32-13-61.09-35.5-70.64-64.35-10.8-33.07-12.22-64.2-33.68-96.41-16.43-24.69-38-45.82-62.69-64.47a421.66,421.66,0,0,0-39-26.08c-41.24-27.47-88-33.78-133.84-49.56a40.21,40.21,0,0,1-17.73-12.57c-68.94-75.46-150.64-132.64-233.3-192.26-22.7-18.2-35.6-28.75-35.6-28.75l-4.72,3.86s12.92,10.54,36.38,28.93c84,58.57,168.24,117.18,233.76,193.68,9.95,12,23.4,21,39,22.27,43.84,5.2,88,18.91,126.82,45.05a401.65,401.65,0,0,1,33.06,23.64,322.33,322.33,0,0,1,30.25,27.33c38.57,39.17,46.48,80.71,53.46,122.13,5.51,31.29,38.09,57.91,73.55,72.77Z"/><path class="cls-25" d="M1099.37,263.83c-58.92-20.68-75.13-70.28-90.57-113.52C995.24,112,968.85,80.18,935.66,52.65c-11.06-9.18-22.88-17.88-35.23-26.2C854-6.82,800.66-26.12,748-46.81c-6.9-3.09-14-6.93-19.43-12C659-123.34,584.19-180,507.82-238.35L472.75-267,468-263.13s12.91,10.54,35.18,28.65c72.16,55.55,147.31,106.74,210.68,171.91C726.21-49.95,741.91-40.95,759-34,803.31-16.93,848.1-2,888.26,24.17c11.4,7.09,22.62,14.57,33.62,22.6C980,89.17,1008,144,1021.16,198.69c7.6,30.44,39,55.43,73.48,70.27Z"/><path class="cls-26" d="M1112.42,249.81c-33.74-14.33-65.07-36.74-74.37-66.67-19.12-59-61.41-107.57-114.26-149.48C910.57,23.18,896.7,13.12,882.36,3.42,841-25,795.32-47.06,750-69.4c-30.28-14.54-54.22-36-78-56.71-49-42-100.41-82-151.16-122.95l-35-28.62-4.72,3.85,35,28.62c55.59,44.81,112.8,87.09,165.47,134C702.88-92,725.07-72.57,752.43-59.15,798.51-37.45,844.3-17.26,886.56,11q16.89,11,33.1,22.79T951.2,58.61c49.57,42.41,65.38,92.32,89.77,142.22,12,25.11,39.79,40.81,66.77,54Z"/></g></svg>