<svg xmlns="http://www.w3.org/2000/svg" xmlns:xlink="http://www.w3.org/1999/xlink" viewBox="0 0 800 409"><defs><style>.cls-1{fill:none;}.cls-2{isolation:isolate;}.cls-3{clip-path:url(#clip-path);}.cls-4{fill:#4d4d4d;}.cls-5{fill:url(#New_Gradient_Swatch);}.cls-6{fill:url(#New_Gradient_Swatch-2);}.cls-7,.cls-8{opacity:0.15;mix-blend-mode:screen;}.cls-7{fill:url(#radial-gradient);}.cls-8{fill:url(#radial-gradient-2);}</style><clipPath id="clip-path"><rect class="cls-1" y="-0.12" width="800" height="409.11"/></clipPath><linearGradient id="New_Gradient_Swatch" x1="348.59" y1="199.37" x2="451.58" y2="199.37" gradientTransform="matrix(-6.73, 0, 0, 6.73, 3089.68, -1169.4)" gradientUnits="userSpaceOnUse"><stop offset="0"/><stop offset="0.74"/></linearGradient><linearGradient id="New_Gradient_Swatch-2" x1="728.73" y1="-88.38" x2="354.78" y2="385.28" gradientTransform="matrix(-1, 0, 0, 1, 799.46, 0)" xlink:href="#New_Gradient_Swatch"/><radialGradient id="radial-gradient" cx="720.79" cy="251.03" r="99.73" gradientTransform="matrix(0, -2.12, -0.97, 0.01, 380.9, 1835.88)" gradientUnits="userSpaceOnUse"><stop offset="0" stop-color="#395882"/><stop offset="0.01" stop-color="#36547b"/><stop offset="0.08" stop-color="#283d5b"/><stop offset="0.16" stop-color="#1b2a3e"/><stop offset="0.24" stop-color="#111b27"/><stop offset="0.34" stop-color="#090f16"/><stop offset="0.46" stop-color="#040609"/><stop offset="0.62" stop-color="#010102"/><stop offset="1"/></radialGradient><radialGradient id="radial-gradient-2" cx="564.51" cy="133.57" r="74.01" gradientTransform="matrix(-0.01, -2.12, -2.01, 0.01, 736.59, 1278.78)" xlink:href="#radial-gradient"/></defs><g class="cls-2"><g id="Layer_1" data-name="Layer 1"><g class="cls-3"><rect class="cls-1" x="52.75" y="-78.54" width="751.77" height="570.39" transform="translate(857.26 413.31) rotate(180)"/><path class="cls-4" d="M737.86,65.22c-12.48,15.4-37.15,17.91-50,33.06-14.83,17.55-7.61,43.28,1,64.24s17.62,45.58,5.2,64.73c-8,12.26-23.16,18.84-38.2,20.82s-30.29.06-45.44-.91a364.42,364.42,0,0,0-84.56,4.45c-22.23,3.8-44.43,9.83-63.43,21.4-18.85,11.48-33.68,27.84-49.54,42.84-37.45,35.4-82.49,64.31-132.85,79.63s-106.22,16.43-155.69-1.29c-18.77-6.73-36.83-16.33-50.1-30.59S53,329.9,56.12,311.11c5-30.42,36.49-50.83,67.72-59.31s64.59-8.9,95.26-19.05C264,217.87,299.85,182.13,316.77,140c7.66-19.1,11.68-39.3,17.32-59,9.3-32.48,23.58-64.54,48-89C418.79-44.86,475-60.19,528.4-58,565.76-56.45,799.41-10.7,737.86,65.22Z"/><path class="cls-5" d="M734.74,62.26c-12.48,15.4-37.15,17.91-50,33.07-14.83,17.54-7.6,43.28,1,64.24s17.62,45.57,5.2,64.72c-8,12.26-23.16,18.84-38.2,20.82s-30.29.07-45.43-.9a363.92,363.92,0,0,0-84.57,4.44c-22.23,3.8-44.43,9.83-63.43,21.4-18.85,11.48-33.68,27.85-49.54,42.84-37.45,35.4-82.49,64.31-132.85,79.63S170.72,409,121.25,391.23c-18.77-6.72-36.83-16.32-50.09-30.59S49.92,327,53,308.16c5-30.43,36.49-50.83,67.72-59.31S185.31,240,216,229.79c44.92-14.88,80.75-50.62,97.67-92.77,7.66-19.09,11.68-39.29,17.32-59,9.3-32.48,23.58-64.53,48-89,36.73-36.84,92.91-52.17,146.34-50C562.65-59.41,796.29-13.66,734.74,62.26Z"/><path class="cls-4" d="M196.45,388.62c60-18.17,99.76-63.48,127.73-116.82,7.24-13.81,15.44-29.47,27.91-43.78,26.74-30.67,73.37-52.22,112.3-64,4.51-1.37,8.75-2.54,12.72-3.57a29.74,29.74,0,0,0,20.36-17.63,27.44,27.44,0,0,0-3.14-26c-13.76-19.61-25.84-45.41-13.83-75.08a67.36,67.36,0,0,1,4.49-9,22.39,22.39,0,0,0,.16-22.7A24.91,24.91,0,0,0,465-2.16C422.75-4.71,371.09.38,356.27,4.2c-32.85,8.47-64.95,27.68-79.46,56.29-19.43,38.32-6.4,82.91-8.61,121.56-2.9,50.6-28.91,98.12-69.57,127.13-25.58,18.25-53.77,27.38-73.79,40-14.71,9.3-22.44,21.26-21.42,27.45.62,3.75,4.79,8.48,10.16,11.53C131.3,398.24,166.71,397.62,196.45,388.62Z"/><path class="cls-6" d="M194.1,386.34c60-18.18,99.76-63.48,127.73-116.83,7.24-13.81,15.44-29.46,27.91-43.77,26.74-30.68,73.37-52.22,112.3-64,4.51-1.36,8.75-2.53,12.72-3.57a29.72,29.72,0,0,0,20.36-17.62,27.46,27.46,0,0,0-3.14-26c-13.76-19.6-25.84-45.4-13.83-75.08a67.23,67.23,0,0,1,4.49-9,22.41,22.41,0,0,0,.16-22.71,24.91,24.91,0,0,0-20.2-12.2C420.4-7,368.74-1.91,353.92,1.92,321.07,10.39,289,29.6,274.46,58.21c-19.43,38.32-6.4,82.91-8.61,121.56-2.9,50.59-28.91,98.12-69.57,127.13-25.58,18.25-53.77,27.37-73.79,40-14.71,9.29-22.44,21.26-21.42,27.45.62,3.74,4.79,8.48,10.16,11.52C129,396,164.36,395.34,194.1,386.34Z"/><ellipse class="cls-7" cx="133.88" cy="311.04" rx="97.23" ry="211.22" transform="translate(-177.58 443.92) rotate(-89.82)"/><ellipse class="cls-8" cx="464.8" cy="84.16" rx="148.56" ry="156.75" transform="translate(379.16 548.69) rotate(-89.82)"/></g></g></g></svg>