<svg id="Слой_1" data-name="Слой 1" xmlns="http://www.w3.org/2000/svg" viewBox="0 0 55 55"><defs><style>.cls-1{fill:#323232;}</style></defs><path class="cls-1" d="M8.64,34.47,7.06,32.54a4.1,4.1,0,0,1,.37-5.6l17.23-16.1a4.1,4.1,0,0,1,5.6,0L47.57,27a4.09,4.09,0,0,1,.35,5.63l-1.55,1.86a4.11,4.11,0,0,1-5.95.38l-10-9.28a4.11,4.11,0,0,0-5.55,0L14.57,34.91A4.11,4.11,0,0,1,8.64,34.47Z"/><rect class="cls-1" x="21.2" y="35.38" width="12.61" height="12.61" rx="3.62" transform="translate(37.53 -7.24) rotate(45)"/></svg>