<svg id="Слой_1" data-name="Слой 1" xmlns="http://www.w3.org/2000/svg" viewBox="0 0 1600 198.13"><defs><style>.cls-1{fill:#6a8187;}.cls-2{fill:#fff;}</style></defs><ellipse class="cls-1" cx="108.43" cy="101.69" rx="86.37" ry="79.5"/><ellipse class="cls-1" cx="611.24" cy="101.69" rx="86.37" ry="79.5"/><path class="cls-2" d="M77.66,47.61h25.41q12,0,18.24,2a18.31,18.31,0,0,1,10,8.27q3.83,6.22,3.82,20.07,0,9.35-2.7,13c-1.79,2.47-5.33,4.35-10.61,5.67q8.82,2.17,12,7.23T137,119.4v9.89q0,10.83-2.27,16a12.65,12.65,0,0,1-7.23,7.12q-5,1.92-20.32,1.91H77.66Zm25.47,18.26V89.61c1.09,0,1.94-.06,2.54-.06,2.5,0,4.1-.67,4.78-2s1-5.18,1-11.51q0-5-.85-7a4.28,4.28,0,0,0-2.2-2.54A18.38,18.38,0,0,0,103.13,65.87Zm0,40.36V136.1q5.39-.19,6.87-1.85t1.48-8.11v-10q0-6.87-1.33-8.31T103.13,106.23Z"/><path class="cls-2" d="M171.55,47.61V154.36H146.09V47.61Z"/><path class="cls-2" d="M233.08,47.61V69H218v85.39H192.49V69H177.42V47.61Z"/><path class="cls-2" d="M238.89,47.61h25.65q10.4,0,16,1.78A17.65,17.65,0,0,1,289,54.53a18.38,18.38,0,0,1,3.81,8.15,79.69,79.69,0,0,1,1,14.8v9.3q0,10.22-1.94,14.9a13.8,13.8,0,0,1-7.11,7.19q-5.18,2.5-13.52,2.5h-6.83v43H238.89Zm25.47,18.26V93c.72,0,1.35.07,1.87.07q3.51,0,4.87-1.88t1.36-7.82V74.64c0-3.64-.52-6-1.57-7.12S267.66,65.87,264.36,65.87Z"/><path class="cls-2" d="M357.94,154.36H336.65V105.77L323.4,154.36H301.08V47.54h21.29V95.75l14.28-48.21h21.29Z"/><path class="cls-2" d="M426.67,47.61V154.36H401.2V109.53h-7.62v44.83H368.11V47.61h25.47V85.79h7.62V47.61Z"/><path class="cls-2" d="M480.92,47.61l14.56,106.75h-26l-1.36-19.18H459l-1.53,19.18H431.11l13-106.75Zm-13.5,68.64q-1.94-18.14-3.88-44.84-3.89,30.68-4.89,44.84Z"/><path class="cls-2" d="M657.16,154.36H565.33V47.54h25.53V133h7.56V47.54H624V133h7.56V47.54h25.65Z"/><path class="cls-2" d="M725.52,110.12q0,16.09-.7,22.78a26.85,26.85,0,0,1-4.35,12.23,23.91,23.91,0,0,1-9.89,8.51,33.44,33.44,0,0,1-14.52,3,34.24,34.24,0,0,1-14.13-2.81,23.58,23.58,0,0,1-10.07-8.4,26.66,26.66,0,0,1-4.54-12.2q-.72-6.6-.72-23.08V91.85q0-16.08.69-22.78a27,27,0,0,1,4.36-12.23,24,24,0,0,1,9.89-8.51,33.52,33.52,0,0,1,14.52-3,34.16,34.16,0,0,1,14.12,2.8,23.57,23.57,0,0,1,10.08,8.41,26.49,26.49,0,0,1,4.53,12.2q.74,6.59.73,23.07ZM700.05,75c0-5-.25-8.14-.75-9.53a3,3,0,0,0-3.12-2.08,3.42,3.42,0,0,0-3.06,1.69q-1.05,1.68-1,9.92v49.85q0,9.3.69,11.47a3,3,0,0,0,3.24,2.18,3.18,3.18,0,0,0,3.33-2.51q.72-2.5.72-11.93Z"/><path class="cls-2" d="M793.64,154.36H768.11V68.91h-7.56v85.45H735V47.54h58.62Z"/><path class="cls-2" d="M869.32,47.61h25.41q12,0,18.24,2a18.34,18.34,0,0,1,10,8.27q3.81,6.22,3.81,20.07,0,9.35-2.69,13c-1.79,2.47-5.33,4.35-10.62,5.67q8.84,2.17,12,7.23t3.15,15.47v9.89q0,10.83-2.27,16a12.65,12.65,0,0,1-7.23,7.12q-5,1.92-20.33,1.91H869.32Zm25.47,18.26V89.61c1.09,0,1.94-.06,2.54-.06q3.75,0,4.78-2t1-11.51q0-5-.85-7a4.26,4.26,0,0,0-2.21-2.54A18.24,18.24,0,0,0,894.79,65.87Zm0,40.36V136.1q5.38-.19,6.87-1.85c1-1.1,1.48-3.8,1.48-8.11v-10c0-4.58-.45-7.35-1.33-8.31S898.58,106.36,894.79,106.23Z"/><path class="cls-2" d="M994.61,154.36h-21.3V105.77l-13.24,48.59H937.74V47.54H959V95.75l14.27-48.21h21.3Z"/><path class="cls-2" d="M1056.07,47.61V69H1041v85.39h-25.47V69h-15.06V47.61Z"/><path class="cls-2" d="M1061.88,47.61h25.65q10.41,0,16,1.78a17.6,17.6,0,0,1,8.41,5.14,18.17,18.17,0,0,1,3.81,8.15,78.81,78.81,0,0,1,1,14.8v9.3q0,10.22-1.93,14.9a13.84,13.84,0,0,1-7.11,7.19q-5.18,2.5-13.52,2.5h-6.84v43h-25.47Zm25.47,18.26V93c.73,0,1.35.07,1.88.07,2.33,0,4-.63,4.86-1.88s1.37-3.86,1.37-7.82V74.64c0-3.64-.53-6-1.58-7.12S1090.66,65.87,1087.35,65.87Z"/><path class="cls-2" d="M1180.94,154.36h-21.3V105.77l-13.24,48.59h-22.33V47.54h21.3V95.75l14.27-48.21h21.3Z"/><path class="cls-2" d="M1250.45,129.37q0,11.94-2.85,17.15a12.59,12.59,0,0,1-8.62,6.53q-5.77,1.32-18.42,1.31H1191.1V47.54H1241V66.07h-24.38V84.14h3.93q11.81,0,17.85,1.52a13.87,13.87,0,0,1,9,6.69q3,5.18,3,16.25Zm-25.53-3.23V110.71c0-4.48-.42-7.21-1.24-8.17s-3.18-1.52-7-1.65V136q4.84,0,6.56-1.35T1224.92,126.14Z"/><path class="cls-2" d="M1259.46,47.61h42.47V69h-17V89.22h15.91v20.31h-15.91V133h18.69v21.36h-44.16Z"/><path class="cls-2" d="M1369.51,47.61V154.36H1344V109.53h-7.63v44.83H1311V47.61h25.46V85.79H1344V47.61Z"/><path class="cls-2" d="M1439.08,129.37q0,11.94-2.85,17.15a12.61,12.61,0,0,1-8.62,6.53q-5.77,1.32-18.42,1.31h-29.46V47.54h25.53v36.6h3.93q11.8,0,17.85,1.52a13.87,13.87,0,0,1,9,6.69q3,5.18,3,16.25Zm-25.53-3.23V110.71c0-4.48-.42-7.21-1.24-8.17s-3.18-1.52-7-1.65V136c3.23,0,5.41-.45,6.56-1.35S1413.55,130.89,1413.55,126.14Z"/><path class="cls-2" d="M1448.09,47.54h25.53l.12,45.11q7.2-.21,7.44-8.71l.49-20.83q.24-11.55,4.11-15.57h23.53q-3.45,3.9-3.38,16.09l.12,18.33q.12,16.62-17.18,18.93,17.3,2.31,17.18,19.19l-.12,17q-.08,12.14,3.38,17.27h-23.53q-4.11-4-4.11-15.56V118a9.08,9.08,0,0,0-2.21-6.37,7.66,7.66,0,0,0-5.72-2.47l-.12,45.23h-25.53Z"/><path class="cls-2" d="M1571.38,154.36h-21.29V105.77l-13.25,48.59h-22.32V47.54h21.29V95.75l14.28-48.21h21.29Z"/></svg>